<?xml version="1.0" standalone="no"?>
<!DOCTYPE svg PUBLIC "-//W3C//DTD SVG 20010904//EN"
 "http://www.w3.org/TR/2001/REC-SVG-20010904/DTD/svg10.dtd">
<svg version="1.0" xmlns="http://www.w3.org/2000/svg"
 width="197.000000pt" height="256.000000pt" viewBox="0 0 197.000000 256.000000"
 preserveAspectRatio="xMidYMid meet">

<g transform="translate(0.000000,256.000000) scale(0.100000,-0.100000)"
fill="#000000" stroke="none">
<path d="M991 2420 c-22 -39 -18 -52 8 -27 11 10 14 10 18 0 10 -28 24 -11 21
24 -5 50 -20 51 -47 3z m29 0 c0 -5 -5 -10 -11 -10 -5 0 -7 5 -4 10 3 6 8 10
11 10 2 0 4 -4 4 -10z"/>
<path d="M770 2432 c0 -11 -11 -24 -25 -30 -25 -11 -35 -42 -14 -42 5 0 8 4 5
9 -7 11 22 36 31 28 3 -4 0 -13 -7 -22 -7 -8 -8 -15 -2 -15 16 0 38 43 34 68
-4 26 -22 30 -22 4z"/>
<path d="M1065 2420 c-3 -6 1 -7 9 -4 18 7 21 14 7 14 -6 0 -13 -4 -16 -10z"/>
<path d="M1170 2426 c0 -2 9 -6 20 -9 11 -3 18 -1 14 4 -5 9 -34 13 -34 5z"/>
<path d="M813 2404 c-3 -7 -3 -19 0 -26 3 -7 6 -3 6 10 1 12 6 22 12 22 6 0 9
-9 6 -20 -3 -11 -1 -18 4 -14 5 3 9 12 9 20 0 8 5 14 11 14 6 0 8 -9 3 -22 -6
-22 -6 -22 14 2 l21 25 1 -22 c0 -25 7 -28 30 -13 13 8 12 10 -2 10 -10 0 -18
6 -18 14 0 18 -90 18 -97 0z"/>
<path d="M1154 2404 c22 -22 20 -27 -9 -22 -13 3 -22 1 -19 -3 9 -16 74 -10
74 6 0 8 -6 12 -14 9 -7 -3 -16 2 -19 10 -4 9 -11 16 -17 16 -6 0 -4 -7 4 -16z"/>
<path d="M1075 2390 l-20 -7 20 -5 c18 -5 18 -6 -2 -7 -13 0 -23 -7 -23 -15 0
-25 18 -28 40 -6 32 32 24 54 -15 40z m15 -34 c0 -2 -7 -6 -15 -10 -8 -3 -15
-1 -15 4 0 6 7 10 15 10 8 0 15 -2 15 -4z"/>
<path d="M1220 2390 c-9 -6 -10 -10 -3 -10 6 0 15 5 18 10 8 12 4 12 -15 0z"/>
<path d="M313 2283 c-22 -4 -23 -9 -23 -89 l0 -84 35 0 c24 0 35 5 35 15 0 8
-9 15 -20 15 -15 0 -20 7 -20 26 0 17 6 28 20 31 11 3 20 12 20 19 0 8 -9 14
-20 14 -11 0 -20 7 -20 15 0 8 9 15 20 15 11 0 20 7 20 15 0 15 -6 16 -47 8z"/>
<path d="M1043 2279 c-21 -8 -23 -14 -23 -94 0 -69 3 -85 15 -85 10 0 15 10
15 28 l0 27 23 -29 c20 -24 25 -26 35 -13 10 11 9 17 -3 27 -19 16 -19 34 0
50 18 15 20 64 3 77 -22 17 -42 21 -65 12z m42 -54 c0 -11 -8 -21 -17 -23 -14
-3 -18 3 -18 23 0 20 4 26 18 23 9 -2 17 -12 17 -23z"/>
<path d="M394 2235 c-13 -91 18 -151 66 -125 30 16 40 43 40 109 0 80 -16 78
-25 -3 -7 -74 -26 -101 -45 -65 -8 14 -10 42 -6 76 5 42 3 53 -8 53 -10 0 -17
-15 -22 -45z"/>
<path d="M643 2256 c-24 -21 -28 -32 -28 -75 0 -61 10 -72 72 -81 54 -9 69 -4
53 15 -8 9 -7 20 1 37 21 48 -16 128 -60 128 -5 0 -23 -11 -38 -24z m61 -22
c9 -8 16 -29 16 -45 0 -26 -3 -29 -21 -24 -19 6 -21 4 -16 -14 3 -13 0 -21 -8
-21 -28 0 -35 79 -9 104 8 9 17 16 19 16 2 0 11 -7 19 -16z"/>
<path d="M938 2273 c-15 -4 -18 -17 -18 -89 l0 -84 30 0 c20 0 30 5 30 15 0 8
-7 15 -15 15 -10 0 -15 10 -15 30 0 23 4 30 20 30 13 0 18 5 14 15 -4 8 -12
15 -20 15 -22 0 -17 31 6 37 11 3 20 9 20 14 0 9 -22 10 -52 2z"/>
<path d="M1173 2256 c-24 -21 -28 -32 -28 -76 0 -40 5 -55 19 -66 49 -35 109
6 109 75 0 47 -25 91 -53 91 -10 0 -32 -11 -47 -24z m65 -62 c3 -45 -14 -69
-42 -58 -41 16 -26 108 17 102 18 -2 23 -10 25 -44z"/>
<path d="M787 2263 c-4 -3 -7 -37 -7 -74 0 -69 14 -99 46 -99 40 0 76 92 60
155 -11 45 -26 26 -26 -33 0 -60 -18 -101 -38 -88 -7 4 -12 35 -12 77 0 64 -6
80 -23 62z"/>
<path d="M1396 2248 c-13 -50 -6 -118 14 -138 26 -26 36 -25 65 5 22 21 25 33
25 90 0 80 -16 85 -26 8 -9 -76 -20 -99 -40 -82 -11 9 -15 29 -13 73 3 60 -13
88 -25 44z"/>
<path d="M1558 2254 c-4 -5 -13 -37 -22 -71 -9 -34 -19 -69 -22 -78 -4 -9 0
-15 9 -15 10 0 19 18 28 53 l12 52 9 -32 c10 -40 25 -42 40 -5 12 27 12 27 16
-15 3 -36 7 -43 24 -43 16 0 19 5 15 23 -3 12 -11 49 -17 82 l-12 59 -21 -39
-20 -40 -17 39 c-9 22 -19 36 -22 30z"/>
<path d="M471 2014 c-54 -23 -68 -98 -26 -140 30 -30 78 -30 83 -1 3 15 0 18
-17 12 -11 -3 -29 -1 -41 5 -43 23 -12 100 41 100 18 0 29 5 29 14 0 20 -33
25 -69 10z"/>
<path d="M724 2008 c-40 -19 -58 -95 -31 -132 19 -26 90 -28 95 -3 3 15 0 18
-17 12 -35 -11 -61 3 -61 34 0 40 22 64 59 64 23 0 31 5 31 19 0 21 -40 24
-76 6z"/>
<path d="M908 1988 c-2 -25 -8 -33 -23 -33 -14 0 -21 8 -23 28 -2 15 -9 27
-18 27 -11 0 -14 -17 -14 -80 0 -64 3 -80 15 -80 10 0 15 11 15 35 0 31 3 35
25 35 22 0 25 -4 25 -35 0 -24 5 -35 15 -35 12 0 15 16 15 85 0 67 -3 85 -14
85 -9 0 -16 -12 -18 -32z"/>
<path d="M995 1995 c-34 -33 -35 -107 -3 -129 57 -40 118 0 118 79 0 73 -65
101 -115 50z m83 -47 c6 -53 -34 -88 -66 -56 -30 30 -4 91 36 86 21 -2 28 -9
30 -30z"/>
<path d="M1146 2004 c-3 -9 -6 -47 -6 -85 0 -55 3 -69 15 -69 9 0 15 10 15 26
l0 25 24 -28 c20 -22 27 -25 37 -16 10 10 9 16 -5 32 -17 19 -17 21 5 50 19
26 21 34 11 56 -10 20 -19 25 -51 25 -26 0 -41 -5 -45 -16z m59 -39 c0 -11 -8
-21 -17 -23 -14 -3 -18 3 -18 23 0 20 4 26 18 23 9 -2 17 -12 17 -23z"/>
<path d="M1293 2013 c-9 -3 -13 -30 -13 -84 0 -64 3 -79 15 -79 9 0 15 9 15
22 l0 21 24 -22 c32 -30 56 -18 27 13 -21 22 -21 22 -1 39 30 25 27 75 -6 87
-27 11 -42 11 -61 3z m47 -38 c10 -12 10 -18 0 -30 -19 -23 -30 -18 -30 15 0
33 11 38 30 15z"/>
<path d="M574 1938 c-20 -82 -19 -81 -5 -86 6 -2 13 8 17 22 8 32 43 36 51 6
3 -11 12 -20 20 -20 9 0 13 6 10 15 -4 8 -12 41 -19 75 -10 51 -15 60 -34 60
-19 0 -24 -10 -40 -72z m55 -10 c1 -5 -6 -8 -14 -8 -16 0 -19 9 -8 36 6 16 7
16 14 -2 4 -10 8 -22 8 -26z"/>
<path d="M1434 2002 c-33 -21 -45 -103 -21 -136 7 -9 27 -19 45 -22 25 -4 37
0 58 21 23 23 26 33 21 71 -2 24 -10 51 -17 59 -13 16 -67 20 -86 7z m60 -38
c9 -8 16 -26 16 -39 0 -23 -23 -55 -40 -55 -17 0 -40 32 -40 55 0 23 23 55 40
55 5 0 16 -7 24 -16z"/>
<path d="M1010 1730 c0 -6 -5 -8 -12 -4 -8 5 -9 2 -5 -10 5 -13 3 -17 -7 -13
-19 7 -62 -40 -74 -83 -6 -19 -24 -79 -41 -134 -17 -54 -28 -102 -25 -107 9
-15 44 15 44 38 0 14 6 23 15 23 21 0 30 -27 15 -45 -9 -10 -10 -31 -6 -66 4
-32 3 -49 -3 -45 -9 6 -79 -6 -114 -20 -13 -4 -15 -1 -12 16 4 18 2 20 -11 10
-8 -7 -13 -20 -12 -29 2 -9 -2 -15 -9 -14 -7 2 -10 -4 -7 -12 4 -8 2 -15 -4
-15 -5 0 -13 -15 -16 -34 -4 -19 -11 -36 -16 -38 -13 -5 14 -132 35 -164 17
-26 17 -27 -1 -20 -11 5 -30 12 -45 17 -27 10 -65 64 -62 89 2 10 0 11 -3 3
-3 -7 -14 -13 -25 -13 -17 0 -24 -11 -20 -32 0 -5 -7 -8 -18 -8 -25 0 -37 -17
-45 -67 -4 -31 -3 -43 6 -43 7 -1 -2 -7 -19 -15 -18 -8 -33 -20 -33 -28 0 -7
-9 -32 -20 -55 -11 -22 -20 -47 -20 -55 0 -8 -6 -20 -14 -26 -19 -16 -26 -63
-28 -201 -2 -98 1 -119 17 -143 13 -21 24 -27 39 -23 12 3 39 -4 61 -14 22
-10 40 -18 41 -17 1 1 4 22 7 46 3 26 2 39 -3 31 -14 -23 -31 64 -31 163 0
123 11 227 26 257 9 17 10 31 4 42 -8 14 -1 17 41 23 63 9 147 -10 155 -34 5
-17 63 -41 98 -41 9 0 35 -36 64 -92 27 -51 73 -130 102 -175 49 -76 54 -82
80 -77 26 5 32 1 65 -52 20 -32 36 -64 36 -71 0 -17 17 -17 27 0 12 21 45 30
55 15 10 -17 10 -38 -1 -38 -19 0 -105 -44 -94 -47 11 -4 93 31 133 56 8 5 23
12 33 15 32 10 29 34 -16 124 l-45 89 20 21 c12 11 18 26 14 34 -3 7 -42 65
-85 128 -73 105 -78 116 -65 134 8 11 14 37 14 58 0 29 8 45 38 76 20 22 43
41 50 43 17 6 7 46 -19 78 -17 21 -23 23 -40 13 -29 -18 -37 -14 -12 7 12 10
19 22 15 25 -3 4 1 4 11 0 11 -4 19 0 23 12 3 11 9 27 14 36 17 32 13 141 -9
207 -11 35 -22 77 -23 95 -1 17 -6 37 -12 45 -9 11 -5 12 20 7 22 -5 37 -2 53
11 21 18 21 18 -28 20 -42 1 -55 7 -82 34 -26 27 -35 30 -50 21 -11 -7 -19 -8
-21 -1 -2 5 -20 -6 -41 -26 -20 -19 -41 -35 -47 -35 -5 0 -16 -16 -24 -35 -16
-38 -33 -45 -44 -17 -5 13 -8 11 -13 -13 -6 -29 -7 -29 -8 -4 -1 15 9 37 24
54 14 15 29 40 32 56 3 17 12 29 22 30 9 0 11 3 4 5 -7 3 -9 12 -6 20 3 7 10
11 15 8 6 -4 9 -1 6 6 -5 17 -28 25 -28 10z m-165 -553 c34 -9 53 -20 60 -35
10 -22 35 -31 35 -12 0 6 9 10 20 10 22 0 28 -38 10 -56 -7 -7 -6 -20 4 -40 8
-16 16 -42 18 -59 l3 -30 -89 -2 c-103 -3 -129 8 -152 62 -20 50 -18 72 7 71
12 -1 26 7 32 16 14 21 1 36 -15 20 -21 -21 -40 -15 -32 11 7 23 33 57 43 57
3 0 29 -6 56 -13z m313 -69 c4 -36 -21 -53 -56 -39 -24 10 -27 16 -24 50 l4
38 36 -12 c27 -10 38 -19 40 -37z m74 30 c-17 -17 -15 -31 4 -24 8 3 13 2 9
-3 -3 -5 2 -16 10 -25 14 -13 13 -16 -7 -27 -13 -6 -33 -21 -45 -32 -18 -16
-25 -18 -37 -8 -14 11 -13 16 0 37 10 15 14 35 10 56 -3 18 -3 27 0 21 8 -17
29 -16 44 2 7 8 15 15 18 15 3 0 1 -5 -6 -12z m-527 -184 c35 -13 45 -22 45
-40 0 -23 -1 -23 -41 -9 -23 8 -55 15 -71 15 -29 0 -63 22 -51 34 4 3 -5 6
-18 7 l-24 0 25 11 c24 10 24 10 5 18 -18 8 -17 9 8 9 23 1 27 5 27 29 0 26 1
25 25 -15 19 -31 37 -46 70 -59z m342 -59 c19 -20 47 -37 67 -41 30 -5 44 -20
114 -124 78 -116 86 -140 45 -140 -7 0 -13 -4 -13 -8 0 -5 -37 -26 -81 -47
-61 -29 -86 -36 -98 -28 -34 21 -176 294 -159 304 19 12 -3 29 -38 29 -19 0
-50 7 -69 14 -29 13 -35 20 -35 45 l0 31 116 0 117 0 34 -35z m238 -375 c19
-37 19 -37 -5 -43 -28 -7 -58 36 -40 58 18 22 28 19 45 -15z m-66 -36 c6 -14
9 -30 6 -35 -12 -18 -42 -9 -55 17 -12 22 -12 27 0 34 24 16 36 11 49 -16z
m104 -21 c11 -10 -13 -33 -34 -33 -24 0 -25 27 -1 33 27 7 28 7 35 0z m-59
-48 c3 -9 -3 -19 -16 -26 -16 -9 -24 -8 -37 5 -14 15 -14 18 -1 26 22 14 47
12 54 -5z m84 -42 c-15 -19 -36 -16 -48 6 -14 27 -13 31 13 40 17 7 24 4 34
-13 8 -14 8 -25 1 -33z"/>
<path d="M846 1145 c-10 -8 -23 -12 -29 -8 -5 3 -8 0 -5 -8 7 -20 43 -23 58
-4 18 22 0 37 -24 20z"/>
<path d="M780 1075 c-10 -12 -10 -18 0 -30 16 -19 31 -20 24 -1 -3 8 0 17 5
21 12 7 6 25 -8 25 -5 0 -14 -7 -21 -15z"/>
<path d="M846 1001 c-11 -12 -25 -17 -39 -13 -20 5 -20 4 -8 -11 19 -24 58
-21 72 4 15 30 -3 45 -25 20z"/>
<path d="M1517 1633 c-11 -11 -8 -42 8 -73 13 -25 21 -30 54 -30 64 0 61 47
-6 91 -30 20 -45 23 -56 12z"/>
<path d="M1450 1372 c0 -12 19 -26 26 -19 2 2 -2 10 -11 17 -9 8 -15 8 -15 2z"/>
<path d="M830 1360 c0 -5 5 -10 11 -10 5 0 7 5 4 10 -3 6 -8 10 -11 10 -2 0
-4 -4 -4 -10z"/>
<path d="M740 577 c0 -12 0 -46 0 -75 0 -95 -60 -170 -154 -191 -31 -7 -60
-10 -66 -6 -19 12 -10 -12 14 -38 32 -34 87 -43 144 -24 23 8 42 11 42 6 0 -5
13 -9 28 -9 30 0 62 40 62 78 0 12 5 24 10 27 6 4 9 44 8 97 -2 78 -5 92 -20
96 -10 2 -21 15 -24 27 -8 32 -44 41 -44 12z m64 -128 c-3 -5 -13 -9 -23 -9
-12 0 -17 8 -17 25 0 17 4 24 13 21 7 -3 13 0 14 7 0 7 4 1 10 -11 5 -13 7
-28 3 -33z m-164 -179 c0 -5 -4 -10 -10 -10 -5 0 -10 5 -10 10 0 6 5 10 10 10
6 0 10 -4 10 -10z m-7 -27 c-7 -2 -21 -2 -30 0 -10 3 -4 5 12 5 17 0 24 -2 18
-5z"/>
<path d="M1157 333 c-11 -10 -8 -43 3 -43 6 0 10 9 10 19 0 11 6 22 13 24 8 4
6 6 -4 6 -9 1 -19 -2 -22 -6z"/>
<path d="M1503 131 c1 -11 6 -17 14 -14 10 4 11 9 2 19 -15 19 -18 18 -16 -5z"/>
<path d="M1467 126 c-6 -16 2 -28 14 -20 12 7 11 34 0 34 -5 0 -11 -6 -14 -14z"/>
</g>
</svg>
