<?xml version="1.0" standalone="no"?>
<!DOCTYPE svg PUBLIC "-//W3C//DTD SVG 20010904//EN"
 "http://www.w3.org/TR/2001/REC-SVG-20010904/DTD/svg10.dtd">
<svg version="1.0" xmlns="http://www.w3.org/2000/svg"
 width="227.000000pt" height="222.000000pt" viewBox="0 0 227.000000 222.000000"
 preserveAspectRatio="xMidYMid meet">

<g transform="translate(0.000000,222.000000) scale(0.100000,-0.100000)"
fill="#000000" stroke="none">
<path d="M7 2212 c-3 -4 -4 -199 -5 -434 l0 -427 29 -15 c17 -8 37 -12 45 -9
9 3 14 -2 14 -16 0 -15 -6 -21 -22 -21 -60 0 -95 -35 -48 -47 20 -5 20 -5 -1
-31 -18 -23 -20 -39 -18 -168 1 -119 4 -145 18 -161 14 -15 16 -30 11 -83 -3
-36 -10 -72 -15 -80 -12 -19 -16 -100 -6 -100 5 0 12 12 15 26 4 15 9 24 12
22 2 -3 -3 -32 -11 -64 -18 -64 -28 -234 -14 -234 4 0 12 8 18 18 9 15 11 14
19 -8 5 -14 9 -44 7 -68 -2 -46 8 -60 30 -42 10 9 15 9 15 1 0 -6 -20 -29 -45
-52 l-45 -42 0 -83 0 -84 69 0 70 0 -14 48 c-7 26 -16 79 -19 119 -4 62 -2 75
16 98 17 22 19 35 14 72 -4 29 -1 57 6 75 15 34 24 35 31 7 5 -20 7 -20 22 -5
10 9 33 25 54 35 32 16 51 18 124 12 20 -1 89 -66 97 -91 12 -38 7 -124 -9
-151 -16 -29 -103 -84 -115 -72 -9 9 -8 6 17 -77 l24 -75 54 -1 c84 -1 95 6
99 63 2 26 3 63 2 80 -1 35 8 42 27 19 6 -7 31 -21 55 -30 60 -23 106 -10 173
49 29 26 57 44 63 40 6 -4 7 1 3 11 -4 12 -3 15 5 10 16 -10 92 12 92 27 1 21
29 -24 91 -145 l60 -118 399 0 c220 0 400 2 400 4 0 3 -5 17 -11 33 -6 15 -22
66 -35 113 -35 118 -80 189 -149 235 -17 11 -70 41 -120 67 -49 26 -82 48 -72
48 9 0 17 5 17 11 0 6 -7 8 -16 5 -8 -3 -13 -2 -10 3 8 12 -14 71 -26 71 -6 0
-8 6 -5 13 7 18 -12 47 -20 30 -2 -7 -9 -13 -15 -13 -6 0 -6 6 2 15 6 8 9 19
5 25 -3 5 2 10 11 10 16 0 16 1 2 13 -19 14 -42 82 -33 97 3 5 2 10 -4 10 -5
0 -12 -6 -15 -12 -3 -7 -4 -4 -1 8 3 13 -2 27 -15 39 -11 10 -17 21 -15 25 3
4 -3 23 -12 41 -9 18 -27 67 -39 109 -12 41 -34 113 -49 160 -14 47 -27 91
-27 98 -1 6 -6 12 -11 12 -5 0 -7 -6 -4 -12 11 -32 58 -191 77 -265 29 -119
118 -389 146 -447 13 -28 24 -51 24 -52 0 -11 -58 -10 -101 2 -30 9 -71 15
-93 15 -34 -2 -44 4 -90 54 -31 34 -59 55 -72 55 -25 0 -38 24 -25 48 4 9 6
22 4 29 -2 6 1 14 6 18 6 3 11 17 11 31 0 17 4 23 12 18 6 -4 8 -3 5 3 -4 6 3
28 13 49 11 21 18 44 15 51 -2 7 0 13 6 13 6 0 8 7 5 16 -3 8 -2 12 4 9 6 -3
10 1 10 9 0 9 5 16 10 16 6 0 10 -4 10 -10 0 -5 7 -10 15 -10 25 0 15 -31 -33
-97 -12 -17 -22 -34 -22 -39 0 -15 36 26 55 63 11 21 22 40 25 43 18 17 30 70
30 133 0 96 -5 102 -75 93 -72 -8 -76 -11 -65 -42 24 -62 13 -115 -52 -239
-34 -66 -75 -133 -91 -148 l-30 -28 -22 21 c-13 12 -25 32 -27 44 -4 19 3 26
45 45 l49 23 -7 46 c-9 66 -72 315 -91 362 -9 22 -30 50 -48 62 -17 12 -35 27
-39 33 -6 6 -7 4 -4 -6 4 -12 -6 -22 -34 -34 -45 -21 -69 -10 -69 32 0 20 4
23 20 19 11 -3 29 -8 39 -11 21 -6 40 13 23 24 -14 8 -53 94 -46 100 3 3 8 1
12 -5 12 -18 49 -34 81 -34 23 0 45 14 92 58 59 54 65 57 114 57 57 0 82 -15
116 -70 11 -16 19 -25 19 -20 0 15 -31 58 -54 75 -66 49 -126 43 -194 -20 -41
-38 -72 -54 -56 -28 5 7 3 8 -5 4 -7 -5 -10 -13 -8 -20 3 -7 -5 -13 -16 -14
-14 -1 -17 2 -10 6 7 5 -2 8 -21 8 -24 0 -41 7 -55 25 -18 21 -20 22 -21 5 0
-15 -3 -16 -15 -6 -16 13 -21 35 -6 26 4 -3 7 5 6 19 -5 40 19 50 44 19 23
-29 33 -24 60 28 7 15 21 26 31 25 14 -1 16 -6 9 -29 -4 -15 -6 -28 -4 -28 9
0 65 106 65 121 0 14 6 15 33 9 47 -11 86 -28 117 -50 33 -24 41 -25 34 -6 -6
16 24 36 44 29 8 -3 12 7 12 31 0 20 5 36 11 36 5 0 8 4 4 9 -3 5 -1 12 4 15
5 3 7 15 4 26 -3 12 0 20 7 20 7 0 9 8 5 19 -3 12 0 21 11 25 9 4 14 13 10 21
-3 8 -1 15 4 15 6 0 10 7 10 15 0 8 5 15 11 15 5 0 8 4 4 9 -3 6 -7 55 -9 109
-4 94 -3 100 16 105 13 4 19 11 15 21 -4 9 1 17 14 21 25 8 52 60 44 85 -6 19
-26 19 -680 19 -371 0 -676 -3 -678 -7z m717 -314 c19 -26 21 -47 4 -30 -28
28 -78 7 -78 -32 0 -15 -3 -17 -11 -9 -6 6 -11 24 -11 39 0 51 67 74 96 32z
m31 -68 c-3 -17 -1 -30 5 -30 5 0 10 6 10 14 0 20 32 28 73 21 34 -7 34 -7 26
-48 -4 -23 -8 -61 -9 -83 0 -32 -7 -49 -28 -72 -15 -16 -26 -35 -24 -42 3 -7
0 -10 -6 -6 -5 3 -13 -1 -16 -10 -3 -9 -13 -14 -20 -11 -8 3 -20 -1 -26 -9
-18 -21 -46 -17 -75 11 -20 21 -25 23 -25 9 0 -13 -5 -11 -25 10 -13 14 -30
26 -37 26 -7 0 -18 10 -23 23 -13 30 -50 34 -67 8 -16 -26 -24 -26 -31 -2 -12
48 53 71 93 31 11 -11 26 -20 33 -20 8 0 7 4 -3 10 -13 8 -12 10 3 10 10 0 17
-7 17 -18 0 -32 48 -20 77 21 28 40 24 56 -15 58 -21 1 -23 2 -7 6 25 7 54 38
80 86 11 20 21 37 22 37 2 0 1 -13 -2 -30z m-125 -110 c0 -4 -7 -13 -15 -20
-12 -10 -19 -10 -27 -2 -9 9 -8 12 5 12 10 0 14 5 11 15 -5 11 -2 13 10 9 9
-3 16 -10 16 -14z m30 -31 c-11 -20 -37 -36 -45 -27 -8 8 26 48 41 48 12 0 12
-4 4 -21z m-80 -104 c34 -19 3 -20 -41 0 -31 13 -32 14 -9 14 14 0 36 -6 50
-14z m-180 -40 c0 -9 -6 -12 -17 -8 -11 4 -14 3 -9 -5 7 -12 3 -14 -44 -17
-14 -1 -36 -5 -50 -9 -49 -16 -11 6 51 29 35 13 65 24 67 24 1 1 2 -6 2 -14z
m-60 -56 c0 -5 -7 -9 -16 -9 -9 0 -12 -5 -8 -12 5 -7 2 -9 -7 -6 -18 7 -63
-27 -55 -41 4 -5 1 -13 -5 -17 -8 -4 -9 -3 -5 4 11 17 -5 15 -25 -4 -10 -9
-30 -18 -44 -20 -25 -2 -26 -1 -11 21 19 29 9 40 -18 18 -12 -10 -7 -3 9 16
38 42 72 59 113 56 17 -2 34 1 37 6 7 10 35 0 35 -12z m394 -4 c-4 -8 -11 -12
-16 -9 -6 4 -5 10 3 15 19 12 19 11 13 -6z m-93 -12 c12 -14 12 -16 0 -8 -8 5
-4 -6 8 -24 13 -18 30 -35 37 -38 11 -4 11 -8 -1 -20 -9 -8 -13 -19 -10 -24 4
-5 1 -9 -5 -9 -6 0 -8 -5 -5 -10 4 -6 11 -8 16 -5 5 4 9 -3 9 -14 0 -27 54
-87 95 -107 36 -17 51 -42 36 -57 -12 -12 -61 -18 -61 -7 0 14 -33 21 -42 8
-13 -21 -10 9 3 34 7 14 8 18 0 14 -5 -4 -18 5 -27 20 -15 22 -15 27 -3 36 10
7 8 8 -9 3 -20 -6 -22 -4 -17 18 4 14 2 28 -4 31 -6 4 -11 2 -11 -5 0 -7 -16
9 -36 34 -20 26 -41 47 -45 47 -5 0 -9 8 -10 18 0 14 -2 14 -9 -3 -8 -20 -10
-18 -14 20 -3 23 -19 35 -47 35 -48 0 -33 16 18 19 26 1 49 4 52 7 11 11 70 2
82 -13z m-186 -43 c-10 -11 -21 -17 -26 -15 -4 3 -10 -3 -12 -12 -3 -13 -5
-12 -6 5 -1 15 4 22 11 20 7 -3 19 1 26 9 21 21 27 15 7 -7z m20 -57 c-6 -28
-71 -103 -88 -103 -5 0 5 12 22 26 17 14 31 32 31 40 0 8 4 14 10 14 5 0 12
11 16 25 3 14 8 25 11 25 3 0 2 -12 -2 -27z m-85 2 c-7 -9 -15 -13 -19 -10 -3
3 1 10 9 15 21 14 24 12 10 -5z m-26 -129 c-3 -8 -13 -17 -22 -21 -13 -5 -13
-2 3 15 21 24 26 25 19 6z m167 -76 c8 0 19 4 25 10 6 6 14 3 22 -10 14 -23
12 -24 -50 -35 -21 -3 -40 -11 -44 -17 -5 -8 -1 -9 12 -4 10 5 38 11 62 13 30
4 42 10 42 22 1 10 6 6 16 -12 12 -23 13 -32 2 -55 -7 -15 -22 -28 -32 -30
-11 -2 -26 -10 -34 -18 -8 -9 -35 -14 -73 -14 -50 0 -59 3 -59 18 0 35 13 62
32 68 16 5 19 13 16 48 -3 42 -3 42 22 29 14 -7 32 -13 41 -13z m139 -102 c0
-5 -6 -8 -14 -8 -9 0 -12 7 -9 21 4 16 8 17 14 7 5 -7 9 -16 9 -20z m275 -48
c3 -5 1 -10 -4 -10 -6 0 -11 5 -11 10 0 6 2 10 4 10 3 0 8 -4 11 -10z m-145
-14 c0 -2 -7 -7 -16 -10 -8 -3 -12 -2 -9 4 6 10 25 14 25 6z m90 -24 c0 -5
-17 -14 -39 -20 -57 -18 -62 -14 -11 8 25 10 46 18 48 19 1 1 2 -3 2 -7z
m-223 -48 c-3 -3 -12 -4 -19 -1 -8 3 -5 6 6 6 11 1 17 -2 13 -5z m-343 -29
c-4 -8 -7 -15 -9 -15 -2 0 -5 7 -9 15 -3 9 0 15 9 15 9 0 12 -6 9 -15z m856
-39 c0 -3 -4 -8 -10 -11 -5 -3 -10 -1 -10 4 0 6 5 11 10 11 6 0 10 -2 10 -4z
m-870 -56 c13 -8 13 -10 -2 -10 -9 0 -20 5 -23 10 -8 13 5 13 25 0z m1130 -91
c0 -6 -4 -7 -10 -4 -5 3 -10 11 -10 16 0 6 5 7 10 4 6 -3 10 -11 10 -16z
m-340 -85 c0 -3 -9 -17 -20 -31 -11 -14 -20 -34 -20 -44 0 -10 -4 -20 -8 -23
-5 -3 -8 9 -7 26 1 18 7 34 14 36 6 2 9 8 5 13 -3 5 0 8 8 7 7 -2 12 3 11 10
-2 6 2 12 7 12 6 0 10 -3 10 -6z m407 -76 c-3 -8 -6 -5 -6 6 -1 11 2 17 5 13
3 -3 4 -12 1 -19z m-202 -341 c-9 -72 -19 -143 -22 -157 l-5 -25 -13 25 -13
25 -4 -30 c-2 -19 -13 20 -31 106 -36 169 -30 206 38 235 28 12 31 11 49 -17
17 -28 17 -34 1 -162z m270 96 c19 -13 19 -13 -2 -13 -11 0 -23 -7 -27 -15 -8
-21 -23 -18 -29 6 -12 46 10 55 58 22z m98 -10 c-7 -2 -19 -2 -25 0 -7 3 -2 5
12 5 14 0 19 -2 13 -5z"/>
<path d="M792 1810 c0 -14 2 -19 5 -12 2 6 2 18 0 25 -3 6 -5 1 -5 -13z"/>
<path d="M810 1810 c0 -5 5 -10 10 -10 6 0 10 5 10 10 0 6 -4 10 -10 10 -5 0
-10 -4 -10 -10z"/>
<path d="M770 1743 c-1 -22 -20 -47 -40 -51 -16 -4 -35 -30 -35 -49 0 -6 -9
-21 -19 -32 -19 -21 -19 -21 22 -19 60 2 82 29 87 107 2 35 0 61 -5 61 -6 0
-10 -8 -10 -17z m-42 -85 c-2 -6 -10 -14 -16 -16 -7 -2 -10 2 -6 12 7 18 28
22 22 4z m34 -13 c-4 -22 -42 -57 -42 -40 0 5 42 65 45 65 1 0 0 -11 -3 -25z"/>
<path d="M725 1740 c-3 -6 1 -7 9 -4 18 7 21 14 7 14 -6 0 -13 -4 -16 -10z"/>
<path d="M222 1474 c-12 -8 -19 -20 -16 -26 4 -6 -2 -8 -17 -4 -20 6 -21 5 -6
-4 12 -8 22 -8 35 -1 13 8 14 11 2 11 -10 0 -7 7 10 20 30 23 24 27 -8 4z"/>
<path d="M658 1393 c7 -3 16 -2 19 1 4 3 -2 6 -13 5 -11 0 -14 -3 -6 -6z"/>
<path d="M1355 1866 c-10 -47 -23 -80 -33 -86 -13 -7 -14 -12 -4 -18 9 -6 9
-18 -4 -56 -9 -26 -14 -50 -11 -53 12 -11 26 9 37 56 9 40 16 50 37 54 26 5
28 2 38 -55 6 -38 26 -54 24 -20 -1 47 -46 246 -56 249 -6 2 -18 -26 -28 -71z
m37 -45 c3 -23 0 -31 -15 -35 -15 -4 -18 -1 -13 17 3 12 6 28 6 35 0 25 18 11
22 -17z"/>
<path d="M1894 1835 c-30 -30 -34 -31 -34 -5 0 11 -5 20 -11 20 -8 0 -9 -11
-5 -31 3 -17 6 -60 6 -95 0 -50 3 -64 15 -64 11 0 15 12 15 50 0 87 34 142 68
108 20 -20 26 1 7 22 -23 26 -31 25 -61 -5z"/>
<path d="M1478 1744 c2 -46 7 -84 11 -84 5 0 7 35 6 79 -1 74 0 78 19 73 31
-8 36 -20 36 -89 0 -76 19 -85 22 -10 2 79 2 79 21 91 26 16 37 -8 37 -86 0
-39 4 -68 10 -68 6 0 10 29 10 68 0 92 -34 140 -70 97 -10 -12 -16 -13 -28 -3
-8 7 -29 13 -46 15 l-31 2 3 -85z"/>
<path d="M2017 1698 c-3 -12 -2 -29 3 -37 7 -12 9 -6 10 22 0 42 -5 48 -13 15z"/>
<path d="M1975 1679 c-4 -6 -5 -12 -2 -15 2 -3 7 2 10 11 7 17 1 20 -8 4z"/>
<path d="M2010 1621 c0 -5 5 -13 10 -16 6 -3 10 -2 10 4 0 5 -4 13 -10 16 -5
3 -10 2 -10 -4z"/>
<path d="M1302 1605 c-35 -25 -56 -113 -42 -179 14 -69 41 -98 86 -94 19 2 34
8 34 13 -1 6 -14 9 -30 7 -24 -3 -33 3 -50 30 -18 27 -21 45 -17 100 4 67 15
91 48 109 13 6 22 4 33 -7 9 -9 21 -14 28 -12 17 6 -27 48 -50 48 -10 0 -27
-7 -40 -15z"/>
<path d="M1899 1599 c0 -13 -2 -79 -5 -146 l-5 -122 27 3 c16 2 30 8 32 14 2
6 -5 8 -18 5 -21 -6 -21 -3 -19 126 0 73 -2 135 -5 138 -3 4 -6 -5 -7 -18z"/>
<path d="M1520 1527 c0 -12 -9 -14 -37 -10 -34 4 -40 2 -56 -26 -10 -17 -17
-46 -15 -68 2 -40 25 -86 38 -78 5 3 10 0 12 -6 3 -9 10 -9 27 1 19 10 25 10
32 -1 14 -23 16 -6 10 84 -3 48 -2 92 2 96 5 5 4 12 -2 15 -6 4 -11 1 -11 -7z
m-30 -28 c0 -5 4 -8 8 -5 5 3 10 -15 11 -41 0 -25 4 -50 8 -56 3 -6 1 -7 -5
-3 -10 6 -17 -10 -14 -35 1 -7 -47 -3 -55 5 -3 3 -8 28 -11 55 -3 40 -1 52 17
70 23 23 41 27 41 10z"/>
<path d="M1769 1513 c-37 -47 -41 -90 -14 -156 9 -21 53 -33 74 -20 23 15 27
69 5 77 -20 8 -53 -19 -40 -31 5 -5 11 -2 13 5 7 19 23 14 23 -8 0 -26 -27
-37 -46 -19 -7 8 -16 29 -20 47 l-6 32 47 0 48 0 -6 37 c-9 53 -49 71 -78 36z
m50 -22 c12 -22 5 -31 -26 -31 -25 0 -30 19 -11 38 17 17 26 15 37 -7z"/>
<path d="M1233 1330 c6 -16 15 -30 20 -30 5 0 6 6 3 13 -3 6 -9 20 -12 30 -4
9 -10 17 -14 17 -5 0 -3 -13 3 -30z"/>
<path d="M1158 745 c-10 -13 -18 -30 -18 -37 0 -7 9 2 21 21 24 39 22 49 -3
16z"/>
<path d="M2022 284 c-27 -18 -28 -45 -4 -67 37 -34 82 -15 82 33 0 19 -8 30
-25 38 -32 15 -26 15 -53 -4z m54 -27 c8 3 14 -1 14 -11 0 -9 -6 -17 -12 -17
-7 -1 -20 -2 -28 -3 -8 -1 -21 3 -28 8 -9 7 -7 12 10 20 13 7 24 9 26 5 2 -5
10 -5 18 -2z"/>
<path d="M140 200 c0 -16 7 -20 35 -20 28 0 35 4 35 20 0 16 -7 20 -35 20 -28
0 -35 -4 -35 -20z"/>
</g>
</svg>
