<?xml version="1.0" standalone="no"?>
<!DOCTYPE svg PUBLIC "-//W3C//DTD SVG 20010904//EN"
 "http://www.w3.org/TR/2001/REC-SVG-20010904/DTD/svg10.dtd">
<svg version="1.0" xmlns="http://www.w3.org/2000/svg"
 width="193.000000pt" height="261.000000pt" viewBox="0 0 193.000000 261.000000"
 preserveAspectRatio="xMidYMid meet">

<g transform="translate(0.000000,261.000000) scale(0.100000,-0.100000)"
fill="#000000" stroke="none">
<path d="M113 2580 c-18 -16 -33 -39 -33 -50 0 -11 -8 -32 -17 -46 -14 -22
-14 -27 -2 -34 11 -8 11 -12 -6 -23 -16 -13 -19 -25 -17 -84 2 -45 -3 -82 -13
-106 -20 -48 -34 -327 -17 -327 22 0 122 42 144 60 l23 19 -30 1 c-30 1 -30 1
8 15 21 8 51 23 66 35 16 11 33 20 39 20 5 0 15 7 22 15 18 21 30 19 30 -6 0
-14 -5 -19 -14 -16 -9 4 -16 -3 -20 -18 -4 -14 -15 -29 -26 -35 -11 -6 -18
-15 -15 -20 4 -6 -1 -7 -11 -3 -10 4 -15 2 -11 -4 8 -13 -41 -85 -53 -78 -6 3
-7 0 -4 -8 3 -8 -1 -17 -9 -20 -9 -3 -18 -20 -22 -37 -4 -17 -13 -34 -21 -37
-15 -5 -20 -33 -6 -33 4 0 14 6 21 13 10 10 11 7 7 -13 -3 -14 -8 -68 -11
-120 -4 -52 -8 -97 -10 -101 -3 -3 -27 -17 -55 -30 -47 -22 -50 -26 -50 -61 0
-29 4 -38 18 -38 16 -1 16 -1 0 -11 -12 -6 -18 -22 -18 -45 0 -23 4 -33 11
-28 8 4 8 0 0 -15 -14 -25 -13 -404 0 -395 13 8 11 -10 -3 -24 -9 -9 -9 -12 0
-12 7 0 12 -7 12 -15 0 -8 6 -15 14 -15 8 0 16 -7 20 -15 7 -18 -5 -20 -22 -3
-18 18 -15 3 9 -38 l21 -37 -26 16 c-14 10 -28 17 -31 17 -3 0 -5 -65 -5 -145
0 -131 2 -145 18 -145 14 0 15 -2 2 -10 -12 -8 -11 -10 8 -10 46 0 162 32 162
45 0 15 34 26 47 15 9 -9 103 2 203 23 l65 13 0 39 c0 22 6 40 13 43 8 2 18
15 23 29 5 14 12 24 14 21 3 -2 -7 -40 -20 -83 -14 -43 -24 -84 -22 -89 3 -6
13 18 24 53 11 36 23 58 26 50 4 -9 6 -8 6 6 2 25 18 52 26 43 4 -3 -1 -21
-10 -38 -17 -32 -16 -55 1 -139 6 -31 3 -38 -26 -63 -27 -22 -30 -28 -17 -34
14 -5 13 -9 -8 -28 -19 -17 -22 -25 -13 -34 9 -9 9 -12 -1 -12 -11 0 -11 -3
-1 -15 10 -11 9 -18 -4 -30 -9 -9 -16 -21 -16 -27 0 -32 -36 -80 -76 -100 -24
-12 -44 -25 -44 -28 0 -11 -50 -31 -61 -25 -5 4 -9 14 -9 25 0 13 -5 17 -20
13 -11 -3 -20 -8 -20 -12 0 -3 -11 -24 -25 -46 -21 -34 -24 -37 -25 -17 0 13
4 21 9 18 10 -6 25 24 16 32 -3 3 -5 0 -5 -6 0 -7 -6 -12 -14 -12 -8 0 -17 -7
-20 -16 -3 -8 -10 -13 -15 -9 -5 3 -12 -7 -14 -22 -4 -26 -4 -26 -6 5 -1 39
-10 36 -81 -27 l-45 -41 176 0 176 0 47 96 c26 53 63 112 82 132 19 20 37 45
40 57 10 29 53 95 62 93 20 -5 51 15 56 38 5 19 11 24 25 19 20 -6 91 20 91
34 0 5 11 11 25 13 27 6 34 -6 10 -16 -19 -7 -20 -36 -1 -36 8 0 21 18 30 40
17 42 40 56 31 17 -3 -12 -10 -56 -14 -97 -8 -71 -7 -76 15 -100 30 -31 51
-17 33 23 -9 20 -9 33 -1 54 7 15 19 59 28 97 21 95 42 142 55 129 14 -14 69
-172 69 -199 0 -13 8 -24 20 -27 13 -3 20 -14 20 -29 0 -13 4 -28 8 -34 5 -5
17 -47 27 -93 14 -62 26 -92 46 -112 15 -15 33 -44 40 -63 13 -35 14 -36 66
-36 l53 0 -32 65 c-19 37 -38 63 -45 60 -7 -2 -10 2 -7 10 3 7 -5 25 -17 39
-13 14 -24 34 -25 44 -7 49 -38 140 -55 158 -10 11 -19 32 -19 47 0 15 -6 27
-12 27 -9 0 -8 4 2 10 13 9 13 10 0 10 -8 0 -21 9 -28 20 -7 11 -18 17 -27 14
-11 -5 -15 1 -15 24 0 17 5 32 12 34 10 4 9 14 -1 48 -15 51 -22 142 -9 134 4
-3 8 4 8 14 0 11 7 23 16 26 11 4 14 14 10 33 -3 16 -7 37 -8 48 -2 11 -13 32
-26 46 -21 25 -28 26 -90 24 -78 -4 -86 -1 -69 25 9 16 9 24 -1 40 -30 49 4
102 73 113 l30 4 -32 2 c-23 1 -42 -8 -68 -30 -33 -29 -35 -30 -35 -9 0 13 -4
19 -11 14 -7 -4 -9 -24 -6 -50 2 -25 1 -47 -4 -50 -5 -3 -9 -2 -8 3 2 16 -13
53 -23 53 -5 0 -6 4 -3 10 3 5 -1 20 -9 32 -12 19 -13 32 -3 73 6 28 14 52 18
55 4 3 1 11 -7 18 -8 7 -14 11 -15 10 -9 -34 -12 -51 -19 -93 -4 -27 -8 -45
-9 -40 0 6 -14 25 -30 43 -26 28 -36 32 -80 32 -27 0 -53 -5 -56 -11 -4 -6
-13 -8 -20 -5 -8 3 -13 -2 -13 -12 0 -9 -3 -25 -7 -34 -10 -25 5 -22 39 7 32
27 42 30 51 15 3 -5 20 -10 36 -10 19 0 28 -4 24 -11 -4 -6 3 -21 15 -34 20
-21 20 -25 6 -58 -8 -19 -24 -41 -37 -48 -21 -11 -21 -13 -6 -24 20 -14 22
-25 5 -25 -25 0 -78 -51 -78 -76 0 -13 -4 -24 -10 -24 -6 0 -8 26 -6 67 5 68
0 95 -14 73 -4 -6 -10 15 -14 48 -4 34 -12 62 -20 65 -9 4 -11 -3 -8 -24 3
-20 -1 -31 -12 -35 -9 -3 -13 -10 -10 -15 3 -5 10 -7 15 -3 5 3 8 0 7 -8 -2
-7 3 -12 10 -11 14 3 17 -23 3 -31 -5 -4 -11 0 -14 6 -7 21 -41 -5 -51 -38 -5
-16 -14 -40 -20 -53 -6 -13 -10 -32 -8 -42 2 -11 -4 -32 -14 -48 -21 -36 -8
-107 20 -105 24 3 16 -30 -9 -35 -25 -4 -90 30 -74 40 8 4 5 9 -9 13 -24 8
-55 52 -47 66 4 6 0 23 -8 39 -23 47 -9 92 36 114 20 9 37 22 37 28 0 6 7 9
15 6 23 -9 27 6 31 141 2 70 4 134 5 142 1 8 -4 49 -11 90 -24 150 -24 166 3
212 37 63 64 161 72 261 6 65 11 87 21 87 12 0 12 5 -1 30 -9 17 -15 36 -13
43 4 20 -12 55 -28 61 -8 3 -12 2 -9 -4 3 -6 1 -10 -4 -10 -6 0 -11 -9 -11
-19 0 -11 -4 -22 -8 -25 -5 -3 -6 8 -4 25 3 22 0 29 -12 29 -9 0 -16 4 -16 8
0 5 -13 18 -30 30 l-30 22 7 -45 c5 -43 5 -45 -18 -44 -17 1 -19 3 -6 6 16 4
25 43 10 43 -5 0 -8 11 -8 26 0 20 4 24 20 20 11 -4 37 -9 58 -12 20 -4 37
-10 37 -14 0 -4 7 -11 16 -14 11 -4 10 1 -5 20 -16 21 -18 30 -10 40 9 11 8
14 -4 14 -11 0 -13 6 -9 22 4 16 1 20 -9 16 -9 -4 -14 2 -15 16 -1 13 -22 52
-47 89 -38 56 -43 68 -31 75 14 8 14 10 0 25 -9 9 -13 23 -9 33 3 10 2 15 -3
12 -5 -3 -10 19 -11 49 -2 33 1 52 7 48 6 -4 10 8 10 27 0 18 3 43 6 56 6 22
6 22 -112 22 -118 -1 -119 -1 -151 -30z m-6 -136 c-3 -3 -12 -4 -19 -1 -8 3
-5 6 6 6 11 1 17 -2 13 -5z m98 -4 c3 -5 1 -10 -4 -10 -6 0 -11 5 -11 10 0 6
2 10 4 10 3 0 8 -4 11 -10z m35 -11 c0 -6 -4 -7 -10 -4 -5 3 -10 11 -10 16 0
6 5 7 10 4 6 -3 10 -11 10 -16z m-94 -12 c-9 -7 -18 -22 -18 -33 -2 -15 -7
-20 -20 -16 -17 4 -16 6 3 33 11 16 28 29 37 29 14 0 14 -1 -2 -13z m-69 -39
c-3 -7 -5 -2 -5 12 0 14 2 19 5 13 2 -7 2 -19 0 -25z m270 -384 c-3 -3 -12 -4
-19 -1 -8 3 -5 6 6 6 11 1 17 -2 13 -5z m168 -204 c3 -5 1 -10 -4 -10 -6 0
-11 5 -11 10 0 6 2 10 4 10 3 0 8 -4 11 -10z m-20 -20 c3 -5 -3 -10 -15 -10
-11 0 -23 -8 -27 -17 -7 -19 -63 -104 -75 -113 -3 -3 -23 -40 -43 -82 -20 -43
-38 -78 -40 -78 -2 0 -13 16 -24 36 -19 31 -24 34 -34 22 -14 -18 -127 -91
-133 -86 -9 9 56 70 82 77 16 4 35 18 41 32 7 13 13 18 13 11 0 -7 4 -11 9 -8
4 3 6 18 3 32 -3 19 -1 25 7 20 6 -4 11 -14 11 -22 0 -8 5 -14 10 -14 6 0 10
11 10 25 0 29 28 45 40 24 6 -9 11 -5 16 15 4 19 2 31 -6 36 -7 4 -9 13 -5 20
6 10 11 9 22 -5 12 -17 13 -17 13 -2 0 11 8 17 23 17 17 0 19 2 7 10 -16 10
-14 13 32 46 36 25 54 29 63 14z m-411 -449 c-32 -20 -43 -19 -26 2 6 7 21 13
33 14 21 2 20 0 -7 -16z m74 -176 c-6 -14 -13 -23 -15 -21 -5 5 15 46 22 46 3
0 -1 -11 -7 -25z m112 -45 c-6 -11 -13 -20 -16 -20 -2 0 0 9 6 20 6 11 13 20
16 20 2 0 0 -9 -6 -20z m31 -13 c-10 -9 -11 -8 -5 6 3 10 9 15 12 12 3 -3 0
-11 -7 -18z m-111 -31 c0 -2 -8 -10 -17 -17 -16 -13 -17 -12 -4 4 13 16 21 21
21 13z m615 -32 c9 -4 21 -17 25 -30 7 -17 14 -22 26 -17 12 4 15 3 10 -5 -4
-7 -1 -15 8 -18 19 -7 11 -24 -11 -24 -9 0 -13 6 -9 15 3 8 2 15 -3 15 -5 0
-11 -9 -14 -20 -3 -11 -10 -20 -17 -20 -6 0 -8 5 -5 10 3 6 1 10 -4 10 -6 0
-10 10 -8 23 1 14 -3 21 -12 19 -19 -4 -41 17 -34 34 6 15 22 18 48 8z m-245
-89 c-7 -8 -17 -15 -23 -15 -6 0 -2 7 9 15 25 19 30 19 14 0z m-430 -15 c-20
-13 -33 -13 -25 0 3 6 14 10 23 10 15 0 15 -2 2 -10z m15 -85 c-35 -28 -54
-33 -34 -8 33 41 44 50 54 41 6 -5 -2 -18 -20 -33z m685 -44 c8 -16 9 -21 1
-16 -7 4 -18 1 -26 -5 -11 -9 -15 -9 -15 -1 0 11 22 52 26 48 1 -1 7 -13 14
-26z m-736 -35 c-9 -24 -24 -19 -20 7 3 12 5 27 6 32 0 6 5 3 10 -7 6 -9 7
-23 4 -32z m519 -48 c-2 -4 -10 -2 -17 5 -8 6 -12 15 -9 19 2 4 10 2 17 -5 8
-6 12 -15 9 -19z m143 -3 c17 -13 17 -14 2 -15 -10 0 -18 5 -18 11 0 7 -12 8
-32 4 -25 -5 -29 -4 -18 4 21 15 43 14 66 -4z m-621 -15 c3 -6 -1 -7 -9 -4
-18 7 -21 14 -7 14 6 0 13 -4 16 -10z m785 -71 c0 -38 -10 -41 -36 -10 -13 16
-24 30 -24 32 0 2 14 4 30 4 26 0 30 -4 30 -26z m56 -8 c-3 -5 -8 -26 -11 -46
-7 -54 -15 -78 -35 -97 -16 -15 -18 -15 -18 10 -1 25 11 74 25 112 4 8 5 18 5
23 -1 4 7 7 19 7 11 0 18 -4 15 -9z m-96 -42 c0 -6 -4 -7 -10 -4 -5 3 -10 11
-10 16 0 6 5 7 10 4 6 -3 10 -11 10 -16z m-90 -44 c-7 -9 -15 -13 -18 -10 -3
2 1 11 8 20 7 9 15 13 18 10 3 -2 -1 -11 -8 -20z m-140 -49 c0 -11 -19 -15
-25 -6 -3 5 1 10 9 10 9 0 16 -2 16 -4z m-55 -26 c3 -5 1 -10 -4 -10 -6 0 -11
5 -11 10 0 6 2 10 4 10 3 0 8 -4 11 -10z m-385 -402 c0 -19 -2 -20 -10 -8 -13
19 -13 30 0 30 6 0 10 -10 10 -22z"/>
<path d="M1720 2594 c0 -9 7 -14 17 -12 25 5 28 28 4 28 -12 0 -21 -6 -21 -16z"/>
<path d="M1786 2588 c45 -51 53 -75 58 -179 5 -92 4 -101 -9 -83 -8 10 -22 45
-31 76 -9 32 -20 56 -24 53 -7 -4 -19 -52 -25 -102 -2 -12 -6 -26 -9 -32 -3
-5 1 -16 10 -25 18 -18 10 -38 -14 -34 -12 2 -18 -5 -20 -24 -4 -32 -9 -34
-38 -13 -15 10 -20 22 -17 40 4 20 1 25 -16 25 -18 0 -20 -4 -15 -27 4 -16 12
-32 18 -36 10 -8 -5 -5 -54 9 -26 7 -27 -22 -1 -31 29 -9 34 -35 11 -57 -11
-10 -20 -25 -20 -33 0 -8 -8 -20 -18 -27 -10 -7 -21 -21 -25 -32 -4 -11 -13
-16 -22 -12 -9 3 -15 0 -15 -8 0 -7 -10 -12 -22 -12 -27 1 -26 2 -13 -226 8
-131 9 -137 27 -127 11 6 21 9 23 7 2 -2 -7 -48 -20 -103 -12 -55 -26 -124
-30 -153 -7 -52 -6 -53 13 -43 12 6 23 11 27 11 11 0 -38 -86 -71 -122 -39
-43 -69 -98 -54 -98 5 0 10 7 10 15 0 14 4 17 32 19 7 1 32 23 57 51 81 87 82
88 113 58 29 -28 48 -24 49 10 0 21 1 21 8 2 10 -26 2 -55 -15 -55 -7 0 -18
-9 -23 -19 -8 -14 -31 -23 -81 -32 -47 -8 -70 -17 -70 -26 0 -7 6 -16 13 -18
14 -6 18 -75 4 -75 -6 0 -8 -3 -4 -6 3 -3 -1 -25 -10 -47 -10 -28 -13 -59 -9
-95 4 -35 3 -51 -4 -47 -11 7 -13 -5 -4 -29 3 -9 12 -16 20 -16 18 0 17 -33
-1 -85 -8 -22 -15 -47 -15 -55 0 -8 -11 -36 -25 -62 -14 -26 -25 -56 -25 -68
0 -17 4 -19 28 -14 15 4 30 12 34 18 5 6 8 1 8 -12 0 -13 4 -21 10 -17 5 3 27
-12 49 -34 36 -36 40 -38 56 -22 17 15 17 15 12 -1 -3 -9 1 -22 11 -30 13 -11
14 -11 7 1 -6 10 -4 12 4 7 7 -5 10 -15 6 -23 -4 -13 -3 -13 8 -4 11 8 20 7
38 -7 13 -9 42 -27 64 -39 129 -68 158 -87 148 -96 -3 -4 3 -7 15 -7 l22 0 0
385 c0 359 -1 386 -17 391 -51 16 -94 39 -114 60 -12 13 -26 24 -31 24 -4 0
-8 -24 -9 -52 0 -29 -3 -46 -6 -38 -3 8 -11 18 -16 22 -7 4 -12 78 -14 190 -1
101 0 177 3 171 10 -22 26 -14 19 10 -5 17 -4 19 4 7 6 -8 8 -24 5 -35 -4 -11
-3 -17 1 -13 12 11 33 -35 45 -99 5 -31 10 -58 10 -59 0 -1 -7 -9 -15 -18 -8
-8 -12 -22 -9 -31 8 -20 81 -18 93 3 6 10 10 1 14 -26 4 -21 14 -52 22 -68 14
-27 15 -14 15 164 0 135 -3 191 -11 187 -6 -4 -8 -14 -5 -22 5 -12 -1 -10 -26
5 -19 10 -31 25 -29 33 2 8 6 26 9 42 2 15 8 27 12 27 5 0 11 18 15 40 4 22
13 47 21 54 21 21 20 146 -1 146 -13 0 -15 -7 -9 -34 4 -24 1 -42 -10 -58 -9
-12 -16 -33 -16 -45 0 -13 -4 -23 -10 -23 -5 0 -9 -3 -9 -7 5 -30 -5 -62 -25
-86 l-24 -28 -35 20 c-27 15 -38 17 -47 8 -10 -9 -12 -8 -6 6 3 10 6 21 6 23
0 2 7 4 15 4 8 0 22 12 32 28 10 15 26 35 37 45 20 17 21 17 27 0 7 -15 8 -15
8 5 1 27 30 122 42 138 6 7 1 18 -13 30 -21 19 -21 19 -16 -3 4 -15 -3 -34
-23 -60 -16 -21 -29 -43 -29 -49 0 -6 -7 -18 -16 -25 -9 -7 -20 -22 -24 -34
-7 -15 -9 -16 -9 -4 -1 9 -10 45 -21 80 -11 34 -17 65 -13 68 13 10 33 50 33
66 0 8 3 15 8 15 4 0 13 13 20 29 9 19 18 28 28 24 9 -3 14 1 12 13 0 11 0 27
0 37 2 15 4 16 16 5 10 -9 11 -15 2 -20 -7 -5 -4 -8 7 -8 14 0 17 5 11 23 -4
12 -12 25 -18 29 -8 6 -7 8 2 8 19 0 16 68 -4 72 -14 3 -14 6 5 28 11 14 20
19 21 13 0 -7 7 -13 15 -13 8 0 15 -8 15 -18 0 -10 7 -19 15 -19 12 0 15 16
15 79 l0 79 -30 -21 c-18 -13 -30 -17 -30 -9 0 23 23 89 32 89 4 0 8 18 8 40
0 22 5 40 10 40 6 0 10 23 10 51 l0 51 -25 -16 c-13 -9 -26 -16 -28 -16 -2 0
1 29 7 65 6 43 14 65 23 65 7 0 13 5 13 10 0 6 -32 10 -77 10 l-76 0 19 -22z
m22 -356 c13 -20 13 -22 -2 -16 -12 5 -15 2 -10 -12 4 -14 3 -15 -3 -6 -6 7
-14 12 -19 11 -26 -5 -35 1 -22 15 9 10 15 10 20 3 4 -6 10 -8 14 -4 4 3 1 14
-7 23 -12 15 -12 17 0 13 8 -3 21 -15 29 -27z m-126 -464 c-7 -7 -12 -8 -12
-2 0 6 3 14 7 17 3 4 9 5 12 2 2 -3 -1 -11 -7 -17z m73 -158 c-5 -8 -11 -8
-17 -2 -6 6 -7 16 -3 22 5 8 11 8 17 2 6 -6 7 -16 3 -22z m87 -730 c5 0 8 6 8
13 0 6 5 4 11 -6 6 -9 14 -15 19 -12 10 6 24 -54 18 -81 -3 -16 -4 -17 -20 -1
-9 9 -21 17 -27 17 -12 0 -15 26 -3 33 4 2 1 2 -5 1 -7 -2 -13 4 -14 14 0 10
-3 12 -6 5 -10 -26 -20 -12 -20 28 l0 42 16 -27 c8 -14 19 -26 23 -26z m-305
-127 c1 -16 -1 -21 -4 -13 -4 10 -10 4 -20 -20 -9 -24 -12 -27 -9 -10 6 47 13
61 31 70 0 0 1 -12 2 -27z m-26 -124 c-10 -23 -10 -23 -10 7 -1 17 2 34 7 38
11 12 14 -18 3 -45z m-34 -11 c-3 -7 -5 -2 -5 12 0 14 2 19 5 13 2 -7 2 -19 0
-25z"/>
<path d="M1372 2500 c-7 -18 -9 -31 -6 -27 4 4 13 2 21 -4 10 -9 13 -7 12 7 0
11 -4 28 -8 38 -7 17 -9 16 -19 -14z"/>
<path d="M1476 2492 c-7 -12 42 -38 51 -28 5 4 -1 14 -11 22 -23 16 -33 18
-40 6z"/>
<path d="M654 2346 c-8 -22 3 -49 19 -43 6 2 12 14 12 27 0 27 -22 39 -31 16z
m26 -16 c0 -11 -4 -20 -10 -20 -5 0 -10 9 -10 20 0 11 5 20 10 20 6 0 10 -9
10 -20z"/>
<path d="M704 2346 c-3 -8 -4 -21 -1 -28 3 -7 6 -3 6 10 1 12 5 22 10 22 5 0
12 -10 14 -22 5 -21 5 -21 4 1 -2 28 -24 40 -33 17z"/>
<path d="M1044 2346 c-3 -8 -4 -21 -1 -28 3 -7 6 -3 6 10 1 12 5 22 10 22 5 0
12 -10 14 -22 5 -21 5 -21 4 1 -2 28 -24 40 -33 17z"/>
<path d="M1091 2333 c1 -23 2 -24 6 -5 2 12 9 22 15 22 5 0 8 -7 5 -15 -4 -8
-1 -17 4 -21 7 -4 9 3 7 17 -1 13 -11 25 -20 27 -14 3 -18 -3 -17 -25z"/>
<path d="M1247 2353 c-11 -10 -8 -41 4 -49 6 -3 16 -1 22 5 9 9 8 11 -5 6 -14
-6 -18 -2 -18 15 0 16 4 20 16 16 8 -3 12 -2 9 4 -7 12 -19 13 -28 3z"/>
<path d="M1300 2354 c0 -6 7 -19 16 -30 14 -18 14 -18 3 6 -14 31 -19 36 -19
24z"/>
<path d="M608 2332 c-4 -12 1 -18 13 -18 11 0 19 4 19 8 0 4 -5 8 -11 8 -5 0
-7 5 -4 10 3 6 2 10 -3 10 -5 0 -12 -8 -14 -18z"/>
<path d="M752 2330 c0 -14 2 -19 5 -12 2 6 2 18 0 25 -3 6 -5 1 -5 -13z"/>
<path d="M778 2332 c-4 -12 1 -18 13 -18 11 0 19 4 19 8 0 4 -5 8 -11 8 -5 0
-7 5 -4 10 3 6 2 10 -3 10 -5 0 -12 -8 -14 -18z"/>
<path d="M820 2331 c0 -25 6 -27 13 -6 4 8 2 17 -3 20 -6 4 -10 -3 -10 -14z"/>
<path d="M847 2336 c-4 -10 -5 -21 -2 -24 9 -9 17 6 13 25 -3 17 -4 17 -11 -1z"/>
<path d="M885 2340 c3 -5 1 -10 -4 -10 -6 0 -11 -4 -11 -8 0 -4 8 -8 19 -8 12
0 17 6 13 18 -2 10 -9 18 -14 18 -5 0 -6 -4 -3 -10z"/>
<path d="M998 2332 c-4 -12 1 -18 13 -18 11 0 19 4 19 8 0 4 -5 8 -11 8 -5 0
-7 5 -4 10 3 6 2 10 -3 10 -5 0 -12 -8 -14 -18z"/>
<path d="M1155 2340 c3 -5 1 -10 -4 -10 -6 0 -11 -4 -11 -8 0 -4 8 -8 19 -8
12 0 17 6 13 18 -2 10 -9 18 -14 18 -5 0 -6 -4 -3 -10z"/>
<path d="M1190 2331 c0 -25 6 -27 13 -6 4 8 2 17 -3 20 -6 4 -10 -3 -10 -14z"/>
<path d="M1217 2336 c-4 -10 -5 -21 -2 -24 9 -9 17 6 13 25 -3 17 -4 17 -11
-1z"/>
<path d="M940 2334 c0 -20 27 -37 36 -23 4 7 3 9 -4 5 -6 -3 -15 2 -21 11 -6
10 -11 13 -11 7z"/>
<path d="M1575 2330 c-4 -6 -3 -16 3 -22 13 -13 23 4 13 21 -7 10 -10 10 -16
1z"/>
<path d="M692 2164 c-13 -9 -22 -23 -20 -32 2 -8 -9 -28 -24 -43 -55 -55 -27
-135 44 -126 l33 4 -32 1 c-36 2 -63 32 -63 70 0 29 42 72 72 72 21 1 22 2 6
14 -10 7 -18 18 -18 24 0 19 33 23 51 6 17 -15 19 -15 19 -2 0 14 -19 28 -39
28 -3 0 -17 -7 -29 -16z"/>
<path d="M905 2120 c3 -5 3 -10 -2 -10 -10 0 -10 -96 0 -106 4 -4 7 11 7 34 0
23 6 47 13 54 11 10 12 15 1 25 -15 15 -28 17 -19 3z"/>
<path d="M989 2093 c-11 -15 -11 -16 1 -5 18 15 34 16 24 0 -4 -7 -3 -8 4 -4
7 4 12 11 12 17 0 15 -27 10 -41 -8z"/>
<path d="M798 2059 l4 -41 15 31 c20 41 33 39 33 -4 0 -19 3 -35 8 -35 4 0 6
18 4 40 -4 40 -18 50 -40 28 -9 -9 -12 -8 -12 5 0 9 -3 17 -8 17 -4 0 -6 -19
-4 -41z"/>
<path d="M709 2079 c-10 -6 -6 -9 13 -9 34 0 49 -25 37 -58 -5 -14 -8 -27 -5
-29 10 -10 25 60 16 77 -11 21 -43 31 -61 19z"/>
<path d="M948 2083 c6 -2 12 -23 13 -46 l1 -42 8 35 c9 36 -2 61 -24 59 -7 0
-6 -2 2 -6z"/>
<path d="M1158 2083 c6 -2 18 -2 25 0 6 3 1 5 -13 5 -14 0 -19 -2 -12 -5z"/>
<path d="M1056 2065 c4 -8 8 -15 10 -15 2 0 4 7 4 15 0 8 -4 15 -10 15 -5 0
-7 -7 -4 -15z"/>
<path d="M675 2050 c-7 -22 1 -40 17 -40 7 0 7 5 -1 14 -6 7 -9 21 -5 30 3 9
4 16 1 16 -3 0 -8 -9 -12 -20z"/>
<path d="M1022 2043 c2 -19 10 -29 23 -31 19 -3 19 -2 2 8 -12 8 -16 18 -12
31 4 11 2 19 -5 19 -6 0 -10 -12 -8 -27z"/>
<path d="M1115 2049 c-4 -6 -5 -12 -2 -15 2 -3 7 2 10 11 7 17 1 20 -8 4z"/>
<path d="M1914 2037 c-2 -7 0 -24 5 -38 9 -22 10 -21 10 14 1 37 -5 48 -15 24z"/>
<path d="M1096 1998 c-13 -60 -16 -117 -8 -137 8 -21 9 -20 21 18 11 38 39 57
42 29 1 -7 2 -17 4 -23 1 -5 3 -31 3 -57 2 -46 21 -78 45 -78 7 0 4 6 -5 14
-13 9 -19 35 -24 95 -4 45 -12 84 -17 88 -6 3 -22 -7 -35 -23 l-25 -29 5 63
c6 62 3 82 -6 40z"/>
<path d="M782 1938 c-18 -18 -15 -29 18 -72 16 -21 27 -43 23 -49 -3 -6 -1 -7
5 -3 19 11 14 29 -19 74 -28 38 -29 43 -13 49 10 4 19 2 22 -5 2 -7 8 -10 13
-6 14 8 1 24 -20 24 -9 0 -22 -5 -29 -12z"/>
<path d="M1350 1941 c0 -5 5 -13 10 -16 6 -3 10 -2 10 4 0 5 -4 13 -10 16 -5
3 -10 2 -10 -4z"/>
<path d="M1323 1928 c-7 -9 -3 -26 13 -56 12 -23 25 -38 29 -32 4 6 -3 26 -15
45 -12 19 -19 39 -15 45 9 14 -1 12 -12 -2z"/>
<path d="M32 1899 c2 -8 10 -17 18 -21 8 -5 0 -5 -18 -2 -31 5 -32 5 -32 -30
0 -20 3 -36 8 -36 16 1 72 61 66 72 -4 6 -3 8 2 5 6 -3 16 -2 24 4 12 7 11 9
-5 9 -11 0 -30 3 -43 6 -16 5 -22 3 -20 -7z"/>
<path d="M955 1900 c-3 -5 -2 -10 3 -10 6 0 14 -21 19 -47 l9 -48 11 42 c6 24
7 41 3 38 -5 -3 -11 4 -15 15 -7 22 -20 26 -30 10z"/>
<path d="M1036 1863 c7 -51 26 -83 38 -64 4 6 3 11 -2 11 -5 0 -13 20 -16 45
-10 61 -27 69 -20 8z"/>
<path d="M1222 1888 c-6 -6 -12 -25 -12 -40 0 -22 5 -28 22 -28 21 0 21 1 4
13 -13 10 -16 20 -11 36 10 32 40 23 40 -12 -1 -15 3 -23 8 -18 5 5 7 19 5 32
-3 27 -36 37 -56 17z"/>
<path d="M881 1866 c-28 -30 -21 -66 12 -66 20 1 20 2 5 11 -20 11 -24 44 -8
54 15 9 42 -15 36 -32 -3 -8 -1 -11 4 -8 14 8 13 38 -2 53 -17 17 -21 15 -47
-12z"/>
<path d="M1297 1834 c-11 -11 3 -24 26 -23 15 0 17 2 7 6 -8 3 -18 10 -21 15
-3 4 -8 5 -12 2z"/>
<path d="M760 1805 c0 -14 37 -28 44 -16 2 3 -7 11 -20 18 -19 9 -24 8 -24 -2z"/>
<path d="M675 1764 c5 -11 10 -40 13 -66 3 -42 2 -48 -15 -48 -47 0 -72 -80
-29 -88 18 -4 19 -3 3 13 -20 19 -20 20 -7 46 6 10 20 19 30 19 15 0 20 -7 20
-30 0 -40 20 -80 39 -80 14 0 14 2 1 9 -10 7 -15 33 -17 87 -5 98 -15 146 -32
152 -11 4 -12 0 -6 -14z"/>
<path d="M940 1730 c0 -11 4 -20 9 -20 5 0 7 9 4 20 -3 11 -7 20 -9 20 -2 0
-4 -9 -4 -20z"/>
<path d="M1110 1730 c8 -5 24 -9 35 -9 l20 0 -20 9 c-11 5 -27 9 -35 9 -13 1
-13 0 0 -9z"/>
<path d="M1307 1723 c-14 -14 -6 -46 18 -75 14 -17 25 -38 23 -47 -5 -23 -45
-27 -51 -4 -4 14 -5 13 -6 -5 -1 -20 3 -23 25 -20 15 2 33 12 40 23 12 18 10
26 -18 68 -32 50 -31 70 2 49 17 -10 20 -10 20 3 0 15 -40 21 -53 8z"/>
<path d="M52 1703 l-52 -4 1 -80 1 -81 19 29 c10 15 24 40 30 55 13 31 29 37
29 11 0 -14 2 -15 13 -4 10 11 10 14 0 18 -18 6 -16 23 4 45 9 10 14 17 12 16
-2 -1 -28 -3 -57 -5z"/>
<path d="M807 1680 c-14 -17 -29 -26 -32 -20 -3 5 -14 10 -23 10 -14 0 -14 -2
-3 -9 7 -5 16 -32 19 -60 6 -65 22 -67 22 -2 0 34 6 56 21 75 19 24 47 28 33
4 -4 -7 -2 -8 4 -4 17 10 15 36 -2 36 -8 0 -26 -14 -39 -30z"/>
<path d="M1120 1680 c-13 -8 -13 -10 2 -10 11 0 18 -10 20 -32 l4 -33 8 28
c10 35 -10 62 -34 47z"/>
<path d="M987 1662 c-25 -27 -22 -62 5 -62 21 0 21 0 2 14 -15 12 -17 18 -8
33 6 10 19 19 28 21 15 3 16 -6 13 -81 -2 -51 -9 -92 -16 -101 -8 -9 -9 -16
-4 -16 19 0 35 56 39 133 5 76 4 77 -19 77 -13 0 -31 -8 -40 -18z"/>
<path d="M1197 1662 c-31 -35 -15 -82 27 -82 20 0 20 1 -2 16 -26 18 -29 34
-4 34 16 1 16 1 -1 11 -19 11 -14 29 9 29 8 0 14 -7 14 -16 0 -8 5 -12 10 -9
6 3 10 13 10 21 0 20 -44 18 -63 -4z"/>
<path d="M1086 1648 c-10 -33 -1 -48 27 -47 16 1 17 3 5 6 -10 3 -18 17 -20
36 l-4 32 -8 -27z"/>
<path d="M866 1638 c-32 -45 -13 -76 25 -42 16 14 18 14 24 -5 3 -12 14 -21
23 -21 12 0 13 3 4 12 -7 7 -12 27 -12 45 0 28 -3 33 -24 33 -14 0 -32 -10
-40 -22z m44 3 c0 -5 -9 -19 -20 -32 l-19 -24 -1 26 c0 14 3 29 7 32 9 10 33
8 33 -2z"/>
<path d="M1790 1560 c0 -5 7 -10 15 -10 8 0 15 5 15 10 0 6 -7 10 -15 10 -8 0
-15 -4 -15 -10z"/>
<path d="M910 1474 c0 -17 23 -34 45 -33 14 0 16 2 5 6 -8 3 -23 12 -32 21
-10 8 -18 11 -18 6z"/>
<path d="M1174 1368 c4 -20 26 -21 26 -1 0 14 -2 15 -9 4 -6 -9 -10 -10 -14
-2 -4 8 -5 8 -3 -1z"/>
<path d="M1240 1364 c0 -8 5 -12 10 -9 6 3 10 10 10 16 0 5 -4 9 -10 9 -5 0
-10 -7 -10 -16z"/>
<path d="M1266 1365 c-3 -8 -1 -15 4 -15 6 0 10 7 10 15 0 8 -2 15 -4 15 -2 0
-6 -7 -10 -15z"/>
<path d="M519 1328 c-6 -19 -3 -46 4 -41 6 4 8 -1 4 -11 -4 -10 -3 -15 3 -11
5 3 18 -11 29 -32 28 -53 26 -32 -3 25 -13 26 -21 53 -19 60 3 6 0 12 -6 12
-6 0 -11 -1 -12 -2z"/>
<path d="M1250 1167 c-13 -7 -29 -22 -37 -33 -14 -21 -13 -21 32 -13 25 5 56
15 67 23 23 16 24 15 -26 30 -7 2 -23 -1 -36 -7z"/>
<path d="M1180 1104 c0 -14 4 -23 9 -20 5 3 7 15 4 26 -7 28 -13 25 -13 -6z"/>
<path d="M1402 1118 c3 -7 12 -14 21 -16 12 -2 15 1 11 12 -7 19 -38 22 -32 4z"/>
<path d="M632 1088 c7 -15 15 -23 17 -17 2 6 -4 18 -13 27 -15 15 -15 15 -4
-10z"/>
<path d="M1073 1030 c0 -30 2 -43 4 -27 2 15 2 39 0 55 -2 15 -4 2 -4 -28z"/>
<path d="M1225 1060 c-3 -5 1 -10 9 -10 9 0 16 5 16 10 0 6 -4 10 -9 10 -6 0
-13 -4 -16 -10z"/>
<path d="M1376 1061 c-3 -5 -15 -7 -26 -4 -12 3 -20 0 -20 -7 0 -7 7 -10 15
-6 19 7 19 -4 2 -38 -8 -14 -18 -22 -22 -18 -5 4 -5 1 -1 -6 11 -18 42 10 50
44 4 13 13 24 21 24 7 0 17 5 20 10 3 6 -3 10 -14 10 -11 0 -22 -4 -25 -9z"/>
<path d="M1170 1041 c0 -42 107 -108 133 -82 8 8 3 11 -19 11 -36 0 -55 13
-89 59 -22 31 -25 33 -25 12z"/>
<path d="M935 1020 c4 -6 11 -8 16 -5 14 9 11 15 -7 15 -8 0 -12 -5 -9 -10z"/>
<path d="M1040 1020 c0 -5 5 -10 10 -10 6 0 10 5 10 10 0 6 -4 10 -10 10 -5 0
-10 -4 -10 -10z"/>
<path d="M1166 938 l-19 -33 32 29 c35 33 36 36 18 36 -7 0 -21 -15 -31 -32z"/>
<path d="M1219 938 c-8 -13 -13 -30 -13 -38 1 -8 2 -29 3 -47 1 -25 5 -31 16
-27 8 4 22 1 30 -6 9 -7 18 -11 21 -8 2 3 -10 12 -27 21 -31 15 -31 15 -10 26
17 9 20 18 15 39 -4 15 -11 32 -15 38 -5 6 -6 14 -2 17 3 4 4 7 1 7 -3 0 -12
-10 -19 -22z"/>
<path d="M1182 854 c-7 -14 -7 -25 0 -35 8 -11 9 -11 5 3 -3 9 -1 18 5 20 6 2
9 11 6 18 -4 12 -7 10 -16 -6z"/>
<path d="M393 819 c-17 -17 -16 -57 1 -75 17 -17 21 -12 30 41 4 26 3 35 -3
26 -7 -11 -10 -11 -12 3 -3 14 -6 15 -16 5z"/>
<path d="M1320 800 c-3 -51 -4 -52 -23 -87 -10 -18 -15 -33 -12 -33 4 0 -1
-10 -9 -22 -9 -12 -16 -28 -16 -34 0 -15 48 -24 54 -10 3 8 7 7 13 -1 6 -8 14
-9 23 -3 13 8 12 10 -2 10 -22 0 -23 18 -3 46 8 12 11 24 8 28 -4 4 -6 23 -5
44 1 20 -5 51 -13 67 l-13 30 -2 -35z"/>
<path d="M1158 792 c-10 -2 -18 -8 -18 -13 0 -13 27 -11 35 2 9 13 4 16 -17
11z"/>
<path d="M1410 745 c0 -51 29 -42 43 13 4 19 3 21 -9 11 -10 -8 -14 -8 -14 0
0 6 -4 11 -10 11 -5 0 -10 -16 -10 -35z"/>
<path d="M1238 723 c7 -3 16 -2 19 1 4 3 -2 6 -13 5 -11 0 -14 -3 -6 -6z"/>
<path d="M1240 695 c0 -8 2 -15 4 -15 2 0 6 7 10 15 3 8 1 15 -4 15 -6 0 -10
-7 -10 -15z"/>
<path d="M1140 675 c-7 -9 -8 -15 -2 -15 5 0 12 7 16 15 3 8 4 15 2 15 -2 0
-9 -7 -16 -15z"/>
<path d="M1212 670 c0 -14 2 -19 5 -12 2 6 2 18 0 25 -3 6 -5 1 -5 -13z"/>
<path d="M1471 534 c0 -11 3 -14 6 -6 3 7 2 16 -1 19 -3 4 -6 -2 -5 -13z"/>
<path d="M1330 456 c0 -13 11 -16 50 -16 51 0 72 16 23 17 -16 1 -38 5 -50 8
-17 6 -23 3 -23 -9z"/>
<path d="M1382 393 c2 -10 9 -24 16 -31 6 -7 12 -20 12 -27 0 -8 5 -17 12 -21
8 -5 9 2 5 27 -6 32 -6 33 8 15 8 -11 15 -15 15 -10 0 12 -52 64 -63 64 -5 0
-7 -8 -5 -17z"/>
<path d="M1531 339 c-13 -10 -19 -19 -14 -19 13 0 49 27 43 33 -3 3 -16 -3
-29 -14z"/>
<path d="M1506 302 c-3 -5 18 -36 45 -70 28 -34 48 -66 44 -72 -10 -16 -21
-12 -32 13 -13 28 -92 117 -105 117 -13 0 -9 -34 8 -58 8 -12 21 -32 27 -45 7
-12 34 -59 61 -105 l48 -82 164 0 c125 0 164 3 164 13 0 6 -28 30 -61 52 -34
22 -87 57 -118 77 -31 21 -63 41 -71 45 -8 4 -19 12 -25 18 -16 18 -98 81
-122 94 -12 6 -24 7 -27 3z"/>
<path d="M762 119 c-40 -117 -41 -120 -19 -117 17 2 25 14 35 53 15 61 34 176
30 181 -2 2 -23 -51 -46 -117z"/>
</g>
</svg>
