<?xml version="1.0" standalone="no"?>
<!DOCTYPE svg PUBLIC "-//W3C//DTD SVG 20010904//EN"
 "http://www.w3.org/TR/2001/REC-SVG-20010904/DTD/svg10.dtd">
<svg version="1.0" xmlns="http://www.w3.org/2000/svg"
 width="178.000000pt" height="284.000000pt" viewBox="0 0 178.000000 284.000000"
 preserveAspectRatio="xMidYMid meet">

<g transform="translate(0.000000,284.000000) scale(0.100000,-0.100000)"
fill="#000000" stroke="none">
<path d="M0 1723 l0 -1118 31 55 c41 74 133 193 183 236 22 19 32 32 22 28
-15 -6 -18 -4 -13 9 3 9 2 19 -4 23 -6 4 -4 13 6 24 13 14 20 16 40 6 19 -9
21 -14 12 -25 -10 -12 -9 -13 3 -6 56 33 119 87 114 99 -6 16 30 28 44 14 6
-6 21 -4 40 6 41 21 42 21 31 -16 -5 -18 -6 -47 -3 -64 5 -28 2 -32 -36 -49
-46 -21 -107 -83 -116 -119 -19 -75 109 -124 246 -93 39 9 92 12 132 10 37 -3
84 -2 103 1 34 7 35 8 29 41 -10 52 1 71 39 69 25 -1 26 0 5 3 -31 5 -36 24
-13 43 22 18 18 30 -10 30 -32 0 -31 12 10 90 34 64 34 65 35 29 0 -19 -7 -44
-15 -55 -21 -28 -18 -36 13 -32 26 3 27 5 35 88 8 76 7 86 -10 98 -13 10 -18
26 -18 67 0 29 2 51 5 49 2 -3 10 10 16 28 11 32 10 34 -38 66 -47 32 -57 52
-38 82 8 12 14 10 37 -12 46 -44 96 -61 146 -47 23 6 56 21 73 34 35 27 44 24
44 -15 0 -22 -9 -31 -59 -56 -68 -32 -76 -46 -91 -141 -25 -162 -34 -204 -47
-214 -21 -18 -15 -31 14 -27 24 3 28 9 40 62 7 33 15 62 18 64 6 6 35 -62 35
-83 0 -11 -6 -14 -25 -9 -21 5 -24 3 -19 -11 5 -11 -3 -26 -24 -44 -21 -20
-34 -44 -43 -85 -21 -93 14 -122 79 -65 49 42 61 66 62 116 l0 42 47 3 c38 2
47 7 49 23 10 73 27 123 40 118 22 -8 16 -62 -11 -109 -25 -42 -25 -43 -5 -49
35 -11 77 5 123 45 l44 39 59 -43 c112 -81 204 -183 273 -301 l41 -70 0 1118
0 1117 -890 0 -890 0 0 -1117z m891 860 c-509 -3 -541 -5 -541 -36 0 -5 10 -2
23 9 22 19 22 19 5 -2 -15 -18 -18 -42 -18 -170 0 -82 -4 -154 -8 -161 -4 -6
-6 67 -5 163 1 120 5 180 13 189 11 13 88 15 529 13 l516 -3 -514 -2z m-279
-80 c21 -18 24 -53 6 -71 -17 -17 -33 -15 -18 2 18 22 8 59 -20 73 -21 11 -22
13 -6 13 11 0 28 -7 38 -17z m-68 -22 c-5 -21 0 -34 17 -50 12 -11 17 -21 11
-21 -15 0 -52 36 -52 51 0 12 19 49 25 49 3 0 2 -13 -1 -29z m201 -22 c23 -44
12 -47 -13 -4 -12 19 -17 35 -12 35 5 0 17 -14 25 -31z m47 -4 c5 -43 -8 -47
-14 -5 -4 26 -1 40 8 40 1 0 4 -16 6 -35z m58 20 c0 -8 8 -16 18 -16 16 -1 16
-2 0 -6 -10 -2 -18 -11 -18 -19 0 -8 -3 -14 -7 -14 -5 0 -8 16 -8 35 0 19 3
35 8 35 4 0 7 -7 7 -15z m109 -16 c28 -37 21 -50 -7 -14 l-21 26 -4 -28 c-3
-23 -4 -21 -6 10 -1 45 8 47 38 6z m81 -4 c0 -19 -4 -35 -10 -35 -5 0 -10 16
-10 35 0 19 5 35 10 35 6 0 10 -16 10 -35z m80 4 c12 -16 20 -33 17 -35 -3 -3
-14 7 -24 22 l-18 28 -6 -29 c-6 -29 -7 -28 -8 8 -1 45 10 47 39 6z m73 11
c-3 -12 2 -29 12 -40 10 -11 13 -20 7 -20 -21 0 -42 42 -31 62 13 24 18 23 12
-2z m61 -3 c8 -13 7 -21 -6 -33 -16 -16 -17 -16 -11 4 3 12 -1 30 -8 39 -12
14 -12 16 0 12 8 -3 19 -13 25 -22z m-537 -39 c-3 -7 -5 -2 -5 12 0 14 2 19 5
13 2 -7 2 -19 0 -25z m173 2 c0 -5 -5 -10 -11 -10 -5 0 -7 5 -4 10 3 6 8 10
11 10 2 0 4 -4 4 -10z m237 -116 c3 -9 -1 -23 -10 -31 -15 -15 -15 -14 -10 6
3 14 -1 29 -13 43 -19 21 -19 21 4 9 13 -7 26 -19 29 -27z m-627 11 c0 -8 8
-16 18 -16 16 -1 16 -2 0 -6 -10 -2 -18 -11 -18 -19 0 -8 -4 -14 -10 -14 -5 0
-10 16 -10 35 0 19 5 35 10 35 6 0 10 -7 10 -15z m172 -20 c8 -19 11 -35 6
-35 -5 0 -11 7 -14 15 -4 8 -14 15 -23 16 -9 0 -11 3 -4 5 7 3 9 12 6 20 -11
30 14 12 29 -21z m118 20 c0 -8 5 -15 11 -15 6 0 9 7 5 15 -3 8 0 15 5 15 6 0
9 -8 6 -19 -2 -10 0 -26 5 -35 12 -21 -1 -21 -18 2 -13 16 -13 16 -14 0 0 -34
-20 -18 -20 17 0 19 5 35 10 35 6 0 10 -7 10 -15z m125 -15 c18 -34 18 -40 5
-40 -5 0 -10 7 -10 15 0 8 -7 15 -15 15 -8 0 -15 -7 -15 -15 0 -8 -4 -15 -10
-15 -5 0 -2 16 7 35 9 19 18 35 20 35 1 0 9 -13 18 -30z m75 -5 c0 -19 -4 -35
-10 -35 -5 0 -10 16 -10 35 0 19 5 35 10 35 6 0 10 -16 10 -35z m30 15 c0 -11
-4 -20 -8 -20 -4 0 -8 9 -8 20 0 11 4 20 8 20 4 0 8 -9 8 -20z m45 -1 c-4 -13
0 -28 12 -41 18 -21 18 -21 -4 -10 -26 14 -33 32 -21 55 12 24 21 22 13 -4z
m135 -38 c0 -5 -12 1 -26 14 -14 13 -23 29 -19 35 7 11 45 -30 45 -49z m0 49
c0 -5 -2 -10 -4 -10 -3 0 -8 5 -11 10 -3 6 -1 10 4 10 6 0 11 -4 11 -10z m94
-59 c-2 -3 -10 4 -18 14 -7 10 -18 15 -24 11 -15 -9 -15 0 -1 26 11 21 12 20
29 -13 10 -19 16 -36 14 -38z m-754 9 c0 -5 -5 -10 -11 -10 -5 0 -7 5 -4 10 3
6 8 10 11 10 2 0 4 -4 4 -10z m630 -5 c11 -13 10 -14 -4 -9 -9 3 -16 10 -16
15 0 13 6 11 20 -6z m235 -65 c-18 -20 -29 -20 -519 -18 l-501 3 501 2 c430 3
503 5 514 18 7 8 15 15 18 15 3 0 -3 -9 -13 -20z m25 -4 c0 -2 -8 -10 -17 -17
-16 -13 -17 -12 -4 4 13 16 21 21 21 13z m-293 -572 c-9 -9 -28 6 -21 18 4 6
10 6 17 -1 6 -6 8 -13 4 -17z m-921 -19 c7 -15 5 -24 -7 -36 -14 -14 -18 -14
-38 2 -12 10 -17 20 -12 24 6 3 8 11 5 18 -8 21 42 14 52 -8z m1497 12 c7 -18
-20 -41 -30 -24 -14 22 -11 37 7 37 10 0 20 -6 23 -13z m-783 -52 c0 -13 -10
-31 -22 -39 -21 -15 -24 -14 -42 4 -16 15 -18 22 -8 32 7 7 12 22 12 35 0 23
1 23 30 8 21 -11 30 -23 30 -40z m273 15 c-3 -11 0 -26 6 -34 9 -10 7 -19 -6
-35 l-18 -22 -23 21 c-29 27 -25 60 8 77 34 17 39 16 33 -7z m199 -26 c-22
-16 -56 -6 -41 12 6 8 8 14 3 15 -5 0 0 4 11 8 28 11 50 -18 27 -35z m-1058
11 c6 -16 -16 -26 -33 -16 -16 10 -3 41 14 35 7 -3 16 -12 19 -19z m276 16 c0
-6 -4 -13 -10 -16 -5 -3 -10 1 -10 9 0 9 5 16 10 16 6 0 10 -4 10 -9z m697
-171 c4 0 17 7 27 15 11 8 22 15 25 15 3 0 6 -34 7 -75 0 -41 -2 -75 -6 -75
-4 0 -19 11 -34 25 l-27 25 -25 -28 -25 -27 5 27 c3 14 9 33 12 42 4 11 0 16
-12 16 -14 0 -19 7 -19 30 0 22 5 30 17 30 9 0 20 5 24 12 5 7 10 4 15 -10 5
-12 12 -22 16 -22z m173 -20 c-18 -11 -24 -6 -16 16 5 14 9 15 19 5 9 -9 9
-14 -3 -21z m-1330 -43 c4 -5 -1 -18 -13 -30 -13 -13 -22 -17 -25 -9 -2 7 -13
12 -24 12 -16 0 -18 3 -9 14 6 7 8 21 5 31 -6 14 -3 16 14 11 12 -4 24 -2 28
6 6 10 10 8 12 -7 2 -11 8 -24 12 -28z m1587 36 c-4 -3 -2 -12 4 -20 9 -10 8
-13 -5 -13 -9 0 -16 -5 -16 -10 0 -6 -7 -6 -19 1 -26 17 -15 49 17 49 14 0 22
-3 19 -7z m-993 -68 c11 -41 6 -101 -13 -135 l-19 -36 101 4 c87 4 98 3 86
-10 -9 -10 -27 -13 -59 -10 -41 4 -47 2 -59 -22 -18 -32 -26 -32 -67 -1 -18
14 -35 25 -39 25 -3 0 -10 -11 -15 -25 -6 -15 -17 -25 -30 -25 -24 0 -26 16
-3 28 12 7 4 11 -35 17 -31 4 -66 18 -89 34 -21 15 -46 30 -55 34 -25 9 -24
54 1 62 12 3 23 22 30 50 6 25 15 45 20 45 5 0 33 -11 63 -25 69 -32 92 -32
119 4 18 25 25 28 40 18 10 -6 20 -20 23 -32z m76 -115 c0 -9 -3 -20 -7 -23
-10 -10 -33 13 -27 27 7 19 34 15 34 -4z m837 -70 c-1 -22 -37 -35 -37 -14 0
8 -5 14 -12 14 -6 0 -3 6 7 14 24 17 44 10 42 -14z m-1497 -46 c0 -8 -4 -12
-10 -9 -5 3 -10 10 -10 16 0 5 5 9 10 9 6 0 10 -7 10 -16z m652 -95 c-4 -23
-64 -69 -105 -81 -31 -9 -47 -9 -80 3 -22 8 -42 19 -44 25 -5 16 48 38 84 35
17 -1 50 6 74 17 47 22 76 22 71 1z m744 1 c9 -11 8 -17 -5 -26 -20 -15 -41
-1 -41 28 0 22 29 21 46 -2z m-1484 -122 c-9 -9 -12 -7 -12 12 0 19 3 21 12
12 9 -9 9 -15 0 -24z"/>
<path d="M677 1295 c-9 -8 -17 -20 -19 -27 -3 -8 -12 -4 -26 10 -12 12 -30 22
-40 22 -20 0 -42 -18 -42 -34 0 -6 5 -4 10 6 8 12 17 14 38 9 30 -8 40 -34 22
-56 -16 -19 -35 -19 -54 1 -9 8 -16 11 -16 5 0 -15 39 -34 55 -27 8 3 17 1 20
-4 8 -12 42 -13 49 -1 3 4 -6 6 -19 3 -26 -5 -33 10 -16 37 7 11 10 11 17 -2
5 -8 20 -17 34 -20 14 -2 19 -2 12 0 -10 4 -10 8 -2 18 7 8 9 19 5 25 -9 15
-25 2 -18 -15 3 -8 0 -15 -7 -15 -6 0 -10 11 -8 28 2 19 8 27 21 26 9 -1 17 3
17 8 0 6 7 5 16 -3 10 -8 14 -23 12 -40 -3 -16 -1 -26 4 -23 16 10 8 63 -11
74 -26 14 -37 13 -54 -5z"/>
<path d="M590 1245 c0 -8 5 -15 10 -15 6 0 10 7 10 15 0 8 -4 15 -10 15 -5 0
-10 -7 -10 -15z"/>
</g>
</svg>
