<?xml version="1.0" standalone="no"?>
<!DOCTYPE svg PUBLIC "-//W3C//DTD SVG 20010904//EN"
 "http://www.w3.org/TR/2001/REC-SVG-20010904/DTD/svg10.dtd">
<svg version="1.0" xmlns="http://www.w3.org/2000/svg"
 width="192.000000pt" height="263.000000pt" viewBox="0 0 192.000000 263.000000"
 preserveAspectRatio="xMidYMid meet">

<g transform="translate(0.000000,263.000000) scale(0.100000,-0.100000)"
fill="#000000" stroke="none">
<path d="M550 2561 l0 -59 73 -4 c39 -2 230 -3 422 -3 l350 0 3 63 3 62 -426
0 -425 0 0 -59z m63 -32 c4 -16 3 -18 -9 -8 -11 9 -14 9 -14 -1 0 -8 -2 -11
-5 -8 -7 7 5 38 15 38 4 0 10 -9 13 -21z m354 1 c1 -9 -4 -17 -11 -17 -6 0
-13 8 -13 17 -1 9 4 17 11 17 6 0 13 -8 13 -17z m170 -12 c-3 -7 -5 -2 -5 12
0 14 2 19 5 13 2 -7 2 -19 0 -25z m-486 5 c13 -16 12 -17 -3 -4 -10 7 -18 15
-18 17 0 8 8 3 21 -13z m36 -5 c-3 -8 -6 -5 -6 6 -1 11 2 17 5 13 3 -3 4 -12
1 -19z m40 0 c-3 -8 -6 -5 -6 6 -1 11 2 17 5 13 3 -3 4 -12 1 -19z m20 0 c-3
-8 -6 -5 -6 6 -1 11 2 17 5 13 3 -3 4 -12 1 -19z m34 5 c13 -16 12 -17 -3 -4
-17 13 -22 21 -14 21 2 0 10 -8 17 -17z m26 -5 c-3 -8 -6 -5 -6 6 -1 11 2 17
5 13 3 -3 4 -12 1 -19z m50 0 c-3 -8 -6 -5 -6 6 -1 11 2 17 5 13 3 -3 4 -12 1
-19z m20 0 c-3 -8 -6 -5 -6 6 -1 11 2 17 5 13 3 -3 4 -12 1 -19z m20 0 c-3 -8
-6 -5 -6 6 -1 11 2 17 5 13 3 -3 4 -12 1 -19z m97 6 c3 -8 2 -12 -4 -9 -6 3
-10 10 -10 16 0 14 7 11 14 -7z m23 -6 c-3 -8 -6 -5 -6 6 -1 11 2 17 5 13 3
-3 4 -12 1 -19z m34 5 c13 -16 12 -17 -3 -4 -17 13 -22 21 -14 21 2 0 10 -8
17 -17z m36 -5 c-3 -8 -6 -5 -6 6 -1 11 2 17 5 13 3 -3 4 -12 1 -19z m103 7
c7 -9 8 -15 2 -15 -5 0 -12 7 -16 15 -3 8 -4 15 -2 15 2 0 9 -7 16 -15z m95 6
c3 -5 1 -12 -4 -15 -5 -3 -11 1 -15 9 -6 16 9 21 19 6z m45 -6 c0 -8 -4 -15
-10 -15 -5 0 -10 7 -10 15 0 8 5 15 10 15 6 0 10 -7 10 -15z m24 -1 c3 -8 2
-12 -4 -9 -6 3 -10 10 -10 16 0 14 7 11 14 -7z"/>
<path d="M255 2416 c-21 -23 -36 -52 -43 -83 l-10 -48 -1 40 c-2 60 -21 23
-21 -42 0 -84 38 -153 86 -153 42 0 94 88 94 160 0 31 -31 101 -54 119 -12 10
-14 17 -5 27 25 31 -15 13 -46 -20z m42 -73 c28 -69 -2 -163 -52 -163 -33 0
-53 39 -37 72 10 21 11 22 12 3 0 -14 6 -7 19 20 16 35 16 43 4 62 -17 26 -10
43 18 43 14 0 25 -12 36 -37z"/>
<path d="M505 2441 c-11 -5 -25 -6 -32 -4 -6 2 -14 -9 -18 -26 -3 -17 -18 -47
-32 -67 -21 -32 -15 -29 43 24 69 64 99 75 128 46 19 -18 21 -65 4 -82 -16
-16 -48 -15 -49 1 0 6 -7 -4 -14 -23 l-13 -35 -1 53 c-1 29 4 63 10 75 l12 22
-24 -20 c-39 -33 -58 -59 -59 -78 0 -10 9 -54 20 -98 16 -61 18 -84 9 -100
-15 -29 -6 -33 17 -8 14 16 19 36 19 80 -1 51 2 59 18 59 11 0 35 16 54 35 32
32 35 39 30 78 -9 65 -59 93 -122 68z"/>
<path d="M1081 2400 c-7 -25 -19 -53 -28 -62 -35 -39 -3 -15 51 37 42 42 63
55 86 55 41 0 68 -40 52 -76 -16 -33 -42 -42 -58 -19 -13 18 -14 17 -14 -6 0
-13 -5 -31 -10 -39 -14 -21 -13 70 1 107 9 26 7 25 -32 -14 l-43 -42 23 -96
c20 -78 22 -101 12 -123 l-11 -27 23 26 c12 14 28 24 34 22 16 -6 43 25 43 48
0 11 5 17 10 14 6 -4 9 -9 6 -13 -2 -4 0 -16 4 -27 6 -16 17 -20 68 -21 58 -2
62 0 62 21 0 34 10 55 27 55 11 0 14 -9 9 -39 -5 -40 11 -60 37 -44 7 4 20 6
30 5 10 -2 25 2 33 9 13 10 17 10 24 -1 4 -7 15 -10 25 -6 14 5 15 9 5 21 -6
8 -10 30 -7 50 4 28 2 35 -13 35 -13 0 -16 -6 -13 -24 5 -25 -23 -79 -37 -71
-14 8 -17 40 -7 65 9 24 9 24 17 5 8 -19 9 -19 9 3 1 17 -5 22 -23 22 -24 0
-40 -26 -49 -80 -3 -19 -5 -17 -6 10 -2 43 -10 57 -36 60 -38 4 -45 0 -45 -29
0 -16 -7 -35 -16 -42 -15 -12 -16 -9 -13 34 3 33 0 47 -8 47 -7 0 -13 5 -13
11 0 6 9 9 20 6 14 -4 20 0 20 12 0 9 7 26 15 37 20 27 19 40 -3 21 -13 -12
-21 -14 -29 -6 -8 8 -13 5 -18 -10 -3 -12 -10 -21 -15 -21 -4 0 -5 -12 -1 -27
7 -28 -1 -98 -13 -110 -3 -4 -12 -1 -18 5 -9 9 -9 22 -1 52 11 43 8 47 -21 25
-10 -8 -23 -12 -27 -9 -5 3 -9 -10 -9 -28 0 -32 -14 -67 -23 -58 -3 3 -7 28
-9 57 -5 51 -4 52 23 58 66 15 101 106 60 156 -17 21 -28 24 -84 24 l-64 0
-12 -45z"/>
<path d="M1526 2281 c-4 -7 -5 -15 -2 -18 9 -9 19 4 14 18 -4 11 -6 11 -12 0z"/>
<path d="M1578 2253 c-13 -16 -18 -93 -6 -93 8 0 6 -10 -8 -75 -5 -18 -3 -18
15 4 12 13 21 34 21 47 0 21 4 23 24 18 13 -3 27 -1 31 6 5 8 10 8 20 0 25
-21 58 -7 73 30 l14 35 -22 -22 c-25 -27 -45 -30 -35 -5 25 57 7 94 -26 54
-21 -27 -25 -27 -32 -3 -5 22 -52 24 -69 4z m125 -18 c-3 -9 -8 -14 -10 -11
-3 3 -2 9 2 15 9 16 15 13 8 -4z m-75 -27 c-2 -18 -7 -33 -13 -33 -5 0 -11 15
-13 33 -3 24 1 32 13 32 12 0 16 -8 13 -32z"/>
<path d="M646 2241 c-9 -9 -16 -32 -16 -49 0 -17 -4 -33 -9 -37 -16 -9 -22 12
-11 39 13 34 3 58 -24 54 -17 -2 -22 -11 -24 -50 -2 -36 -7 -48 -19 -48 -9 0
-13 -3 -10 -7 9 -9 63 -10 114 -2 l43 6 -7 -41 c-6 -38 -5 -40 11 -27 12 10
16 24 14 43 -3 16 -1 31 4 34 4 3 8 1 8 -4 0 -15 105 -8 124 7 14 12 16 12 10
-3 -4 -11 -1 -16 10 -16 11 0 16 9 16 29 0 57 15 69 20 16 l5 -50 41 -1 c23 0
48 5 56 10 18 13 32 109 14 99 -6 -4 -21 -6 -33 -5 -25 4 -35 -10 -44 -63 -6
-37 -7 -36 -8 18 l-1 58 -31 -3 c-24 -3 -36 -12 -50 -39 -10 -18 -18 -30 -19
-26 0 5 5 17 11 28 8 15 7 24 -2 35 -10 13 -14 12 -30 -2 -10 -9 -20 -30 -22
-48 -3 -20 -4 -16 -3 12 1 52 -18 51 -22 -1 -2 -20 -8 -37 -14 -37 -6 0 -9 17
-6 40 5 56 -24 51 -34 -5 l-6 -40 1 44 c1 38 -2 45 -19 47 -12 2 -29 -5 -38
-15z m34 -41 c0 -22 -4 -40 -10 -40 -5 0 -10 18 -10 40 0 22 5 40 10 40 6 0
10 -18 10 -40z m310 -15 c0 -19 -4 -35 -10 -35 -5 0 -10 16 -10 35 0 19 5 35
10 35 6 0 10 -16 10 -35z"/>
<path d="M551 2034 c0 -11 3 -14 6 -6 3 7 2 16 -1 19 -3 4 -6 -2 -5 -13z"/>
<path d="M680 2041 c0 -6 4 -13 10 -16 6 -3 7 1 4 9 -7 18 -14 21 -14 7z"/>
<path d="M731 2034 c0 -11 3 -14 6 -6 3 7 2 16 -1 19 -3 4 -6 -2 -5 -13z"/>
<path d="M1252 2030 c0 -14 2 -19 5 -12 2 6 2 18 0 25 -3 6 -5 1 -5 -13z"/>
<path d="M1366 2037 c3 -10 9 -15 12 -12 3 3 0 11 -7 18 -10 9 -11 8 -5 -6z"/>
<path d="M1391 2034 c0 -11 3 -14 6 -6 3 7 2 16 -1 19 -3 4 -6 -2 -5 -13z"/>
<path d="M1540 2046 c0 -2 8 -10 18 -17 15 -13 16 -12 3 4 -13 16 -21 21 -21
13z"/>
<path d="M1645 2040 c-3 -5 1 -10 10 -10 9 0 13 5 10 10 -3 6 -8 10 -10 10 -2
0 -7 -4 -10 -10z"/>
<path d="M1415 2030 c-3 -5 -1 -10 4 -10 6 0 11 5 11 10 0 6 -2 10 -4 10 -3 0
-8 -4 -11 -10z"/>
<path d="M1480 2030 c0 -5 5 -10 10 -10 6 0 10 5 10 10 0 6 -4 10 -10 10 -5 0
-10 -4 -10 -10z"/>
<path d="M1580 2029 c0 -5 5 -7 10 -4 6 3 10 8 10 11 0 2 -4 4 -10 4 -5 0 -10
-5 -10 -11z"/>
<path d="M1685 2030 c3 -5 13 -10 21 -10 8 0 14 5 14 10 0 6 -9 10 -21 10 -11
0 -17 -4 -14 -10z"/>
<path d="M919 1843 c-13 -17 -13 -17 6 -3 11 8 22 16 24 17 2 2 0 3 -6 3 -6 0
-17 -8 -24 -17z"/>
<path d="M859 1797 c-38 -33 -103 -117 -91 -117 6 0 16 10 23 23 6 12 32 43
57 70 49 50 54 61 11 24z"/>
<path d="M746 1729 c-8 -12 -19 -18 -25 -15 -7 4 -8 1 -5 -8 8 -21 9 -21 34
14 12 17 19 30 16 30 -3 0 -12 -9 -20 -21z"/>
<path d="M400 1730 c25 -8 87 -13 79 -6 -2 2 -26 6 -54 9 -34 4 -42 3 -25 -3z"/>
<path d="M660 1715 c0 -8 4 -15 10 -15 5 0 7 7 4 15 -4 8 -8 15 -10 15 -2 0
-4 -7 -4 -15z"/>
<path d="M499 1712 c10 -7 0 -14 -41 -26 -78 -23 -118 -71 -118 -146 0 -48 31
-115 61 -131 l21 -11 -23 -24 c-17 -18 -30 -23 -46 -19 -19 4 -28 -3 -57 -47
-18 -29 -44 -62 -56 -73 -62 -56 -66 -155 -7 -204 8 -6 13 -21 10 -31 -4 -14
0 -20 11 -20 9 0 16 -1 16 -3 0 -2 -16 -39 -35 -83 -22 -51 -42 -123 -55 -199
-12 -66 -23 -128 -26 -137 -4 -14 -1 -16 12 -11 12 5 15 3 9 -6 -5 -10 -2 -11
14 -6 12 4 21 2 21 -4 0 -6 11 -13 25 -17 15 -4 25 -13 25 -24 0 -10 7 -20 15
-24 23 -9 20 -73 -4 -81 -28 -9 -45 -31 -30 -41 8 -4 9 -3 5 4 -15 24 14 11
30 -14 41 -61 152 -81 261 -47 39 12 53 21 53 35 0 27 19 60 31 53 5 -4 15 -3
22 2 6 4 14 8 17 8 3 0 30 14 60 30 30 17 68 37 85 46 29 15 50 54 23 44 -7
-2 -31 -6 -53 -9 -22 -2 -50 -8 -62 -11 -13 -4 -30 -4 -39 -1 -16 6 -15 8 2
20 17 13 16 14 -10 9 -24 -5 -28 -3 -23 10 4 10 2 16 -5 14 -6 -1 -13 4 -15
11 -3 6 0 12 6 12 6 0 11 4 11 10 0 5 -7 7 -15 4 -17 -7 -21 21 -5 31 6 3 10
11 10 16 0 6 -4 8 -9 5 -5 -4 -7 4 -3 16 4 18 10 12 30 -35 27 -63 35 -66 97
-38 59 26 95 33 110 21 9 -8 25 -4 60 15 27 14 46 26 44 26 -2 1 -28 2 -56 4
-33 1 -60 8 -71 18 -10 10 -22 15 -25 12 -4 -3 -5 -3 -3 0 2 3 -12 22 -30 42
-45 49 -34 56 13 9 21 -21 47 -43 58 -49 11 -5 -7 14 -39 44 -33 30 -63 53
-67 52 -5 -2 -6 3 -4 10 2 6 -11 22 -31 34 l-35 22 7 -47 c5 -42 3 -52 -17
-74 -14 -15 -39 -28 -59 -31 -19 -3 -29 -3 -22 0 10 4 9 8 -4 17 -9 7 -23 39
-29 72 -11 51 -11 61 3 72 14 11 14 12 0 12 -15 0 -28 27 -28 63 0 9 7 17 15
17 8 0 15 5 15 10 0 6 -6 9 -12 8 -9 -2 -14 18 -16 72 -2 41 0 71 4 67 8 -8
33 22 34 40 0 6 -8 9 -19 6 -10 -3 -22 0 -25 6 -4 6 -15 11 -24 11 -10 -1 -3
-9 18 -21 l35 -20 -47 4 c-27 3 -48 3 -48 1 0 -2 13 -10 30 -19 41 -21 38 -35
-6 -22 -28 9 -37 8 -44 -3 -7 -12 -11 -12 -25 0 -14 12 -18 12 -26 -1 -7 -11
-9 -10 -9 6 0 36 37 102 73 130 l35 28 -25 54 c-19 42 -23 57 -13 66 9 9 17 5
36 -18 89 -107 118 -136 131 -131 8 3 11 2 8 -3 -3 -6 3 -15 12 -20 17 -10 17
-12 -1 -26 -18 -14 -19 -20 -8 -100 12 -95 35 -153 80 -205 27 -31 31 -33 53
-22 13 7 16 10 6 7 -13 -3 -16 -1 -10 8 4 6 8 16 8 21 0 12 82 36 124 36 27 0
32 -3 26 -17 -4 -13 -3 -15 5 -7 8 8 6 19 -5 40 -21 41 -19 81 5 94 11 6 20
16 20 22 0 7 -4 7 -13 -1 -8 -6 -17 -8 -20 -4 -4 3 -7 1 -7 -5 0 -6 -7 -9 -16
-5 -9 3 -14 15 -12 31 4 31 20 38 41 18 13 -14 16 -14 27 -1 7 8 19 15 28 15
13 0 12 -3 -3 -20 -21 -23 -15 -38 6 -17 8 7 20 12 27 11 7 -1 8 0 2 3 -5 2
-8 9 -5 14 4 5 16 2 29 -6 22 -15 23 -15 19 9 -5 23 -9 25 -42 20 -26 -3 -32
-2 -21 5 22 15 -5 14 -33 -1 -21 -11 -21 -10 -7 8 8 10 22 25 30 31 13 11 13
14 0 22 -17 12 -63 -26 -56 -45 3 -7 -8 -17 -25 -23 -24 -8 -29 -7 -29 5 0 9
5 24 10 34 9 17 8 19 -12 11 -17 -6 -22 -15 -20 -34 3 -27 -26 -45 -49 -31 -6
3 -16 0 -21 -7 -7 -11 -11 -11 -15 -1 -2 6 -9 10 -14 6 -15 -9 -22 23 -9 45 6
12 7 21 1 21 -5 0 -18 3 -28 6 -13 4 -15 3 -4 -4 10 -7 10 -11 1 -17 -13 -8
-32 14 -24 27 3 4 23 8 45 8 40 0 117 26 106 36 -3 3 -20 -2 -38 -11 -38 -20
-98 -14 -130 13 -43 36 -64 59 -67 73 -2 7 -11 20 -20 27 -9 7 -17 18 -18 25
-1 14 -10 39 -30 85 -14 33 -29 41 -37 20 -4 -9 -6 -8 -6 3 -1 8 -17 30 -36
49 -33 32 -48 71 -49 130 -1 36 57 73 107 67 21 -3 35 -1 31 4 -8 14 17 11 72
-11 29 -10 54 -16 58 -13 3 4 6 1 6 -6 0 -7 4 -10 9 -6 5 3 17 -2 26 -12 14
-14 17 -31 13 -97 -3 -50 -2 -71 4 -57 15 42 21 127 9 148 -12 23 -134 78
-196 88 -27 4 -35 3 -26 -3z m41 -376 c0 -2 -8 -10 -17 -17 -16 -13 -17 -12
-4 4 13 16 21 21 21 13z m-145 -27 c11 -17 -1 -21 -15 -4 -8 9 -8 15 -2 15 6
0 14 -5 17 -11z m-55 -33 c0 -12 -49 -30 -58 -21 -3 2 34 25 56 34 1 1 2 -5 2
-13z m40 -31 c7 -8 9 -15 6 -15 -4 0 -14 7 -22 15 -9 8 -11 15 -6 15 5 0 15
-7 22 -15z m-70 -25 c8 -5 11 -10 5 -10 -5 0 -17 5 -25 10 -8 5 -10 10 -5 10
6 0 17 -5 25 -10z m-20 -30 c-34 -11 -60 -11 -35 0 11 5 29 8 40 8 16 0 15 -2
-5 -8z m81 -10 c6 0 8 -4 5 -9 -8 -12 -46 -2 -46 11 0 6 7 7 16 4 9 -3 20 -6
25 -6z m577 -38 c-10 -2 -18 -8 -18 -13 0 -5 -5 -9 -12 -9 -6 0 -3 8 7 20 10
11 23 16 29 12 7 -4 5 -8 -6 -10z m-240 -70 c6 -18 -15 -14 -22 4 -4 10 -1 14
6 12 6 -2 14 -10 16 -16z m47 -32 c-3 -5 -11 -10 -16 -10 -6 0 -7 5 -4 10 3 6
11 10 16 10 6 0 7 -4 4 -10z m-45 -3 c0 -2 -9 -12 -20 -22 -24 -21 -27 -14 -4
9 15 15 24 20 24 13z m-259 -68 c3 -18 5 -25 16 -44 6 -12 14 -39 17 -61 5
-32 3 -41 -9 -41 -9 0 -15 9 -15 24 0 13 -4 23 -10 23 -6 0 -10 -41 -11 -102
0 -57 -3 -97 -6 -90 -2 6 -9 10 -14 6 -5 -3 -9 4 -9 16 0 13 -12 27 -31 38
-30 17 -31 18 -26 77 4 53 37 145 53 145 2 0 9 -10 15 -22 8 -19 9 -19 5 -3
-2 11 -7 28 -11 37 -5 13 -2 15 14 11 12 -3 22 -9 22 -14z m130 -357 c10 -29
14 -50 10 -47 -11 6 -41 93 -40 114 1 19 2 17 30 -67z m-211 -177 c0 -2 -9 -9
-20 -15 -22 -12 -51 -3 -31 9 12 8 51 12 51 6z m158 -65 c23 -23 42 -46 42
-50 0 -17 -121 -33 -153 -20 -18 7 -15 9 19 9 23 1 57 7 75 15 31 13 29 14
-49 11 -62 -2 -85 1 -94 12 -10 13 -7 20 15 39 16 13 23 24 16 24 -7 0 -21 -7
-31 -17 -17 -15 -18 -15 -18 2 0 10 3 16 6 12 4 -3 12 0 20 7 9 10 26 11 61 6
39 -7 58 -17 91 -50z m-205 -40 c3 -11 1 -18 -4 -14 -5 3 -9 12 -9 20 0 20 7
17 13 -6z"/>
<path d="M796 1652 c-3 -5 23 -6 57 -4 87 5 94 10 15 11 -37 1 -69 -3 -72 -7z"/>
<path d="M763 1583 c0 -16 1 -20 4 -10 2 9 9 17 14 17 19 0 99 -61 94 -71 -4
-5 -3 -9 2 -10 4 0 16 -2 26 -4 9 -2 15 1 12 6 -9 13 -131 99 -142 99 -5 0 -9
-12 -10 -27z"/>
<path d="M880 1575 c13 -14 26 -25 28 -25 3 0 -5 11 -18 25 -13 14 -26 25 -28
25 -3 0 5 -11 18 -25z"/>
<path d="M819 1483 l-24 -28 30 25 c17 14 32 26 34 28 2 1 0 2 -6 2 -5 0 -20
-12 -34 -27z"/>
<path d="M971 1445 c9 -11 21 -29 27 -40 6 -11 12 -14 12 -8 0 7 -12 25 -27
41 -16 15 -21 19 -12 7z"/>
<path d="M665 1387 c-28 -46 -30 -54 -11 -37 17 13 40 59 34 66 -2 1 -12 -12
-23 -29z"/>
<path d="M1124 1377 c3 -10 6 -23 6 -28 0 -6 5 -7 10 -4 6 3 11 1 11 -4 3 -20
4 -26 12 -38 4 -6 4 -18 1 -27 -3 -9 -1 -16 5 -16 14 0 15 -72 1 -120 l-9 -35
25 30 c63 76 88 96 118 92 28 -4 28 -3 22 37 -4 22 -14 50 -24 61 -13 16 -12
16 8 -2 29 -28 40 -119 24 -202 -5 -25 -4 -32 5 -26 7 4 10 9 7 12 -6 6 11 23
39 39 23 13 47 81 40 114 -10 42 -40 73 -76 77 -19 2 -70 5 -113 6 -69 2 -80
5 -87 22 -4 11 -8 16 -8 10 -1 -5 -6 -3 -12 5 -9 12 -10 12 -5 -3z m91 -67 c8
-16 14 -51 14 -77 l-2 -48 -7 55 c-4 31 -12 66 -19 78 -6 12 -9 22 -7 22 3 0
12 -13 21 -30z m64 -34 c-1 -17 -2 -16 -9 7 -5 16 -12 34 -17 41 -4 6 0 3 10
-7 9 -11 17 -29 16 -41z m97 19 c7 -19 13 -49 13 -67 -1 -27 -3 -24 -10 16 -4
27 -13 54 -18 59 -12 12 -15 27 -5 27 3 0 12 -16 20 -35z"/>
<path d="M828 1353 c-17 -20 -38 -58 -38 -69 0 -13 31 20 46 49 18 34 14 45
-8 20z"/>
<path d="M1079 1343 c-13 -17 -13 -17 6 -3 11 8 22 16 24 17 2 2 0 3 -6 3 -6
0 -17 -8 -24 -17z"/>
<path d="M1877 1305 c-3 -27 -3 -129 2 -225 9 -198 5 -531 -9 -759 -15 -238
-14 -250 22 -291 l30 -35 -6 500 c-7 524 -13 714 -25 805 l-7 55 -7 -50z"/>
<path d="M860 1282 c0 -6 -8 -13 -17 -15 -16 -4 -16 -5 -1 -6 18 -1 34 16 24
26 -3 4 -6 1 -6 -5z"/>
<path d="M739 1273 c-15 -4 -15 -7 0 -38 8 -19 21 -35 29 -35 10 0 9 4 -3 16
-10 11 -14 25 -11 40 4 13 5 23 4 23 -2 -1 -10 -3 -19 -6z"/>
<path d="M1105 1260 c3 -5 -1 -23 -10 -40 -8 -16 -12 -30 -7 -30 11 0 42 66
35 74 -10 10 -25 7 -18 -4z"/>
<path d="M827 1231 c-4 -17 -3 -21 5 -13 5 5 8 16 6 23 -3 8 -7 3 -11 -10z"/>
<path d="M543 1205 c0 -8 4 -12 9 -9 4 3 8 9 8 15 0 5 -4 9 -8 9 -5 0 -9 -7
-9 -15z"/>
<path d="M477 1193 c-4 -4 5 -12 20 -18 40 -17 47 -18 51 -6 2 6 -3 8 -12 5
-12 -5 -15 -2 -10 10 5 12 0 16 -18 16 -14 0 -28 -3 -31 -7z"/>
<path d="M909 1173 c-13 -16 -12 -17 4 -4 9 7 17 15 17 17 0 8 -8 3 -21 -13z"/>
<path d="M1040 1136 c0 -13 62 -70 77 -71 10 -1 35 -4 55 -6 25 -2 43 2 57 15
11 10 25 15 30 11 6 -3 11 1 11 9 0 8 10 17 23 19 12 2 5 4 -15 4 -23 0 -44
-7 -54 -18 -9 -10 -22 -15 -29 -13 -7 3 -23 0 -36 -6 -18 -10 -21 -10 -16 2 4
12 -1 14 -23 12 -20 -2 -33 3 -46 21 -17 22 -34 33 -34 21z"/>
<path d="M1474 1101 c-9 -9 -14 -10 -10 -3 8 14 -6 15 -53 6 -26 -5 -31 -11
-28 -30 4 -29 17 -44 17 -20 0 22 24 16 28 -7 2 -12 -3 -17 -17 -17 -12 0 -21
-4 -21 -10 0 -6 -20 -7 -47 -4 l-48 5 45 -18 c41 -17 45 -22 45 -52 0 -30 -11
-44 -43 -57 -3 -1 -12 -41 -15 -64 -3 -19 -20 -39 -29 -33 -5 2 -8 0 -8 -6 0
-10 -98 -81 -112 -81 -4 0 2 15 13 34 11 19 24 59 29 90 5 31 18 70 30 85 11
16 20 31 20 34 0 12 -52 -8 -64 -25 -8 -11 -19 -17 -24 -14 -5 3 -25 -25 -45
-62 -47 -92 -52 -109 -30 -115 15 -4 15 -5 2 -6 -15 -1 -15 -5 2 -38 10 -20
21 -51 25 -68 l6 -31 33 33 c35 35 70 42 108 21 46 -24 84 -26 117 -7 17 11
39 19 50 19 28 0 60 35 60 67 0 26 1 26 14 8 8 -11 12 -23 10 -27 -9 -15 4 -8
17 9 12 14 12 16 0 9 -9 -6 -12 -5 -9 5 3 8 10 13 16 12 6 -2 9 3 6 11 -3 8
-1 17 5 20 7 4 7 15 1 31 -5 14 -7 32 -4 40 9 21 -5 72 -15 57 -5 -9 -11 -4
-19 13 -7 15 -10 30 -7 35 3 5 -1 11 -7 13 -9 4 -8 6 2 6 12 1 15 9 12 35 -2
18 3 46 11 63 15 28 15 29 -18 39 -28 9 -37 8 -51 -5z m36 -12 c0 -6 -4 -7
-10 -4 -5 3 -10 11 -10 16 0 6 5 7 10 4 6 -3 10 -11 10 -16z m-225 -339 c-3
-5 -11 -10 -16 -10 -6 0 -7 5 -4 10 3 6 11 10 16 10 6 0 7 -4 4 -10z"/>
<path d="M790 1095 c-7 -8 -8 -15 -2 -15 5 0 15 7 22 15 7 8 8 15 2 15 -5 0
-15 -7 -22 -15z"/>
<path d="M1320 1075 c12 -14 12 -18 0 -25 -10 -6 -4 -9 17 -8 37 1 35 19 -4
37 -24 11 -25 11 -13 -4z"/>
<path d="M546 1040 c4 -19 13 -47 20 -62 10 -20 11 -27 2 -30 -7 -3 -3 -7 10
-10 19 -5 20 -4 11 14 -6 11 -20 44 -30 72 -15 40 -18 43 -13 16z"/>
<path d="M1145 1010 c-16 -17 -16 -20 -2 -20 8 0 25 -12 37 -27 l21 -28 -16
33 c-9 19 -14 40 -11 48 8 20 -8 17 -29 -6z"/>
<path d="M1570 899 c0 -5 5 -7 10 -4 6 3 10 8 10 11 0 2 -4 4 -10 4 -5 0 -10
-5 -10 -11z"/>
<path d="M945 870 c-8 -13 5 -13 25 0 13 8 13 10 -2 10 -9 0 -20 -4 -23 -10z"/>
<path d="M139 868 c-6 -11 -7 -109 -1 -104 3 4 7 29 7 57 0 42 -1 56 -6 47z"/>
<path d="M876 822 c-3 -5 1 -9 9 -9 8 0 12 4 9 9 -3 4 -7 8 -9 8 -2 0 -6 -4
-9 -8z"/>
<path d="M808 783 c7 -3 16 -2 19 1 4 3 -2 6 -13 5 -11 0 -14 -3 -6 -6z"/>
<path d="M1502 625 c0 -16 2 -22 5 -12 2 9 2 23 0 30 -3 6 -5 -1 -5 -18z"/>
<path d="M1032 610 c0 -14 2 -19 5 -12 2 6 2 18 0 25 -3 6 -5 1 -5 -13z"/>
<path d="M1400 620 c-9 -6 -10 -10 -3 -10 6 0 15 5 18 10 8 12 4 12 -15 0z"/>
<path d="M1480 560 c-4 -36 -8 -44 -23 -42 -14 2 -16 -2 -12 -21 7 -27 -7 -43
-27 -31 -6 4 -27 9 -47 10 -22 1 -29 -1 -21 -6 8 -5 18 -6 22 -4 4 3 8 0 8 -5
0 -6 8 -11 18 -12 9 -1 -1 -7 -22 -13 -22 -7 -41 -18 -42 -24 -1 -7 0 -8 3 -2
2 5 14 10 26 10 12 0 42 10 67 21 30 15 62 21 96 20 47 -2 124 19 124 34 0 3
-9 1 -20 -5 -12 -6 -30 -8 -42 -4 -11 3 -18 2 -15 -3 3 -5 -2 -9 -12 -9 -12 0
-16 8 -15 26 1 14 -1 17 -3 8 -2 -9 -11 -22 -20 -29 -12 -11 -17 -10 -28 4 -6
9 -16 13 -20 9 -5 -4 -5 -1 -1 6 4 7 10 11 14 9 4 -2 19 10 34 25 28 29 13 41
-16 13 -13 -14 -15 -11 -18 22 l-4 38 -4 -45z"/>
<path d="M935 530 c-22 -16 -45 -29 -52 -30 -6 0 -14 -3 -16 -7 -3 -5 25 -6
61 -4 37 2 59 6 50 8 -18 4 -19 27 -5 51 11 17 7 15 -38 -18z"/>
<path d="M1152 480 l-32 -17 32 -7 c17 -3 33 -4 36 -1 3 3 -3 5 -13 5 -17 0
-17 1 0 20 21 23 21 23 -23 0z"/>
<path d="M1280 459 c0 -8 59 -24 65 -17 2 2 -12 8 -31 14 -19 6 -34 8 -34 3z"/>
<path d="M1592 444 c-15 -11 -22 -25 -22 -50 0 -19 5 -34 10 -34 6 0 8 10 4
24 -4 18 1 30 23 50 30 28 21 35 -15 10z"/>
<path d="M1640 450 c0 -5 7 -10 15 -10 8 0 15 5 15 10 0 6 -7 10 -15 10 -8 0
-15 -4 -15 -10z"/>
<path d="M1684 398 c1 -35 4 -42 14 -32 16 16 15 36 -1 59 -13 16 -14 13 -13
-27z"/>
<path d="M1242 402 c-15 -32 -11 -37 10 -13 9 10 13 23 9 29 -3 6 -12 -1 -19
-16z"/>
<path d="M1288 413 c6 -2 18 -2 25 0 6 3 1 5 -13 5 -14 0 -19 -2 -12 -5z"/>
<path d="M610 338 c-12 -22 -12 -22 6 -6 10 10 15 20 12 24 -4 3 -12 -5 -18
-18z"/>
<path d="M205 339 c-4 -6 -5 -12 -2 -15 2 -3 7 2 10 11 7 17 1 20 -8 4z"/>
<path d="M1605 339 c-23 -5 -16 -7 29 -8 33 0 57 2 54 5 -10 9 -50 11 -83 3z"/>
<path d="M1705 270 c-3 -6 1 -7 9 -4 18 7 21 14 7 14 -6 0 -13 -4 -16 -10z"/>
<path d="M556 205 c-3 -8 -1 -15 4 -15 13 0 22 18 11 24 -5 3 -11 -1 -15 -9z"/>
<path d="M498 183 c7 -3 16 -2 19 1 4 3 -2 6 -13 5 -11 0 -14 -3 -6 -6z"/>
<path d="M637 83 c-4 -3 -7 -24 -7 -45 l0 -38 330 0 330 0 0 29 c0 64 19 61
-329 61 -175 0 -321 -3 -324 -7z m54 -25 c0 -10 2 -10 6 0 8 20 23 14 23 -10
1 -21 2 -22 14 -6 13 18 26 14 26 -6 0 -7 -11 -13 -25 -14 -14 -1 -25 3 -25 8
0 7 -7 7 -20 0 -18 -9 -20 -8 -20 15 0 25 19 37 21 13z m409 -4 c0 -12 4 -14
13 -7 17 15 47 12 47 -4 0 -19 17 -16 29 5 9 14 12 14 20 3 6 -10 10 -10 16
-1 6 9 10 9 16 -1 15 -25 10 -26 -81 -26 -49 1 -90 5 -90 10 0 4 6 5 13 1 10
-6 10 -4 0 7 -17 18 -16 29 2 29 8 0 15 -7 15 -16z m-309 -9 c8 19 9 19 6 1
-3 -29 -27 -33 -26 -4 1 20 2 21 7 3 l5 -20 8 20z m40 -2 c1 -16 2 -16 6 -2 2
10 14 17 30 17 18 0 21 -3 12 -9 -11 -7 -12 -11 -1 -17 8 -6 -2 -9 -28 -10
-34 -2 -40 1 -40 18 0 25 20 27 21 3z m119 -3 c0 -15 -6 -19 -25 -18 -15 2
-25 9 -25 18 0 9 10 16 25 18 19 1 25 -3 25 -18z m90 10 c-13 -9 -13 -11 0
-20 13 -8 12 -10 -2 -10 -10 0 -19 8 -19 18 -1 16 -2 16 -6 0 -6 -25 -33 -23
-33 2 0 16 7 20 38 20 28 0 33 -3 22 -10z"/>
</g>
</svg>
