<?xml version="1.0" standalone="no"?>
<!DOCTYPE svg PUBLIC "-//W3C//DTD SVG 20010904//EN"
 "http://www.w3.org/TR/2001/REC-SVG-20010904/DTD/svg10.dtd">
<svg version="1.0" xmlns="http://www.w3.org/2000/svg"
 width="210.000000pt" height="240.000000pt" viewBox="0 0 210.000000 240.000000"
 preserveAspectRatio="xMidYMid meet">

<g transform="translate(0.000000,240.000000) scale(0.100000,-0.100000)"
fill="#000000" stroke="none">
<path d="M80 2156 c0 -2 8 -10 18 -17 15 -13 16 -12 3 4 -13 16 -21 21 -21 13z"/>
<path d="M210 1935 c-7 -9 -11 -17 -9 -20 3 -2 10 5 17 15 14 24 10 26 -8 5z"/>
<path d="M506 1887 c3 -10 9 -15 12 -12 3 3 0 11 -7 18 -10 9 -11 8 -5 -6z"/>
<path d="M394 1868 c-7 -22 -7 -22 -16 -3 -6 15 -7 11 -3 -14 3 -18 5 -47 5
-64 0 -24 3 -28 12 -19 7 7 20 12 30 12 10 0 18 5 18 11 0 7 9 5 24 -5 l25
-16 -6 38 c-3 20 -9 39 -13 42 -3 3 -10 14 -14 24 -6 19 -7 19 -21 0 -13 -17
-14 -17 -15 -1 0 24 -17 21 -26 -5z"/>
<path d="M305 1860 c2 -4 -3 -16 -11 -26 -14 -17 -15 -17 -10 -1 10 32 -9 17
-42 -33 -19 -28 -30 -56 -26 -63 4 -6 4 -9 -1 -5 -9 8 -35 -9 -35 -23 0 -5 9
-13 20 -19 16 -9 24 -7 36 5 15 15 18 15 35 -1 11 -9 19 -13 19 -8 0 11 -42
39 -53 36 -4 -1 -1 11 8 28 9 16 13 30 10 30 -3 0 -1 9 5 20 6 11 15 18 20 15
5 -3 18 8 29 23 15 22 17 29 6 29 -8 0 -12 -3 -10 -7z"/>
<path d="M598 1843 c7 -12 12 -29 12 -38 0 -23 22 -43 42 -38 10 3 22 -4 30
-16 16 -27 31 -27 23 -1 -4 11 -2 20 4 20 18 0 0 29 -22 36 -12 3 -32 16 -44
27 -13 11 -23 17 -23 13 0 -5 -7 -2 -17 5 -15 13 -15 12 -5 -8z"/>
<path d="M219 1833 c-13 -16 -12 -17 4 -4 9 7 17 15 17 17 0 8 -8 3 -21 -13z"/>
<path d="M580 1784 c0 -8 5 -12 10 -9 6 4 8 11 5 16 -9 14 -15 11 -15 -7z"/>
<path d="M985 1781 c-3 -5 -1 -12 5 -16 5 -3 10 1 10 9 0 18 -6 21 -15 7z"/>
<path d="M350 1765 c0 -8 5 -15 10 -15 6 0 10 7 10 15 0 8 -4 15 -10 15 -5 0
-10 -7 -10 -15z"/>
<path d="M407 1733 c-4 -3 -7 -11 -7 -17 0 -6 5 -5 12 2 6 6 9 14 7 17 -3 3
-9 2 -12 -2z"/>
<path d="M460 1731 c0 -5 5 -13 10 -16 6 -3 10 -2 10 4 0 5 -4 13 -10 16 -5 3
-10 2 -10 -4z"/>
<path d="M120 1681 c-25 -9 -47 -17 -49 -18 -2 -1 7 -18 20 -37 18 -26 27 -32
36 -24 7 6 13 15 13 20 0 6 9 23 20 38 26 36 17 40 -40 21z"/>
<path d="M1891 1663 c7 -12 15 -20 18 -17 3 2 -3 12 -13 22 -17 16 -18 16 -5
-5z"/>
<path d="M1731 1643 c0 -10 3 -13 6 -5 7 17 21 15 27 -5 4 -14 4 -14 3 2 -3
26 -37 34 -36 8z"/>
<path d="M663 1555 c-18 -8 -33 -17 -33 -20 0 -5 70 21 79 30 9 9 -14 4 -46
-10z"/>
<path d="M784 1532 c21 -23 32 -29 37 -20 5 8 0 16 -13 21 -12 4 -29 13 -37
20 -9 6 -3 -3 13 -21z"/>
<path d="M580 1534 c-33 -13 -33 -14 -5 -8 17 3 34 10 40 15 11 11 8 11 -35
-7z"/>
<path d="M0 1518 c0 -4 4 -8 9 -8 6 0 12 4 15 8 3 5 -1 9 -9 9 -8 0 -15 -4
-15 -9z"/>
<path d="M240 1510 c8 -5 24 -10 34 -10 26 0 18 6 -19 14 -22 5 -26 4 -15 -4z"/>
<path d="M518 1513 c7 -3 16 -2 19 1 4 3 -2 6 -13 5 -11 0 -14 -3 -6 -6z"/>
<path d="M328 1493 c6 -2 18 -2 25 0 6 3 1 5 -13 5 -14 0 -19 -2 -12 -5z"/>
<path d="M408 1493 c6 -2 18 -2 25 0 6 3 1 5 -13 5 -14 0 -19 -2 -12 -5z"/>
<path d="M32 1453 c-11 -4 -10 -9 3 -22 43 -44 73 -80 83 -97 13 -23 23 -15
26 20 3 25 2 26 -15 10 -17 -16 -18 -15 -14 15 2 17 -1 31 -7 31 -5 0 -7 -7
-4 -16 6 -15 4 -15 -16 -2 -13 9 -23 26 -23 38 0 24 -11 32 -33 23z"/>
<path d="M98 1453 c-10 -2 -18 -13 -18 -24 0 -23 15 -17 30 12 6 10 9 18 8 18
-2 -1 -11 -3 -20 -6z"/>
<path d="M825 1450 c3 -5 8 -10 11 -10 2 0 4 5 4 10 0 6 -5 10 -11 10 -5 0 -7
-4 -4 -10z"/>
<path d="M1640 1350 c0 -5 5 -10 11 -10 5 0 7 5 4 10 -3 6 -8 10 -11 10 -2 0
-4 -4 -4 -10z"/>
<path d="M0 1326 c0 -20 8 -24 61 -32 l44 -6 -31 20 c-46 29 -74 36 -74 18z"/>
<path d="M1122 1300 c-18 -29 -15 -38 4 -12 9 13 14 25 12 27 -2 2 -9 -5 -16
-15z"/>
<path d="M806 1284 c-4 -10 -2 -13 7 -8 9 6 9 4 1 -7 -6 -8 -14 -27 -17 -44
-3 -16 -15 -57 -26 -89 -12 -33 -20 -61 -18 -63 2 -1 18 17 35 41 17 24 28 46
25 50 -3 3 1 6 10 6 9 0 17 5 17 11 0 5 -5 7 -12 3 -7 -4 -8 -3 -4 5 6 9 11 9
22 0 8 -6 14 -7 14 -3 0 5 -9 15 -20 22 -11 7 -20 18 -20 25 0 8 3 8 9 -2 18
-29 28 -1 12 34 -18 38 -26 43 -35 19z"/>
<path d="M992 1241 c-22 -27 -31 -48 -27 -59 5 -13 8 -14 14 -3 5 7 12 13 17
13 5 0 8 4 7 9 -2 4 5 5 14 2 11 -4 14 -3 9 5 -5 8 -2 10 8 6 17 -7 21 6 7 22
-5 5 -11 17 -13 28 -2 15 -9 10 -36 -23z"/>
<path d="M17 1219 c-22 -13 -23 -49 -1 -49 14 0 14 3 4 15 -11 13 -8 15 14 15
15 0 36 -5 47 -10 16 -9 19 -7 19 15 0 22 -4 25 -32 25 -18 0 -41 -5 -51 -11z"/>
<path d="M301 1168 c-17 -27 -9 -33 13 -9 10 10 13 21 9 24 -5 3 -15 -3 -22
-15z"/>
<path d="M97 1142 c-11 -12 -16 -25 -13 -31 4 -6 -5 -20 -19 -33 -16 -14 -25
-33 -26 -52 0 -17 -3 -25 -6 -19 -9 24 -34 -15 -31 -49 4 -41 25 -48 34 -11 7
32 52 114 68 125 6 4 16 6 22 4 6 -3 17 7 23 21 10 21 9 25 -8 30 -11 3 -21
12 -23 20 -2 12 -7 11 -21 -5z m38 -31 c3 -5 1 -12 -5 -16 -5 -3 -10 1 -10 9
0 18 6 21 15 7z"/>
<path d="M723 1093 c-15 -32 -16 -43 -4 -43 7 0 31 51 31 66 0 14 -17 -1 -27
-23z"/>
<path d="M1164 1095 c-5 -12 -10 -13 -19 -5 -11 9 -12 7 -8 -9 3 -12 9 -18 14
-15 11 7 32 44 24 44 -3 0 -8 -7 -11 -15z"/>
<path d="M324 1042 c4 -7 2 -12 -3 -12 -6 0 -11 -6 -11 -14 0 -8 -7 -22 -16
-30 -8 -9 -11 -16 -6 -16 17 0 52 69 40 76 -7 4 -8 3 -4 -4z"/>
<path d="M371 1034 c0 -11 3 -14 6 -6 3 7 2 16 -1 19 -3 4 -6 -2 -5 -13z"/>
<path d="M1028 998 c21 -22 22 -22 39 -4 17 18 17 19 1 13 -10 -4 -18 -2 -18
3 0 6 -10 10 -22 10 l-22 0 22 -22z"/>
<path d="M1207 995 c-20 -28 -19 -29 17 -15 17 6 24 14 20 25 -8 21 -16 19
-37 -10z"/>
<path d="M316 973 c-6 -14 -5 -15 5 -6 7 7 10 15 7 18 -3 3 -9 -2 -12 -12z"/>
<path d="M93 929 c-28 -33 -28 -40 -4 -66 10 -11 26 -34 35 -51 9 -18 21 -32
26 -32 14 0 12 18 -2 22 -6 2 -17 38 -22 79 l-11 75 -22 -27z"/>
<path d="M1157 937 c-18 -23 -23 -47 -8 -47 5 0 11 9 14 21 3 12 10 18 16 14
13 -7 14 5 3 22 -5 8 -12 5 -25 -10z"/>
<path d="M1200 948 c0 -22 17 -42 24 -29 4 6 2 11 -4 11 -6 0 -9 4 -5 9 3 5 1
12 -5 16 -5 3 -10 0 -10 -7z"/>
<path d="M575 903 c-4 -29 -13 -59 -19 -67 -22 -30 -152 -126 -169 -126 -9 0
-27 11 -38 24 -18 20 -28 24 -53 19 -17 -4 -39 -15 -48 -25 -9 -11 -19 -19
-22 -19 -19 3 -28 -1 -52 -24 -30 -28 -47 -26 -19 1 15 16 16 19 2 29 -9 6
-19 24 -23 40 l-7 28 -15 -28 c-11 -22 -12 -33 -3 -47 6 -10 9 -24 5 -30 -5
-7 -3 -8 6 -3 9 5 11 1 6 -16 -3 -13 -3 -19 0 -12 9 21 35 3 29 -21 -3 -15 -1
-14 8 5 6 14 18 33 26 43 15 18 41 22 41 5 0 -5 -4 -8 -9 -4 -5 3 -12 1 -16
-5 -3 -5 -1 -10 6 -10 6 0 9 -8 6 -20 -3 -13 -1 -18 6 -13 6 4 8 -2 5 -15 l-6
-22 28 20 c16 11 31 34 35 51 6 28 8 29 20 13 7 -10 11 -23 9 -29 -8 -19 68
-13 88 7 22 22 23 32 3 24 -26 -10 -16 19 13 36 21 13 32 14 47 5 18 -9 18 -9
7 5 -10 13 -10 18 -1 24 8 4 9 3 5 -4 -4 -7 -2 -12 3 -12 6 0 11 5 11 10 0 6
6 10 13 9 6 -1 19 0 27 4 40 15 60 15 60 0 0 -9 6 -13 14 -10 7 3 22 -1 33 -8
17 -12 19 -11 21 13 6 74 1 106 -20 143 l-22 40 -15 -28 c-9 -18 -16 -23 -19
-14 -2 7 0 16 5 20 6 3 7 15 3 26 -6 15 -10 7 -15 -32z m-54 -140 c-8 -15 -10
-15 -11 -2 0 17 10 32 18 25 2 -3 -1 -13 -7 -23z m-241 -80 c0 -11 -50 -57
-50 -46 0 14 30 53 41 53 5 0 9 -3 9 -7z"/>
<path d="M532 915 c0 -16 2 -22 5 -12 2 9 2 23 0 30 -3 6 -5 -1 -5 -18z"/>
<path d="M460 912 c0 -4 7 -16 15 -26 15 -19 15 -19 15 1 0 11 -7 23 -15 27
-8 3 -15 2 -15 -2z"/>
<path d="M833 884 c-18 -19 -16 -44 7 -79 11 -16 20 -37 20 -46 0 -9 7 -23 17
-30 15 -13 15 -12 5 8 -18 33 -15 35 26 18 l37 -16 -27 23 c-26 23 -55 73 -67
114 -5 18 -8 20 -18 8z"/>
<path d="M448 865 c-3 -14 -1 -25 3 -25 5 0 9 11 9 25 0 14 -2 25 -4 25 -2 0
-6 -11 -8 -25z"/>
<path d="M1192 845 c0 -16 2 -22 5 -12 2 9 2 23 0 30 -3 6 -5 -1 -5 -18z"/>
<path d="M1230 788 c0 -16 20 -47 20 -33 0 6 5 3 10 -5 14 -21 13 5 0 31 -12
21 -30 26 -30 7z"/>
<path d="M920 720 c8 -5 20 -10 25 -10 6 0 3 5 -5 10 -8 5 -19 10 -25 10 -5 0
-3 -5 5 -10z"/>
<path d="M1298 637 c-35 -39 -39 -64 -7 -52 12 5 53 84 46 91 -1 1 -19 -17
-39 -39z"/>
<path d="M182 626 c-17 -37 -15 -45 4 -18 8 12 14 27 12 33 -2 6 -9 -1 -16
-15z"/>
<path d="M583 621 c-10 -16 -9 -20 3 -25 9 -3 21 -3 27 1 6 4 8 0 4 -10 -5
-14 -2 -14 28 -1 36 15 55 5 30 -16 -8 -7 -12 -16 -9 -21 10 -16 -9 -9 -23 9
-13 15 -13 15 -3 -5 6 -13 17 -23 25 -23 8 0 15 -4 15 -10 0 -5 5 -10 11 -10
7 0 10 12 7 30 -4 26 -2 29 15 24 17 -5 19 -3 14 17 -4 13 -7 26 -7 29 0 4
-15 4 -34 2 -21 -2 -44 2 -58 12 -28 20 -31 20 -45 -3z"/>
<path d="M1175 620 c-3 -5 -12 -7 -19 -4 -8 3 -22 -3 -32 -14 -11 -10 -27 -22
-36 -25 -18 -6 -25 -51 -10 -60 4 -3 22 -2 40 0 30 5 31 6 15 19 -17 13 -17
14 1 7 14 -5 17 -3 11 7 -5 9 -4 11 3 6 7 -4 12 -16 12 -27 0 -10 5 -19 11
-19 6 0 9 9 6 20 -3 11 -1 18 4 14 5 -3 9 9 9 25 0 17 5 31 11 31 7 0 9 -9 6
-21 -3 -12 -3 -18 1 -15 3 4 12 -4 19 -16 12 -23 12 -22 10 7 -1 16 -11 39
-23 52 -24 25 -30 28 -39 13z"/>
<path d="M0 543 c0 -9 3 -13 7 -10 3 4 12 2 20 -5 11 -8 12 -7 7 5 -8 22 -34
30 -34 10z"/>
<path d="M122 515 c-6 -13 -7 -27 -3 -30 5 -2 11 8 14 23 7 35 3 38 -11 7z"/>
<path d="M445 506 c0 -22 4 -31 9 -26 11 11 36 -6 36 -23 0 -6 -7 -2 -16 9
-15 18 -15 18 -9 -8 3 -19 1 -28 -7 -29 -7 -1 1 -4 17 -8 23 -5 32 -3 37 11 8
20 6 34 -4 31 -3 -1 -9 4 -12 12 -7 20 3 19 26 -2 17 -15 19 -15 36 0 10 10
25 17 33 17 15 1 -118 49 -136 50 -5 0 -10 -16 -10 -34z"/>
<path d="M0 492 c0 -16 28 -34 34 -23 4 6 -3 15 -14 21 -11 6 -20 7 -20 2z"/>
<path d="M620 490 c0 -8 5 -22 10 -30 9 -13 10 -13 10 0 0 8 -5 22 -10 30 -9
13 -10 13 -10 0z"/>
<path d="M174 479 c-3 -6 -1 -16 5 -22 8 -8 11 -6 12 9 0 16 2 15 10 -5 5 -13
12 -21 15 -18 7 7 -14 47 -26 47 -5 0 -12 -5 -16 -11z"/>
<path d="M66 445 c-35 -37 -52 -45 -43 -21 3 8 0 19 -6 24 -9 8 -12 3 -12 -19
-1 -16 3 -29 9 -29 5 0 6 -3 3 -7 -4 -3 -2 -12 4 -19 8 -10 7 -17 -4 -28 -18
-19 -10 -65 21 -116 12 -19 22 -39 22 -45 0 -5 -9 5 -20 23 -11 17 -22 32 -24
32 -14 0 9 -137 26 -159 25 -32 23 -52 -3 -21 l-20 25 16 -39 c8 -21 15 -40
15 -42 0 -2 11 -4 25 -4 23 0 25 4 25 43 0 23 3 60 5 82 4 30 3 35 -4 20 -9
-20 -10 -20 -10 1 -1 12 -8 40 -16 63 -8 22 -10 41 -6 41 5 0 12 -7 15 -16 3
-8 10 -12 16 -9 7 4 6 13 -1 27 -6 11 -9 31 -6 45 3 19 1 23 -12 18 -12 -5
-13 -3 -4 6 15 15 29 5 37 -28 10 -41 39 -93 52 -93 6 0 14 -9 17 -20 3 -11 1
-20 -3 -20 -5 0 -11 -8 -13 -18 -3 -10 -5 -6 -6 11 0 15 -5 27 -11 27 -16 0
-11 -37 10 -77 19 -37 20 -37 20 -10 0 15 4 27 10 27 5 0 7 -12 4 -27 -3 -16
2 -44 10 -63 8 -19 15 -28 16 -20 0 13 1 13 10 0 7 -10 10 -11 10 -2 0 10 4
10 20 0 17 -11 22 -10 30 2 5 8 10 23 10 33 0 10 4 15 10 12 21 -13 9 16 -16
38 -14 12 -33 36 -41 52 l-16 30 22 -19 c26 -23 30 -3 5 32 -18 26 -9 29 20 4
l21 -17 -19 23 c-18 21 -18 24 -3 39 14 14 14 19 1 44 -8 16 -15 32 -15 36 0
5 -27 15 -59 25 -53 14 -58 14 -53 0 4 -10 2 -13 -5 -8 -7 4 -12 14 -12 21 0
8 -12 18 -26 21 -15 4 -23 12 -20 19 3 8 -2 16 -10 19 -13 5 -12 11 6 36 29
41 16 38 -24 -5z m-16 -140 c0 -8 -2 -15 -4 -15 -2 0 -6 7 -10 15 -3 8 -1 15
4 15 6 0 10 -7 10 -15z m130 -10 c0 -8 -4 -15 -10 -15 -5 0 -10 7 -10 15 0 8
5 15 10 15 6 0 10 -7 10 -15z m-17 -35 c3 -11 2 -20 -3 -20 -8 0 -20 24 -20
41 0 17 17 1 23 -21z"/>
<path d="M680 470 c0 -7 -7 -10 -15 -6 -18 7 -20 -5 -3 -22 20 -20 47 -15 41
8 -6 23 -23 37 -23 20z"/>
<path d="M233 451 c-1 -11 9 -23 23 -30 42 -19 47 -12 16 19 -36 35 -37 36
-39 11z"/>
<path d="M1085 404 c-33 -18 -64 -36 -70 -39 -6 -3 -5 -7 3 -11 6 -3 10 -9 7
-14 -3 -4 2 -23 10 -41 l16 -34 -6 35 c-5 26 -4 31 4 20 8 -12 11 -12 11 -1 0
11 3 11 16 0 25 -21 35 -57 39 -149 3 -79 3 -83 -11 -57 -8 15 -17 27 -20 27
-2 0 0 -9 6 -19 13 -26 13 -34 -2 -25 -8 5 -9 2 -5 -10 4 -10 7 -24 7 -32 0
-9 4 -12 10 -9 5 3 12 -6 16 -20 3 -14 13 -25 21 -25 9 0 13 6 10 15 -4 8 -2
17 4 21 5 3 7 15 4 27 -6 21 -6 22 9 3 19 -23 20 -20 5 23 -6 17 -15 31 -20
31 -5 0 -9 7 -9 16 0 8 -4 12 -10 9 -5 -3 -10 -1 -10 4 0 16 16 13 30 -4 7 -8
17 -15 22 -15 6 0 5 7 -2 15 -7 8 -10 22 -6 30 3 9 2 13 -4 10 -5 -3 -16 8
-25 24 -11 22 -12 29 -2 26 9 -4 13 7 13 35 1 22 -2 40 -6 40 -4 0 -14 18 -23
40 -8 22 -12 40 -8 40 4 0 13 -16 20 -35 7 -19 16 -35 21 -35 11 0 -7 47 -27
71 -12 14 -10 18 9 32 37 26 17 18 -47 -19z m42 -346 c-3 -8 -6 -5 -6 6 -1 11
2 17 5 13 3 -3 4 -12 1 -19z"/>
<path d="M900 401 c-15 -4 -24 -14 -24 -24 1 -9 -2 -14 -7 -11 -5 3 -9 3 -9 0
0 -2 -3 -11 -6 -19 -4 -12 0 -14 15 -10 12 3 21 10 21 15 0 6 6 5 15 -2 8 -6
19 -9 26 -5 8 6 8 2 -1 -14 -6 -12 -9 -27 -6 -34 2 -7 5 -4 5 7 1 12 6 16 15
13 10 -4 13 -1 9 9 -3 8 -2 14 3 13 22 -4 44 2 44 12 0 5 -4 8 -10 4 -5 -3
-16 8 -25 25 -16 31 -22 33 -65 21z"/>
<path d="M536 361 c-3 -4 -19 -11 -37 -15 -26 -5 -29 -9 -22 -28 4 -13 7 -41
5 -62 -2 -37 -1 -38 14 -20 15 18 15 17 10 -16 l-5 -35 19 35 c10 19 19 43 20
53 0 9 5 17 11 17 6 0 8 7 5 17 -4 9 -1 20 5 24 7 4 9 14 6 23 -7 17 -23 21
-31 7z m4 -53 c0 -5 -7 -16 -15 -24 -13 -14 -16 -14 -21 0 -9 24 3 47 21 40 8
-3 15 -10 15 -16z"/>
<path d="M580 370 c0 -3 13 -30 29 -61 29 -59 44 -63 56 -18 7 28 -5 42 -45
54 -14 4 -28 13 -32 19 -4 6 -8 9 -8 6z"/>
<path d="M1392 345 c0 -16 2 -22 5 -12 2 9 2 23 0 30 -3 6 -5 -1 -5 -18z"/>
<path d="M990 313 c0 -15 -2 -16 -10 -3 -6 9 -10 10 -10 3 0 -7 9 -17 20 -23
17 -9 20 -8 20 9 0 11 -4 23 -10 26 -5 3 -10 -2 -10 -12z"/>
<path d="M696 294 c-11 -8 -13 -14 -7 -19 6 -3 11 -16 12 -28 0 -15 2 -17 6
-7 3 8 11 18 17 22 6 4 11 12 11 18 0 5 5 10 10 9 6 0 9 -7 7 -15 -2 -8 2 -14
8 -14 5 0 10 7 10 15 0 8 8 15 17 15 9 0 13 3 9 8 -13 12 -82 10 -100 -4z"/>
<path d="M602 280 c0 -14 2 -19 5 -12 2 6 2 18 0 25 -3 6 -5 1 -5 -13z"/>
<path d="M1520 243 c0 -22 2 -25 10 -13 13 20 13 40 0 40 -5 0 -10 -12 -10
-27z"/>
<path d="M1551 252 c-7 -13 -10 -28 -7 -35 2 -7 5 -5 5 5 1 9 6 18 13 20 6 2
9 11 6 18 -3 11 -8 9 -17 -8z"/>
<path d="M1710 241 c0 -11 4 -22 9 -25 5 -3 9 6 9 19 0 14 -4 25 -9 25 -5 0
-9 -9 -9 -19z"/>
<path d="M1751 250 c-14 -8 -8 -40 7 -40 5 0 15 6 21 14 15 17 -8 39 -28 26z
m15 -27 c-10 -10 -19 5 -10 18 6 11 8 11 12 0 2 -7 1 -15 -2 -18z"/>
<path d="M1797 253 c-3 -5 -1 -17 4 -28 8 -22 10 -20 14 13 2 21 -9 30 -18 15z"/>
<path d="M545 240 c3 -5 11 -10 16 -10 6 0 7 5 4 10 -3 6 -11 10 -16 10 -6 0
-7 -4 -4 -10z"/>
<path d="M1592 230 c0 -14 2 -19 5 -12 2 6 2 18 0 25 -3 6 -5 1 -5 -13z"/>
<path d="M1611 233 c0 -11 3 -13 6 -5 7 17 21 15 26 -5 4 -14 5 -12 6 5 1 16
-5 22 -19 22 -13 0 -20 -6 -19 -17z"/>
<path d="M1662 236 c4 -28 38 -30 38 -3 0 18 -2 19 -10 7 -9 -13 -11 -13 -21
0 -8 13 -10 12 -7 -4z"/>
<path d="M1346 198 c3 -13 13 -34 21 -48 l14 -25 -7 25 c-11 41 -23 70 -29 70
-4 0 -3 -10 1 -22z"/>
<path d="M540 170 c0 -5 5 -10 11 -10 5 0 7 5 4 10 -3 6 -8 10 -11 10 -2 0 -4
-4 -4 -10z"/>
<path d="M1628 163 c7 -3 16 -2 19 1 4 3 -2 6 -13 5 -11 0 -14 -3 -6 -6z"/>
<path d="M1670 160 c-8 -5 -10 -10 -5 -10 6 0 17 5 25 10 8 5 11 10 5 10 -5 0
-17 -5 -25 -10z"/>
<path d="M561 32 c-37 -24 -40 -27 -20 -30 14 -3 31 6 46 23 35 37 24 40 -26
7z"/>
<path d="M373 25 l-28 -24 53 -1 c43 0 52 3 52 18 1 16 1 16 14 0 21 -29 40
-22 19 7 -20 27 -39 32 -46 13 -4 -10 -6 -10 -6 0 -1 20 -28 14 -58 -13z"/>
</g>
</svg>
