<?xml version="1.0" standalone="no"?>
<!DOCTYPE svg PUBLIC "-//W3C//DTD SVG 20010904//EN"
 "http://www.w3.org/TR/2001/REC-SVG-20010904/DTD/svg10.dtd">
<svg version="1.0" xmlns="http://www.w3.org/2000/svg"
 width="178.000000pt" height="283.000000pt" viewBox="0 0 178.000000 283.000000"
 preserveAspectRatio="xMidYMid meet">

<g transform="translate(0.000000,283.000000) scale(0.100000,-0.100000)"
fill="#000000" stroke="none">
<path d="M1068 2648 c4 -28 2 -30 -17 -25 -25 6 -33 -3 -20 -23 6 -10 9 -11 9
-2 0 6 6 12 14 12 8 0 17 -6 19 -12 3 -7 6 6 6 29 1 23 -3 44 -7 47 -5 3 -6
-9 -4 -26z"/>
<path d="M793 2655 c-10 -11 -10 -15 0 -19 8 -3 2 -14 -16 -30 -15 -14 -24
-26 -18 -26 17 0 60 60 55 75 -7 18 -6 18 -21 0z"/>
<path d="M649 2623 c-13 -16 -12 -17 4 -4 9 7 17 15 17 17 0 8 -8 3 -21 -13z"/>
<path d="M1136 2627 c3 -10 9 -15 12 -12 3 3 0 11 -7 18 -10 9 -11 8 -5 -6z"/>
<path d="M928 2616 c-15 -8 -29 -12 -31 -10 -3 3 -7 -2 -10 -11 -8 -20 7 -19
24 1 7 8 20 14 29 11 8 -2 21 2 28 10 17 18 -4 18 -40 -1z"/>
<path d="M824 2598 l-19 -23 23 19 c21 18 27 26 19 26 -2 0 -12 -10 -23 -22z"/>
<path d="M849 2583 c-13 -16 -12 -17 4 -4 9 7 17 15 17 17 0 8 -8 3 -21 -13z"/>
<path d="M985 2590 c-17 -8 -17 -9 7 -7 15 1 24 5 22 9 -3 4 -6 8 -7 7 -1 0
-11 -4 -22 -9z"/>
<path d="M1130 2590 c-9 -6 -10 -10 -3 -10 6 0 15 5 18 10 8 12 4 12 -15 0z"/>
<path d="M941 2574 c0 -11 3 -14 6 -6 3 7 2 16 -1 19 -3 4 -6 -2 -5 -13z"/>
<path d="M1049 2563 c-13 -16 -12 -17 4 -4 9 7 17 15 17 17 0 8 -8 3 -21 -13z"/>
<path d="M1007 2489 c4 -13 8 -18 11 -10 2 7 -1 18 -6 23 -8 8 -9 4 -5 -13z"/>
<path d="M1185 2496 c-2 -6 -5 -22 -7 -36 -4 -25 -4 -25 -21 8 -12 22 -25 32
-41 32 -19 0 -24 -7 -30 -37 -3 -21 -6 -53 -6 -70 0 -44 27 -44 38 -1 l8 32
13 -32 c11 -27 19 -32 47 -32 28 0 34 4 34 23 1 21 2 20 16 -5 11 -22 22 -28
49 -28 47 0 64 8 80 41 22 41 18 65 -12 89 -47 37 -113 7 -126 -55 -2 -11 -5
3 -6 31 -1 39 -5 51 -17 51 -9 0 -18 -5 -19 -11z m141 -62 c-3 -9 -6 -20 -6
-25 0 -5 -9 -9 -20 -9 -15 0 -20 7 -20 25 0 20 5 25 26 25 20 0 25 -4 20 -16z"/>
<path d="M462 2493 c-16 -6 -42 -57 -42 -83 0 -29 35 -60 69 -60 60 0 105 95
63 133 -18 16 -63 21 -90 10z m58 -63 c0 -25 -4 -30 -25 -30 -21 0 -25 5 -25
30 0 25 4 30 25 30 21 0 25 -5 25 -30z"/>
<path d="M639 2478 c0 -13 -4 -47 -8 -75 -7 -51 -6 -53 16 -53 17 0 23 6 24
23 1 15 3 17 6 6 3 -11 11 -15 24 -12 18 5 21 9 23 36 1 6 6 15 11 20 6 4 3
11 -7 18 -10 5 -18 21 -18 34 0 22 -5 25 -35 25 -29 0 -35 -4 -36 -22z"/>
<path d="M735 2480 c-4 -12 -1 -27 5 -35 7 -8 10 -22 6 -30 -3 -8 -1 -25 5
-37 l10 -23 -5 23 c-3 15 0 22 7 19 7 -2 11 -12 11 -21 -1 -9 2 -16 7 -16 11
0 11 71 0 89 -6 10 -10 10 -16 1 -11 -17 -26 9 -19 33 3 9 3 17 0 17 -2 0 -8
-9 -11 -20z m45 -56 c0 -8 -4 -12 -10 -9 -5 3 -10 10 -10 16 0 5 5 9 10 9 6 0
10 -7 10 -16z"/>
<path d="M818 2493 c12 -2 30 -2 40 0 9 3 -1 5 -23 4 -22 0 -30 -2 -17 -4z"/>
<path d="M1038 2493 c6 -2 18 -2 25 0 6 3 1 5 -13 5 -14 0 -19 -2 -12 -5z"/>
<path d="M980 2479 c0 -5 5 -7 10 -4 6 3 10 8 10 11 0 2 -4 4 -10 4 -5 0 -10
-5 -10 -11z"/>
<path d="M1032 2460 c0 -14 2 -19 5 -12 2 6 2 18 0 25 -3 6 -5 1 -5 -13z"/>
<path d="M838 2463 c6 -2 18 -2 25 0 6 3 1 5 -13 5 -14 0 -19 -2 -12 -5z"/>
<path d="M900 2454 c0 -8 5 -12 10 -9 6 4 8 11 5 16 -9 14 -15 11 -15 -7z"/>
<path d="M800 2449 c0 -5 5 -7 10 -4 6 3 10 8 10 11 0 2 -4 4 -10 4 -5 0 -10
-5 -10 -11z"/>
<path d="M965 2450 c3 -5 8 -10 11 -10 2 0 4 5 4 10 0 6 -5 10 -11 10 -5 0 -7
-4 -4 -10z"/>
<path d="M1061 2444 c0 -11 3 -14 6 -6 3 7 2 16 -1 19 -3 4 -6 -2 -5 -13z"/>
<path d="M843 2443 c9 -2 23 -2 30 0 6 3 -1 5 -18 5 -16 0 -22 -2 -12 -5z"/>
<path d="M800 2401 c0 -24 1 -24 15 -5 18 24 19 31 0 31 -9 0 -15 -10 -15 -26z"/>
<path d="M930 2409 c-7 -11 -9 -23 -6 -27 3 -3 6 0 6 7 0 7 4 10 9 6 6 -3 9 4
8 15 -2 25 -4 25 -17 -1z"/>
<path d="M890 2365 c0 -8 4 -15 10 -15 5 0 7 7 4 15 -4 8 -8 15 -10 15 -2 0
-4 -7 -4 -15z"/>
<path d="M800 2358 c0 -4 14 -8 30 -8 17 0 30 2 30 4 0 2 -13 6 -30 8 -16 3
-30 1 -30 -4z"/>
<path d="M1020 2359 c0 -5 9 -9 20 -9 11 0 20 2 20 4 0 2 -9 6 -20 9 -11 3
-20 1 -20 -4z"/>
<path d="M1378 2323 c-12 -3 -18 -14 -18 -34 0 -24 -4 -29 -25 -29 -20 0 -25
5 -25 25 0 18 -5 25 -19 25 -17 0 -20 -9 -23 -75 -2 -60 0 -74 10 -70 8 3 18
5 23 5 5 0 9 7 9 15 0 9 9 15 25 15 18 0 25 -5 25 -20 0 -13 7 -20 20 -20 18
0 20 7 20 85 0 47 -1 84 -2 84 -2 -1 -11 -3 -20 -6z"/>
<path d="M1488 2323 c6 -2 18 -2 25 0 6 3 1 5 -13 5 -14 0 -19 -2 -12 -5z"/>
<path d="M368 2313 c7 -3 16 -2 19 1 4 3 -2 6 -13 5 -11 0 -14 -3 -6 -6z"/>
<path d="M432 2273 c-24 -113 -25 -123 -9 -123 8 0 17 9 20 20 6 24 47 28 47
5 0 -8 7 -15 16 -15 15 0 16 9 10 71 -3 39 -9 75 -12 80 -3 5 -18 9 -34 9 -26
0 -29 -4 -38 -47z m48 -23 c0 -11 -7 -20 -15 -20 -15 0 -21 21 -8 33 12 13 23
7 23 -13z"/>
<path d="M549 2273 c-1 -27 -3 -60 -5 -75 -3 -27 -1 -28 42 -28 38 0 44 3 44
21 0 18 -4 20 -25 15 -25 -6 -25 -5 -25 54 0 47 -3 60 -15 60 -11 0 -15 -12
-16 -47z"/>
<path d="M646 2298 c-10 -39 -7 -113 6 -126 17 -17 53 -15 76 6 14 11 24 37
30 80 9 61 8 62 -15 62 -12 0 -22 -3 -22 -7 1 -5 1 -25 0 -45 -1 -30 -5 -38
-20 -38 -16 0 -18 6 -13 45 4 40 2 45 -16 45 -12 0 -22 -9 -26 -22z"/>
<path d="M819 2309 c-28 -10 -49 -46 -49 -84 0 -34 46 -67 82 -60 17 4 28 2
28 -4 0 -6 7 -11 15 -11 9 0 14 10 14 28 0 15 3 43 6 62 5 27 2 39 -12 52 -25
22 -54 28 -84 17z m61 -55 c0 -22 -3 -24 -14 -15 -16 14 -32 -2 -20 -20 4 -7
-1 -10 -12 -7 -14 2 -18 10 -15 28 6 46 61 58 61 14z"/>
<path d="M1219 2283 l-1 -38 -14 33 c-12 27 -19 32 -47 32 l-32 0 -3 -70 c-3
-65 -2 -70 17 -70 17 0 21 7 22 33 l1 32 10 -32 c9 -27 16 -33 38 -33 38 0 47
15 49 88 2 57 1 62 -18 62 -17 0 -21 -7 -22 -37z"/>
<path d="M1465 2311 c6 -11 4 -13 -7 -8 -18 7 -38 -11 -37 -32 0 -10 4 -7 9 6
12 30 43 20 35 -11 -5 -15 -4 -17 3 -7 6 8 20 12 37 9 14 -3 23 -2 18 2 -4 5
-17 10 -28 12 -11 2 -20 8 -20 15 0 6 -4 15 -9 20 -6 5 -6 2 -1 -6z"/>
<path d="M301 2294 c0 -11 3 -14 6 -6 3 7 2 16 -1 19 -3 4 -6 -2 -5 -13z"/>
<path d="M930 2252 c0 -44 5 -63 18 -75 46 -42 92 -3 92 78 0 42 -3 55 -15 55
-11 0 -15 -12 -15 -45 0 -38 -3 -45 -20 -45 -17 0 -20 7 -20 45 0 38 -3 45
-20 45 -18 0 -20 -7 -20 -58z"/>
<path d="M1060 2293 c0 -10 -3 -42 -6 -70 -7 -52 -6 -53 20 -53 24 0 26 4 26
39 0 21 3 53 6 70 6 28 4 31 -20 31 -18 0 -26 -5 -26 -17z"/>
<path d="M1411 2234 c0 -11 3 -14 6 -6 3 7 2 16 -1 19 -3 4 -6 -2 -5 -13z"/>
<path d="M1437 2235 c-4 -8 -3 -16 1 -19 4 -3 9 4 9 15 2 23 -3 25 -10 4z"/>
<path d="M1098 2103 c7 -3 16 -2 19 1 4 3 -2 6 -13 5 -11 0 -14 -3 -6 -6z"/>
<path d="M1185 2080 c22 -11 46 -30 53 -41 8 -12 18 -67 23 -123 5 -55 14
-113 19 -129 8 -24 7 -26 -8 -18 -9 5 -39 12 -67 16 l-50 8 28 -22 c36 -30 76
-99 87 -152 l9 -44 -3 52 c-2 29 -11 64 -21 80 -18 27 -18 28 1 12 27 -23 45
-32 43 -22 -4 22 3 24 29 8 26 -18 27 -18 10 1 -16 18 -15 19 50 19 l67 0 3
44 c3 41 2 43 -13 27 -9 -9 -21 -14 -26 -11 -5 4 -9 -1 -9 -9 0 -8 -8 -17 -17
-19 -17 -4 -17 -5 0 -6 34 -2 16 -21 -20 -20 -32 0 -35 2 -18 10 16 7 14 9
-12 6 -34 -4 -55 18 -25 26 13 3 11 5 -5 6 -27 1 -30 13 -39 131 -9 127 -30
164 -104 184 -14 3 -7 -3 15 -14z m105 -362 c0 -6 -6 -5 -15 2 -8 7 -15 14
-15 16 0 2 7 1 15 -2 8 -4 15 -11 15 -16z"/>
<path d="M748 2083 c7 -3 16 -2 19 1 4 3 -2 6 -13 5 -11 0 -14 -3 -6 -6z"/>
<path d="M645 2050 c-3 -6 1 -7 9 -4 18 7 21 14 7 14 -6 0 -13 -4 -16 -10z"/>
<path d="M585 2019 c-32 -16 -57 -58 -61 -102 l-3 -42 9 45 c7 33 19 54 46 78
40 34 41 36 9 21z"/>
<path d="M616 1998 c-17 -24 -23 -143 -8 -152 4 -2 7 22 6 54 -1 38 3 57 9 53
6 -3 7 -1 3 5 -3 6 -2 22 4 36 12 32 6 33 -14 4z"/>
<path d="M561 1944 c0 -11 3 -14 6 -6 3 7 2 16 -1 19 -3 4 -6 -2 -5 -13z"/>
<path d="M531 1854 c0 -11 3 -14 6 -6 3 7 2 16 -1 19 -3 4 -6 -2 -5 -13z"/>
<path d="M1360 1820 c-68 -22 -57 -26 16 -4 31 9 62 13 70 10 9 -3 12 -1 9 4
-9 14 -31 12 -95 -10z"/>
<path d="M541 1820 c0 -8 4 -24 9 -35 5 -13 9 -14 9 -5 0 8 -4 24 -9 35 -5 13
-9 14 -9 5z"/>
<path d="M1028 1793 c23 -2 59 -2 80 0 20 2 1 4 -43 4 -44 0 -61 -2 -37 -4z"/>
<path d="M913 1783 c15 -2 37 -2 50 0 12 2 0 4 -28 4 -27 0 -38 -2 -22 -4z"/>
<path d="M833 1773 c9 -2 23 -2 30 0 6 3 -1 5 -18 5 -16 0 -22 -2 -12 -5z"/>
<path d="M760 1761 c-24 -7 -24 -7 -4 -13 11 -3 29 1 39 8 21 15 8 17 -35 5z"/>
<path d="M562 1686 c-2 -54 1 -67 12 -63 10 4 12 -2 8 -26 -3 -18 -6 -54 -6
-82 -1 -39 -5 -52 -20 -60 -11 -5 -21 -17 -23 -25 -3 -10 -1 -9 7 3 6 9 17 17
25 17 14 0 38 -57 29 -71 -10 -17 -45 -9 -54 14 l-9 22 0 -22 c-1 -24 28 -38
59 -28 12 4 20 2 20 -5 0 -7 28 -39 61 -71 34 -33 60 -61 58 -62 -2 -2 -34
-18 -70 -36 -40 -20 -89 -56 -125 -92 -55 -55 -57 -60 -41 -76 16 -16 15 -18
-13 -29 -28 -12 -42 -44 -20 -44 7 0 7 -6 0 -19 -15 -28 -13 -32 27 -76 78
-87 78 -98 -1 -184 -28 -31 -58 -71 -65 -88 -10 -25 -21 -34 -46 -39 -19 -3
-36 -12 -39 -20 -3 -9 -22 -15 -48 -15 -33 -2 -36 -3 -14 -6 l29 -5 -29 -24
-29 -25 40 6 c29 4 48 16 70 40 33 39 50 45 42 16 -4 -17 -2 -18 24 -9 16 5
37 21 48 34 10 13 21 20 25 16 4 -3 4 2 0 12 -6 15 -4 17 7 11 12 -8 12 -6 0
8 -7 9 -20 17 -27 17 -23 0 -16 18 21 57 l35 37 0 -27 c0 -15 6 -27 13 -28 26
-2 62 3 67 10 3 5 17 11 33 15 15 3 27 11 27 16 0 6 5 10 11 10 6 0 24 9 40
21 31 22 73 34 64 18 -4 -5 -11 -9 -18 -9 -18 0 -163 -102 -177 -125 -13 -19
-12 -19 11 -2 31 23 121 67 136 67 6 0 15 5 19 11 4 8 -1 9 -17 4 -21 -7 -22
-6 -10 9 16 19 55 22 46 4 -4 -7 0 -5 8 5 8 9 18 17 23 17 4 0 25 12 46 26 21
15 40 25 43 22 9 -9 -263 -192 -352 -237 -35 -17 -63 -33 -63 -35 0 -5 86 4
134 14 33 7 37 7 25 -6 -8 -7 -44 -17 -79 -20 -75 -8 -114 -20 -105 -33 3 -6
-4 -15 -15 -21 -11 -6 -20 -18 -20 -26 0 -12 9 -14 43 -9 32 4 38 3 27 -5 -11
-9 23 -10 130 -5 80 3 151 5 158 5 62 -4 63 -5 57 -27 -3 -13 -1 -23 5 -23 5
0 9 5 7 11 -1 6 3 13 10 16 7 3 10 -3 6 -16 -5 -19 2 -20 139 -25 252 -11 455
-14 398 -6 l-55 7 50 3 c28 1 58 1 68 0 16 -1 17 1 5 22 -20 36 -29 39 -93 33
-33 -3 -91 -1 -130 4 -65 9 -63 9 31 4 63 -3 104 -1 108 5 4 6 -3 8 -16 5 -17
-3 -19 -2 -9 5 9 7 -5 13 -51 21 -36 6 -74 11 -85 11 -24 0 -73 36 -73 54 0
14 84 6 134 -13 46 -18 42 -4 -6 17 -24 10 -59 34 -78 52 -19 18 -28 29 -20
25 9 -5 12 -4 7 1 -5 5 -16 9 -25 9 -9 0 -18 9 -20 20 -2 14 0 16 6 7 8 -13
17 -11 76 11 l29 11 -44 13 c-24 8 -62 16 -84 18 l-40 4 23 -18 c31 -27 28
-36 -5 -13 -34 23 -67 37 -93 41 -19 2 -99 89 -106 115 -10 42 98 385 125 394
15 5 10 -15 -36 -157 -18 -56 -30 -107 -27 -112 3 -5 0 -9 -6 -9 -6 0 -9 -8
-6 -18 4 -12 -3 -26 -19 -40 -44 -39 -21 -97 29 -74 19 8 25 8 30 -3 3 -10 0
-12 -12 -8 -21 8 -10 -6 20 -23 45 -26 86 -43 118 -49 26 -5 31 -3 28 11 -2
10 -26 23 -65 36 -35 10 -63 23 -63 28 0 14 38 22 70 15 23 -5 33 -1 50 18 32
36 51 28 85 -37 17 -32 38 -62 49 -68 10 -6 31 -39 47 -73 22 -49 32 -62 46
-59 12 3 38 -13 75 -46 38 -34 65 -50 78 -48 32 5 25 22 -13 33 -18 6 -48 23
-67 38 -18 15 -45 30 -60 33 -52 11 -66 103 -25 169 35 57 31 76 -5 26 -17
-23 -35 -39 -40 -36 -6 3 -10 -1 -10 -9 0 -9 -4 -16 -8 -16 -5 0 -8 22 -8 50
1 57 7 62 26 23 l14 -28 4 25 c3 16 -3 30 -17 41 -11 9 -17 19 -14 23 3 3 12
1 20 -5 9 -8 13 -8 13 -1 0 6 -12 18 -27 26 l-28 15 27 1 c15 0 30 5 33 10 10
16 24 2 18 -19 -3 -11 -1 -27 4 -36 7 -11 9 -4 9 26 -1 27 -6 44 -15 47 -10 3
-8 10 10 23 23 18 23 20 6 30 -18 10 -18 12 4 35 18 20 20 26 9 39 -12 14 -15
14 -30 0 -23 -21 -41 -19 -33 2 7 17 6 17 -19 1 -20 -13 -28 -14 -31 -5 -3 6
-6 3 -6 -7 -1 -27 -12 -14 -17 23 -5 27 -2 31 18 32 23 1 23 1 -2 9 -17 5 -19
8 -7 9 20 1 23 21 5 39 -9 9 -9 12 2 12 8 0 34 -21 58 -47 27 -31 36 -37 23
-17 -33 51 -109 114 -169 141 l-57 25 25 16 c66 43 140 156 140 213 0 17 9 34
23 45 15 11 16 15 5 11 -14 -5 -18 -1 -19 16 0 12 -7 -8 -14 -44 -25 -123 -86
-204 -193 -256 -80 -38 -221 -45 -303 -14 -78 30 -151 101 -175 172 -35 103
-14 234 47 297 41 42 22 41 -35 -3 l-45 -34 -4 47 c-3 38 -4 33 -5 -22z m418
-500 c0 -8 -10 -17 -22 -19 -20 -4 -19 -4 5 -6 15 0 27 -5 27 -10 0 -6 -13
-49 -29 -98 -16 -48 -34 -107 -41 -130 -9 -37 -15 -43 -36 -43 -26 0 -26 1
-23 73 3 94 1 129 -9 123 -4 -2 -6 12 -4 32 2 27 1 33 -7 22 -9 -12 -11 -12
-17 3 -3 9 -4 24 0 32 8 22 36 18 36 -5 0 -22 7 -25 30 -10 13 8 12 10 -2 10
-18 0 -24 20 -11 33 3 4 28 7 55 7 35 0 48 -4 48 -14z m187 -40 c22 -44 17
-66 -13 -66 -6 0 -17 -7 -24 -15 -11 -13 -9 -20 10 -40 12 -13 19 -28 16 -33
-10 -16 -117 -84 -123 -79 -3 3 6 17 20 31 14 14 22 27 20 30 -3 3 2 8 11 12
9 3 16 13 16 21 0 8 -4 11 -10 8 -16 -10 -11 12 7 30 14 14 14 18 2 27 -11 8
-11 9 3 4 10 -3 20 -1 23 4 3 4 0 10 -6 12 -8 3 -6 9 5 20 10 11 12 19 6 23
-8 5 -7 11 1 21 11 13 6 18 -14 15 -5 -1 -6 3 -2 9 13 21 32 9 52 -34z m-500
-3 c0 -6 -6 -14 -13 -17 -9 -3 -11 1 -7 11 5 12 3 14 -8 7 -8 -5 -16 -9 -19
-9 -16 -1 -47 -32 -45 -46 2 -9 -4 -16 -11 -16 -23 0 -16 18 20 51 33 32 83
43 83 19z m547 -42 c3 -5 -1 -11 -9 -14 -9 -4 -12 -1 -8 9 6 16 10 17 17 5z
m164 -93 c-2 -6 -10 -14 -16 -16 -7 -2 -10 2 -6 12 7 18 28 22 22 4z m-843
-18 c-3 -5 -14 -10 -23 -10 -15 0 -15 2 -2 10 20 13 33 13 25 0z m313 -92 c2
-87 1 -97 -13 -91 -9 3 -13 9 -8 12 14 10 12 89 -3 95 -7 3 -12 0 -10 -7 1 -7
1 -9 -1 -4 -3 4 -9 4 -15 1 -7 -5 -7 -1 0 12 8 14 6 21 -6 32 -10 7 -12 11 -5
8 6 -4 14 -3 17 2 2 4 -7 9 -21 10 -15 1 -29 4 -31 7 -8 8 42 24 68 22 25 -2
25 -4 28 -99z m328 77 c-7 -18 -7 -18 37 0 32 13 36 13 31 0 -4 -8 -10 -12
-15 -9 -5 3 -6 -1 -3 -9 4 -12 -12 -24 -61 -46 -5 -2 -3 4 5 15 14 18 14 18
-6 1 -20 -17 -22 -17 -28 -1 -4 11 2 26 15 41 26 27 34 29 25 8z m-636 -15
c-24 -19 -40 -25 -40 -15 0 5 51 34 60 34 3 0 -6 -8 -20 -19z m197 6 c4 -3 -1
-6 -11 -6 -11 0 -15 -5 -10 -12 6 -10 4 -10 -7 0 -16 14 -33 16 -24 2 3 -5 -1
-10 -9 -10 -9 0 -16 -5 -16 -11 0 -6 -6 -9 -14 -6 -8 3 -22 -1 -33 -8 -30 -24
-46 -19 -28 8 8 13 13 26 9 29 -3 3 0 9 7 14 8 4 10 3 5 -4 -10 -16 5 -14 28
3 18 14 90 14 103 1z m548 -16 c-3 -5 -11 -10 -16 -10 -6 0 -7 5 -4 10 3 6 11
10 16 10 6 0 7 -4 4 -10z m75 -9 c0 -5 -9 -13 -21 -16 -12 -4 -18 -13 -15 -20
3 -9 0 -12 -10 -8 -13 5 -13 8 1 23 8 9 12 20 8 23 -3 4 3 7 15 7 12 0 22 -4
22 -9z m-240 -58 c-11 -17 -11 -17 -6 0 8 25 -3 21 -14 -5 -6 -17 -9 -18 -9
-6 -1 20 32 55 37 40 2 -6 -2 -19 -8 -29z m165 17 c-3 -5 -12 -10 -18 -10 -7
0 -6 4 3 10 19 12 23 12 15 0z m-475 -84 c0 -2 -3 -11 -6 -20 -8 -20 -41 -21
-41 -2 0 8 6 12 15 8 10 -3 13 -1 8 6 -4 7 -1 12 8 12 9 0 16 -2 16 -4z m150
-15 c0 -11 -5 -23 -11 -27 -15 -9 -33 12 -26 30 9 23 37 20 37 -3z m-210 -10
c0 -12 -28 -22 -34 -12 -3 5 -3 11 1 15 9 9 33 7 33 -3z m97 -6 c2 -6 -6 -11
-17 -11 -11 0 -20 6 -20 14 0 15 32 13 37 -3z m-178 -11 c2 -2 -7 -4 -22 -4
-14 0 -29 5 -32 10 -6 10 42 4 54 -6z m31 6 c0 -5 -4 -10 -10 -10 -5 0 -10 5
-10 10 0 6 5 10 10 10 6 0 10 -4 10 -10z m182 -132 c3 -24 4 -70 4 -103 -1
-54 -3 -60 -23 -63 -27 -4 -27 -3 -8 34 19 38 19 46 -5 77 -12 14 -20 40 -20
61 0 31 3 36 24 36 21 0 24 -6 28 -42z m156 -32 c2 -17 -6 -37 -23 -58 -26
-31 -29 -57 -10 -100 5 -14 2 -18 -14 -18 -17 0 -21 6 -21 30 0 17 -7 33 -17
39 -17 10 -17 10 0 11 9 0 17 6 18 13 2 38 10 104 14 114 8 23 50 -2 53 -31z
m-188 -33 c-1 -13 -59 -77 -65 -72 -6 7 44 79 55 79 6 0 10 -3 10 -7z m190
-49 c0 -8 7 -28 15 -44 14 -27 14 -30 0 -30 -8 0 -15 7 -15 15 0 9 -7 29 -15
44 -8 16 -12 31 -8 34 9 10 23 -2 23 -19z m63 -36 c4 -12 4 -24 1 -27 -6 -7
-24 20 -24 37 0 21 17 13 23 -10z m-328 -8 c-3 -5 -11 -10 -16 -10 -6 0 -7 5
-4 10 3 6 11 10 16 10 6 0 7 -4 4 -10z m-42 -37 c-7 -2 -19 -2 -25 0 -7 3 -2
5 12 5 14 0 19 -2 13 -5z m-163 -17 c8 -2 -9 -4 -37 -5 -29 0 -53 3 -53 7 0 7
52 6 90 -2z m88 7 c-10 -2 -28 -2 -40 0 -13 2 -5 4 17 4 22 1 32 -1 23 -4z
m227 -22 l-5 -26 10 26 c10 25 13 26 53 17 23 -5 55 -7 72 -5 17 2 35 -2 43
-10 23 -23 9 -24 -61 -7 -54 14 -70 14 -82 4 -8 -7 -15 -19 -15 -26 0 -8 -9
-14 -19 -14 -16 0 -19 6 -18 33 1 19 7 34 14 34 8 0 11 -10 8 -26z m215 19
c13 -9 13 -10 0 -10 -8 0 -22 5 -30 10 -13 9 -13 10 0 10 8 0 22 -5 30 -10z
m69 -46 c10 -9 -55 -3 -69 6 -10 6 -2 7 25 3 22 -3 42 -7 44 -9z m-322 0 c-3
-3 -12 -4 -19 -1 -8 3 -5 6 6 6 11 1 17 -2 13 -5z m-214 -11 c-13 -2 -35 -2
-50 0 -16 2 -5 4 22 4 28 0 40 -2 28 -4z m375 -41 c2 -8 -8 -12 -27 -12 -33 0
-42 16 -13 23 23 6 35 3 40 -11z m442 7 c0 -5 -19 -9 -42 -9 -24 0 -38 4 -31
8 16 10 73 11 73 1z"/>
<path d="M888 1113 c5 -21 7 -23 10 -9 2 10 0 22 -6 28 -6 6 -7 0 -4 -19z"/>
<path d="M902 1055 c0 -16 2 -22 5 -12 2 9 2 23 0 30 -3 6 -5 -1 -5 -18z"/>
<path d="M700 1740 c-8 -5 -10 -10 -5 -10 6 0 17 5 25 10 8 5 11 10 5 10 -5 0
-17 -5 -25 -10z"/>
<path d="M806 1715 c-8 -38 0 -75 14 -75 13 0 23 64 15 89 -10 31 -22 25 -29
-14z"/>
<path d="M996 1718 c2 -60 4 -68 14 -68 14 0 23 45 16 75 -9 37 -32 31 -30 -7z"/>
<path d="M428 1683 c7 -3 16 -2 19 1 4 3 -2 6 -13 5 -11 0 -14 -3 -6 -6z"/>
<path d="M393 1658 c3 -9 11 -35 17 -57 6 -23 13 -41 16 -41 21 0 124 63 124
76 0 11 -5 14 -16 10 -9 -3 -17 -6 -20 -6 -2 0 -1 -6 2 -13 3 -8 -6 -18 -21
-25 -35 -16 -35 -16 -35 17 0 25 -3 28 -21 24 -15 -4 -27 0 -37 13 -12 15 -14
16 -9 2z"/>
<path d="M478 1653 c6 -2 18 -2 25 0 6 3 1 5 -13 5 -14 0 -19 -2 -12 -5z"/>
<path d="M908 1623 c6 -2 18 -2 25 0 6 3 1 5 -13 5 -14 0 -19 -2 -12 -5z"/>
<path d="M1079 1593 c-13 -16 -12 -17 4 -4 9 7 17 15 17 17 0 8 -8 3 -21 -13z"/>
<path d="M760 1566 c0 -2 8 -10 18 -17 15 -13 16 -12 3 4 -13 16 -21 21 -21
13z"/>
<path d="M814 1526 c11 -9 27 -16 35 -15 14 0 14 1 1 6 -8 3 -24 10 -35 15
-20 9 -20 9 -1 -6z"/>
<path d="M1336 1507 c3 -10 9 -15 12 -12 3 3 0 11 -7 18 -10 9 -11 8 -5 -6z"/>
<path d="M893 1503 c9 -2 23 -2 30 0 6 3 -1 5 -18 5 -16 0 -22 -2 -12 -5z"/>
<path d="M1336 1465 c-3 -8 -16 -20 -28 -25 -15 -5 -17 -9 -7 -9 17 -1 56 36
47 44 -3 3 -8 -1 -12 -10z"/>
<path d="M1085 750 c-15 -5 -5 -10 40 -19 33 -7 68 -15 78 -17 20 -6 22 5 4
26 -13 16 -88 22 -122 10z"/>
<path d="M1160 690 c0 -5 7 -10 16 -10 8 0 12 5 9 10 -3 6 -10 10 -16 10 -5 0
-9 -4 -9 -10z"/>
<path d="M1246 584 c-5 -14 -4 -15 9 -4 17 14 19 20 6 20 -5 0 -12 -7 -15 -16z"/>
<path d="M1307 523 c-18 -17 -3 -28 41 -29 26 0 39 2 29 4 -9 2 -15 7 -12 12
3 4 -4 10 -15 13 -13 3 -18 1 -13 -6 4 -8 2 -8 -9 0 -8 7 -18 10 -21 6z"/>
<path d="M1523 510 c54 -10 140 -49 141 -65 1 -5 -6 -11 -15 -13 -11 -2 -16 3
-15 15 1 22 -17 23 -69 6 -22 -8 -60 -16 -85 -18 -59 -5 -59 -6 -30 -15 38
-12 163 -11 199 1 19 7 31 18 31 29 0 23 -85 60 -153 65 l-52 4 48 -9z"/>
<path d="M198 493 c7 -3 16 -2 19 1 4 3 -2 6 -13 5 -11 0 -14 -3 -6 -6z"/>
<path d="M123 474 c-24 -12 -33 -23 -33 -40 0 -30 32 -44 99 -44 45 0 158 27
149 36 -2 2 -19 -1 -37 -6 -19 -5 -57 -12 -85 -15 -49 -6 -52 -5 -64 22 -11
25 -10 30 9 46 27 22 6 22 -38 1z"/>
<path d="M404 454 c-18 -14 -18 -14 6 -3 31 14 36 19 24 19 -6 0 -19 -7 -30
-16z"/>
<path d="M1338 453 c7 -3 16 -2 19 1 4 3 -2 6 -13 5 -11 0 -14 -3 -6 -6z"/>
<path d="M1398 433 c7 -3 16 -2 19 1 4 3 -2 6 -13 5 -11 0 -14 -3 -6 -6z"/>
<path d="M653 273 c9 -2 23 -2 30 0 6 3 -1 5 -18 5 -16 0 -22 -2 -12 -5z"/>
<path d="M860 260 c0 -11 49 -19 56 -9 3 5 -1 9 -8 10 -7 0 -21 2 -30 4 -10 2
-18 0 -18 -5z"/>
<path d="M1030 259 c0 -5 11 -9 25 -9 14 0 25 2 25 4 0 2 -11 6 -25 8 -14 3
-25 1 -25 -3z"/>
<path d="M1096 262 c-3 -5 1 -9 9 -9 8 0 12 4 9 9 -3 4 -7 8 -9 8 -2 0 -6 -4
-9 -8z"/>
<path d="M648 243 c6 -2 18 -2 25 0 6 3 1 5 -13 5 -14 0 -19 -2 -12 -5z"/>
</g>
</svg>
