<?xml version="1.0" standalone="no"?>
<!DOCTYPE svg PUBLIC "-//W3C//DTD SVG 20010904//EN"
 "http://www.w3.org/TR/2001/REC-SVG-20010904/DTD/svg10.dtd">
<svg version="1.0" xmlns="http://www.w3.org/2000/svg"
 width="194.000000pt" height="259.000000pt" viewBox="0 0 194.000000 259.000000"
 preserveAspectRatio="xMidYMid meet">

<g transform="translate(0.000000,259.000000) scale(0.100000,-0.100000)"
fill="#000000" stroke="none">
<path d="M483 2553 c-19 -20 -66 -73 -103 -118 -38 -46 -114 -135 -170 -200
-55 -64 -100 -121 -100 -126 0 -4 7 -12 16 -17 12 -6 23 -2 40 15 26 26 58 24
81 -4 11 -14 14 -14 28 1 22 22 61 20 85 -4 19 -19 21 -19 50 -2 28 16 32 16
61 -1 30 -16 32 -16 56 3 23 18 63 28 63 16 0 -3 -13 -44 -29 -93 -16 -48 -35
-116 -42 -150 -7 -35 -16 -63 -19 -63 -9 0 -50 57 -50 70 0 5 15 11 33 11 19
1 11 4 -23 8 -30 3 -140 3 -245 0 -104 -3 -173 -6 -153 -7 32 -2 37 -6 41 -29
l4 -28 2 28 1 27 96 0 96 0 -30 -25 c-35 -29 -48 -76 -58 -207 l-6 -88 -92 -2
c-50 -1 -74 -3 -54 -5 l37 -4 4 -57 3 -57 2 58 2 57 50 0 c47 0 50 -1 50 -26
0 -32 -90 -121 -102 -101 -4 7 -7 4 -7 -8 1 -11 -3 -40 -8 -65 -14 -69 2 -115
53 -158 24 -20 44 -42 44 -49 0 -8 12 -13 33 -13 l32 1 -22 17 c-12 9 -40 28
-63 42 -70 42 -91 105 -39 112 26 4 37 -1 58 -25 14 -16 49 -40 76 -53 28 -13
39 -21 25 -18 l-25 7 20 -23 20 -23 -25 13 -25 13 19 -22 c20 -22 9 -30 -13
-9 -11 11 -13 10 -7 -5 3 -10 6 -21 6 -23 0 -2 70 -4 155 -4 l155 0 0 26 c0
58 -24 222 -39 269 -9 28 -16 57 -15 65 1 8 2 21 3 28 1 9 5 10 20 0 24 -14
97 1 94 20 -2 8 14 12 51 12 44 0 55 -4 59 -17 3 -12 5 -10 6 7 1 24 0 25 -59
22 -59 -4 -60 -3 -60 22 0 19 -5 26 -20 26 -15 0 -23 -11 -32 -45 -13 -48 -15
-50 -38 -35 -12 8 -12 12 0 36 21 38 56 70 128 116 47 30 70 39 90 35 l27 -5
-28 23 c-31 27 -34 35 -12 35 17 0 20 65 5 110 -6 16 -7 6 -3 -30 5 -54 5 -55
-12 -32 -12 16 -21 20 -27 14 -6 -6 -17 -8 -26 -5 -8 4 -21 -2 -28 -12 -14
-18 -14 -18 -15 1 -1 15 -2 14 -8 -5 -4 -15 -17 -27 -34 -32 -26 -7 -27 -6
-27 31 0 21 -5 42 -10 45 -6 4 -9 14 -6 23 24 92 48 163 53 158 3 -3 15 -1 26
5 16 9 19 18 13 55 -3 24 -3 50 0 59 11 28 24 16 24 -22 0 -21 5 -58 11 -83
13 -57 5 -93 -20 -85 -39 12 -65 -66 -34 -104 l19 -23 13 43 c7 24 19 59 27
77 l14 34 31 -26 c60 -51 150 -28 181 45 l17 39 124 0 c91 0 127 -3 130 -12 4
-10 6 -10 6 0 1 9 27 12 97 12 l96 0 -16 -25 c-9 -13 -25 -46 -35 -72 l-19
-48 -108 -6 -109 -5 108 -2 c106 -2 107 -2 103 -24 -3 -13 -10 -49 -16 -80
l-11 -58 -114 0 c-100 0 -114 2 -118 18 -4 13 -5 11 -6 -5 -1 -22 3 -23 68
-23 64 0 70 -2 74 -22 l4 -23 2 23 c1 19 6 22 47 22 36 0 45 -3 41 -14 -3 -8
-9 -31 -13 -50 -9 -49 -20 -53 -56 -20 -17 16 -28 24 -25 18 5 -8 -2 -11 -18
-10 -29 1 -33 12 -7 19 13 4 12 5 -5 6 -27 1 -32 -15 -19 -57 8 -29 11 -31 17
-16 7 17 8 17 8 2 1 -20 9 -22 30 -9 8 5 11 17 6 32 l-6 24 18 -21 c15 -18 32
-23 100 -26 80 -5 83 -4 110 24 33 35 63 37 62 6 -1 -17 -2 -19 -6 -5 -6 24
-25 21 -52 -7 l-23 -24 31 -18 c40 -23 41 -39 1 -19 -52 27 -46 16 8 -16 58
-33 63 -48 11 -30 -42 15 -101 14 -121 -1 -20 -16 -33 -58 -19 -58 6 0 11 9
11 19 0 25 11 32 60 37 36 4 61 -9 45 -24 -4 -4 -10 -1 -12 6 -3 6 -11 12 -20
12 -10 0 -12 -6 -8 -20 4 -12 1 -27 -5 -35 -14 -17 -50 -20 -50 -4 0 5 -5 7
-11 3 -7 -4 -6 -11 4 -22 13 -12 26 -13 79 -5 118 19 131 -9 47 -102 -27 -29
-49 -59 -49 -66 1 -10 5 -8 14 4 13 17 15 13 25 -33 6 -28 11 -58 11 -65 0
-10 11 -15 34 -15 28 0 38 -6 59 -40 20 -30 35 -41 63 -46 46 -8 64 2 87 49
15 30 24 37 48 37 16 0 29 6 30 13 1 6 2 28 4 47 2 19 3 39 4 43 1 5 18 7 39
5 l37 -3 5 -75 5 -75 39 -3 39 -3 -7 83 c-14 182 -19 593 -7 677 6 46 9 86 7
88 -2 3 -18 7 -36 9 -26 5 -32 2 -37 -15 -4 -17 -15 -21 -72 -24 l-66 -3 68
-2 67 -2 0 -80 0 -80 -42 0 c-23 0 -38 -3 -34 -7 4 -4 23 -6 42 -4 l34 3 0
-76 c0 -84 0 -83 -82 -85 -43 -1 -47 1 -57 30 -6 18 -11 54 -11 80 0 46 1 48
33 52 l32 4 -30 1 -31 2 0 108 c0 71 -4 115 -13 131 -12 22 -11 26 5 37 11 7
27 21 36 30 9 9 23 14 30 12 7 -3 22 -2 33 3 18 7 18 8 -4 8 -24 1 -24 1 -5
16 27 21 62 18 76 -5 18 -28 68 -28 68 0 0 11 -4 20 -10 20 -5 0 -10 8 -10 18
0 23 -57 82 -80 82 -5 0 -10 7 -10 16 0 8 -4 12 -10 9 -5 -3 -10 1 -10 9 0 8
-5 18 -12 22 -7 5 -8 3 -3 -6 5 -9 4 -11 -3 -6 -7 4 -12 14 -12 22 0 8 -6 14
-13 14 -14 0 -67 53 -67 67 0 5 -11 16 -25 23 -14 8 -23 20 -21 27 3 7 2 12
-2 10 -4 -1 -43 34 -87 79 -66 67 -87 82 -120 87 -22 4 -240 7 -484 7 l-444 0
-34 -37z m331 -159 c9 -4 21 -15 27 -25 7 -15 6 -17 -5 -13 -13 5 -13 2 -3
-20 11 -22 13 -23 19 -7 3 10 18 28 33 39 21 17 31 19 47 11 26 -14 8 -36 -38
-45 -19 -3 -34 -7 -34 -8 0 0 14 -34 30 -75 36 -87 39 -164 11 -228 -23 -49
-45 -63 -99 -63 -86 0 -127 86 -120 250 l3 81 -26 -6 c-29 -7 -55 16 -45 40 7
19 35 19 57 -1 16 -14 18 -14 24 6 7 21 69 68 92 69 6 1 19 -2 27 -5z m1091
-244 c3 -5 2 -10 -4 -10 -5 0 -13 5 -16 10 -3 6 -2 10 4 10 5 0 13 -4 16 -10z
m-271 -41 c53 -41 20 -54 -39 -15 -35 24 -34 27 6 35 4 0 18 -8 33 -20z m-274
-8 c15 -29 13 -31 -25 -31 -38 0 -44 10 -19 34 20 21 31 20 44 -3z m40 3 c0
-8 -19 -13 -24 -6 -3 5 1 9 9 9 8 0 15 -2 15 -3z m364 -9 c3 -8 1 -15 -3 -15
-5 0 -11 7 -15 15 -3 8 -1 15 3 15 5 0 11 -7 15 -15z m-720 -10 c4 -12 -3 -15
-36 -15 -35 0 -39 2 -28 15 7 8 23 15 35 15 13 0 25 -7 29 -15z m116 0 c11
-13 5 -15 -40 -15 -45 0 -51 2 -40 15 7 8 25 15 40 15 15 0 33 -7 40 -15z
m126 -6 c3 -5 -18 -9 -45 -9 -28 0 -51 4 -51 9 0 19 84 19 96 0z m261 1 c1
-16 -1 -17 -12 -7 -11 10 -8 19 10 27 1 0 1 -9 2 -20z m173 12 c0 -13 -12 -22
-22 -16 -10 6 -1 24 13 24 5 0 9 -4 9 -8z m200 -2 c0 -5 -5 -10 -11 -10 -5 0
-7 5 -4 10 3 6 8 10 11 10 2 0 4 -4 4 -10z m-975 -10 c3 -5 1 -10 -4 -10 -6 0
-11 5 -11 10 0 6 2 10 4 10 3 0 8 -4 11 -10z m502 -5 c0 -8 -4 -15 -9 -15 -10
0 -11 14 -1 23 9 10 10 9 10 -8z m133 5 c0 -5 -4 -10 -10 -10 -5 0 -10 5 -10
10 0 6 5 10 10 10 6 0 10 -4 10 -10z m-54 -28 c9 -19 13 -20 17 -8 7 19 38 21
55 4 31 -31 -2 -93 -38 -71 -11 7 -22 8 -29 2 -8 -6 -8 -5 -1 3 6 7 10 19 9
28 0 10 -2 11 -6 3 -6 -15 -49 -17 -58 -3 -10 15 -25 2 -18 -16 3 -8 12 -13
19 -10 7 3 16 1 18 -3 5 -7 -17 -8 -46 -2 -8 1 -4 28 5 37 4 4 7 15 7 24 0 21
21 41 40 38 8 -2 20 -14 26 -26z m94 3 c13 -14 19 -25 14 -25 -8 1 -50 50 -41
50 2 0 14 -11 27 -25z m-210 0 c-9 -11 -10 -15 -1 -15 8 0 7 -6 -3 -16 -9 -8
-16 -22 -16 -30 0 -8 -4 -14 -9 -14 -4 0 -6 11 -3 25 2 14 9 25 14 25 5 0 6 5
2 11 -3 6 0 15 7 20 20 13 23 11 9 -6z m248 -60 c-3 -3 -9 2 -12 12 -6 14 -5
15 5 6 7 -7 10 -15 7 -18z m-37 -22 c-12 -20 -14 -14 -5 12 4 9 9 14 11 11 3
-2 0 -13 -6 -23z m-196 -13 c3 -5 1 -10 -4 -10 -6 0 -11 5 -11 10 0 6 2 10 4
10 3 0 8 -4 11 -10z m41 -22 c14 -28 15 -31 2 -20 -14 11 -31 52 -22 52 2 0
11 -15 20 -32z m-1006 -98 c29 -33 62 -63 75 -66 34 -8 102 14 120 39 8 12 15
16 15 9 0 -7 4 -10 10 -7 46 28 74 -4 38 -43 -13 -14 -17 -22 -11 -18 7 4 21
2 30 -4 17 -11 17 -11 0 -6 -11 4 -26 -3 -40 -17 -12 -13 -45 -37 -74 -53 -30
-16 -60 -42 -69 -59 -9 -17 -30 -41 -48 -54 -28 -21 -29 -22 -6 -16 l25 7 -29
-30 c-23 -25 -25 -30 -9 -26 15 4 19 -1 21 -24 2 -25 -3 -32 -35 -48 -80 -37
-173 -28 -234 23 -26 23 -30 30 -24 62 3 20 10 92 14 161 5 84 14 136 25 157
18 35 69 68 92 59 7 -3 16 -1 19 4 14 23 47 6 95 -50z m957 -140 c15 12 15 11
-2 -9 l-20 -24 20 7 c16 6 17 5 8 -5 -17 -17 -51 -19 -57 -3 -3 9 1 11 12 7
14 -5 14 -3 -3 17 l-20 23 22 -13 c18 -12 24 -12 40 0z m74 -27 c13 -17 12
-17 -8 0 -12 11 -27 16 -32 12 -6 -3 -11 1 -11 10 0 12 4 13 18 6 10 -5 25
-18 33 -28z m13 21 c3 -8 2 -12 -4 -9 -6 3 -10 10 -10 16 0 14 7 11 14 -7z
m-114 -69 c-7 -8 -17 -12 -22 -9 -6 4 -5 10 3 15 22 14 33 10 19 -6z m133 -90
c11 -31 15 -80 14 -167 l-2 -122 -41 -4 c-36 -3 -42 0 -53 24 -11 25 -9 30 23
63 19 20 40 49 46 66 14 37 4 97 -21 129 -14 17 -18 33 -13 51 8 34 28 18 47
-40z m337 -36 l0 -70 -47 3 -47 3 -12 55 c-20 83 -21 80 46 80 l60 0 0 -71z
m-395 -20 c-6 -32 -12 -34 -12 -4 0 14 3 25 8 25 4 0 6 -10 4 -21z m-37 -16
c-4 -20 -38 -31 -38 -13 0 7 7 10 15 6 8 -3 15 -1 15 3 0 5 -6 12 -12 14 -8 3
-5 6 5 6 12 1 17 -5 15 -16z m-1226 -34 c11 -6 32 -13 46 -15 42 -8 41 -17 0
-11 -21 3 -48 13 -60 21 -26 18 -17 21 14 5z m1658 -84 l0 -75 -45 0 -45 0 0
75 0 75 45 0 45 0 0 -75z m-1365 55 c-11 -5 -31 -8 -45 -8 l-25 0 25 8 c14 4
34 8 45 8 l20 1 -20 -9z m-310 -40 c4 -6 -9 -10 -32 -9 -38 1 -38 1 -8 9 17 4
31 8 32 9 1 0 5 -3 8 -9z m330 -10 c-11 -5 -33 -8 -50 -8 -29 1 -29 1 5 8 49
10 69 10 45 0z m-105 -14 c14 -2 -18 -4 -70 -4 -52 -1 -100 2 -107 6 -10 6
119 5 177 -2z m1180 -40 c0 -2 -7 -7 -16 -10 -8 -3 -12 -2 -9 4 6 10 25 14 25
6z m-1060 -16 c-8 -5 -19 -10 -25 -10 -5 0 -3 5 5 10 8 5 20 10 25 10 6 0 3
-5 -5 -10z m-70 -20 c-14 -4 -70 -8 -125 -7 l-100 1 105 6 c156 9 148 9 120 0z
m60 -70 c-14 -4 -36 -8 -50 -8 -22 0 -22 1 5 8 17 4 39 8 50 8 16 0 15 -2 -5
-8z m1076 -8 c1 -7 0 -8 -3 -2 -2 5 -9 8 -13 5 -5 -3 -12 0 -15 6 -5 7 -1 10
10 7 10 -1 20 -9 21 -16z m-1176 -12 c-14 -4 -45 -8 -70 -7 l-45 0 50 7 c73
10 96 10 65 0z m1160 -26 c0 -8 -19 -13 -24 -6 -3 5 1 9 9 9 8 0 15 -2 15 -3z
m73 -9 c-3 -9 -8 -14 -10 -11 -3 3 -2 9 2 15 9 16 15 13 8 -4z m-43 -29 c0 -2
-7 -7 -16 -10 -8 -3 -12 -2 -9 4 6 10 25 14 25 6z"/>
<path d="M780 2345 c-7 -9 -11 -17 -9 -20 3 -2 10 5 17 15 14 24 10 26 -8 5z"/>
<path d="M708 2308 c6 -23 29 -47 47 -48 5 0 -1 7 -13 16 -12 8 -22 24 -22 35
0 10 -4 19 -9 19 -5 0 -7 -10 -3 -22z"/>
<path d="M795 2320 c3 -5 8 -10 11 -10 2 0 4 5 4 10 0 6 -5 10 -11 10 -5 0 -7
-4 -4 -10z"/>
<path d="M746 2305 c4 -8 8 -15 10 -15 2 0 4 7 4 15 0 8 -4 15 -10 15 -5 0 -7
-7 -4 -15z"/>
<path d="M776 2295 c-9 -26 -7 -32 5 -12 6 10 9 21 6 23 -2 3 -7 -2 -11 -11z"/>
<path d="M811 2224 c0 -11 3 -14 6 -6 3 7 2 16 -1 19 -3 4 -6 -2 -5 -13z"/>
<path d="M781 2214 c0 -11 3 -14 6 -6 3 7 2 16 -1 19 -3 4 -6 -2 -5 -13z"/>
<path d="M787 2139 c7 -7 15 -10 18 -7 3 3 -2 9 -12 12 -14 6 -15 5 -6 -5z"/>
<path d="M1500 2035 c0 -8 5 -15 10 -15 6 0 10 7 10 15 0 8 -4 15 -10 15 -5 0
-10 -7 -10 -15z"/>
<path d="M1550 2026 c0 -9 5 -16 10 -16 6 0 10 4 10 9 0 6 -4 13 -10 16 -5 3
-10 -1 -10 -9z"/>
<path d="M360 1870 c-8 -5 -10 -10 -5 -10 6 0 17 5 25 10 8 5 11 10 5 10 -5 0
-17 -5 -25 -10z"/>
<path d="M305 1850 c-3 -6 1 -7 9 -4 18 7 21 14 7 14 -6 0 -13 -4 -16 -10z"/>
<path d="M310 1810 c0 -5 5 -10 10 -10 6 0 10 5 10 10 0 6 -4 10 -10 10 -5 0
-10 -4 -10 -10z"/>
<path d="M354 1798 c4 -20 41 -21 56 -1 12 15 12 16 0 6 -17 -16 -46 -17 -53
-3 -3 6 -4 5 -3 -2z"/>
<path d="M307 1769 c7 -7 15 -10 18 -7 3 3 -2 9 -12 12 -14 6 -15 5 -6 -5z"/>
<path d="M307 1724 c3 -8 10 -14 15 -14 6 0 8 -6 5 -12 -3 -8 4 -13 19 -13 32
0 30 6 -11 32 -22 14 -32 17 -28 7z"/>
<path d="M596 1726 c-16 -8 -24 -16 -18 -20 6 -3 14 -2 17 4 5 8 11 7 21 -1 8
-6 17 -9 21 -5 3 3 1 6 -5 6 -7 0 -12 5 -12 11 0 6 7 9 15 6 8 -4 17 -2 20 3
8 14 -24 11 -59 -4z"/>
<path d="M524 1702 c-6 -4 -14 -18 -18 -32 l-7 -25 14 24 c8 14 23 28 33 32
13 5 14 8 4 8 -8 0 -20 -3 -26 -7z"/>
<path d="M450 1680 c-6 -11 -16 -17 -22 -14 -7 5 -8 2 -3 -6 6 -10 12 -9 25 7
9 12 25 23 36 26 17 4 16 5 -3 6 -13 1 -27 -8 -33 -19z"/>
<path d="M383 1683 c4 -3 1 -13 -5 -22 -11 -14 -10 -14 7 0 11 9 27 19 35 22
8 3 2 6 -14 6 -16 1 -26 -2 -23 -6z"/>
<path d="M1838 2073 c6 -2 18 -2 25 0 6 3 1 5 -13 5 -14 0 -19 -2 -12 -5z"/>
<path d="M123 2053 c26 -2 67 -2 90 0 23 2 2 3 -48 3 -50 0 -68 -1 -42 -3z"/>
<path d="M283 2054 c7 -7 269 -5 276 2 2 2 -60 4 -139 4 -79 0 -141 -3 -137
-6z"/>
<path d="M293 1985 c0 -27 2 -38 4 -22 2 15 2 37 0 50 -2 12 -4 0 -4 -28z"/>
<path d="M1183 1990 c0 -25 2 -35 4 -22 2 12 2 32 0 45 -2 12 -4 2 -4 -23z"/>
<path d="M892 1945 c0 -16 2 -22 5 -12 2 9 2 23 0 30 -3 6 -5 -1 -5 -18z"/>
<path d="M770 1896 c6 -6 18 -5 32 1 21 10 21 10 -9 9 -19 -1 -28 -5 -23 -10z"/>
<path d="M1040 1886 c0 -8 -6 -17 -12 -19 -8 -4 -7 -6 3 -6 9 -1 19 8 22 19 3
11 1 20 -4 20 -5 0 -9 -6 -9 -14z"/>
<path d="M1052 1810 c0 -19 2 -27 5 -17 2 9 2 25 0 35 -3 9 -5 1 -5 -18z"/>
<path d="M832 1790 c0 -14 2 -19 5 -12 2 6 2 18 0 25 -3 6 -5 1 -5 -13z"/>
<path d="M91 1753 c-1 -17 -9 -23 -33 -26 -18 -2 3 -4 47 -4 44 0 61 2 38 4
-33 3 -43 8 -46 26 l-4 22 -2 -22z"/>
<path d="M840 1732 c0 -4 21 -6 48 -4 75 5 82 10 15 11 -35 0 -63 -2 -63 -7z"/>
<path d="M1793 1655 c0 -33 2 -45 4 -27 2 18 2 45 0 60 -2 15 -4 0 -4 -33z"/>
<path d="M841 1653 c0 -28 2 -54 7 -57 4 -2 6 14 4 37 -5 68 -10 76 -11 20z"/>
<path d="M996 1635 c-9 -26 -7 -32 5 -12 6 10 9 21 6 23 -2 3 -7 -2 -11 -11z"/>
<path d="M941 1604 c0 -11 3 -14 6 -6 3 7 2 16 -1 19 -3 4 -6 -2 -5 -13z"/>
<path d="M898 1588 c5 -5 16 -8 23 -6 8 3 3 7 -10 11 -17 4 -21 3 -13 -5z"/>
<path d="M1340 1580 c-9 -6 -10 -10 -3 -10 6 0 15 5 18 10 8 12 4 12 -15 0z"/>
<path d="M765 1570 c-3 -5 -1 -10 4 -10 6 0 11 5 11 10 0 6 -2 10 -4 10 -3 0
-8 -4 -11 -10z"/>
<path d="M980 1564 c0 -6 8 -18 18 -25 15 -13 16 -12 4 3 -13 16 -8 17 55 20
l68 3 -73 5 c-50 3 -72 2 -72 -6z"/>
<path d="M1134 1561 c0 -11 6 -17 13 -14 6 3 9 11 6 19 -7 20 -19 17 -19 -5z"/>
<path d="M1218 1573 c6 -2 18 -2 25 0 6 3 1 5 -13 5 -14 0 -19 -2 -12 -5z"/>
<path d="M1276 1555 c25 -19 31 -19 38 1 5 14 4 15 -8 5 -10 -8 -16 -9 -21 -1
-3 5 -11 10 -18 10 -6 0 -2 -7 9 -15z"/>
<path d="M770 1529 c-6 -11 -9 -28 -7 -37 4 -13 5 -11 6 5 0 12 8 29 17 37 8
9 11 16 5 16 -6 0 -15 -9 -21 -21z"/>
<path d="M1041 1534 c0 -11 3 -14 6 -6 3 7 2 16 -1 19 -3 4 -6 -2 -5 -13z"/>
<path d="M918 1533 c7 -3 16 -2 19 1 4 3 -2 6 -13 5 -11 0 -14 -3 -6 -6z"/>
<path d="M605 1505 c-16 -8 -23 -14 -14 -15 8 0 24 7 35 15 23 18 18 18 -21 0z"/>
<path d="M1149 1509 c-21 -8 -25 -15 -21 -37 3 -15 10 -30 16 -34 7 -5 4 -8
-6 -8 -11 0 -19 8 -19 20 -2 36 -4 40 -14 41 -11 0 -22 -32 -24 -66 -1 -18 6
-20 81 -22 59 -2 89 2 105 13 26 16 30 51 10 78 -16 21 -90 30 -128 15z m35
-26 c-17 -18 -27 -13 -18 10 3 9 12 13 20 10 11 -4 11 -7 -2 -20z m81 -17 c0
-19 -8 -34 -25 -45 -13 -9 -21 -11 -17 -4 4 6 3 14 -3 18 -11 7 -14 48 -3 59
4 4 16 6 28 4 15 -2 20 -10 20 -32z m-65 -41 c0 -9 -6 -12 -15 -9 -8 4 -15 10
-15 15 0 5 7 9 15 9 8 0 15 -7 15 -15z"/>
<path d="M1240 1460 c0 -5 5 -10 10 -10 6 0 10 5 10 10 0 6 -4 10 -10 10 -5 0
-10 -4 -10 -10z"/>
<path d="M817 1504 c-8 -8 1 -24 14 -24 5 0 9 7 9 15 0 15 -12 20 -23 9z"/>
<path d="M900 1485 c0 -8 5 -15 10 -15 6 0 10 7 10 15 0 8 -4 15 -10 15 -5 0
-10 -7 -10 -15z"/>
<path d="M1336 1483 c-11 -11 -6 -23 9 -23 8 0 15 4 15 9 0 13 -16 22 -24 14z"/>
<path d="M951 1447 c-13 -21 -12 -21 5 -5 10 10 16 20 13 22 -3 3 -11 -5 -18
-17z"/>
<path d="M838 1428 c8 -31 29 -42 41 -21 12 24 1 43 -25 41 -15 -2 -20 -7 -16
-20z m32 -3 c0 -8 -4 -15 -10 -15 -5 0 -10 7 -10 15 0 8 5 15 10 15 6 0 10 -7
10 -15z"/>
<path d="M661 1388 c2 -30 2 -30 6 -6 2 15 12 29 21 31 12 3 10 5 -5 6 -20 1
-23 -4 -22 -31z"/>
<path d="M1293 1413 c-19 -7 -16 -27 6 -47 19 -17 20 -17 31 4 9 16 9 25 -1
36 -12 15 -16 16 -36 7z"/>
<path d="M38 1393 c7 -3 16 -2 19 1 4 3 -2 6 -13 5 -11 0 -14 -3 -6 -6z"/>
<path d="M810 1386 c0 -2 8 -10 18 -17 15 -13 16 -12 3 4 -13 16 -21 21 -21
13z"/>
<path d="M863 1363 c9 -2 23 -2 30 0 6 3 -1 5 -18 5 -16 0 -22 -2 -12 -5z"/>
<path d="M1270 1351 c0 -10 19 -25 25 -20 1 2 -3 10 -11 17 -8 7 -14 8 -14 3z"/>
<path d="M1125 1330 c10 -11 20 -20 23 -20 3 0 -3 9 -13 20 -10 11 -20 20 -23
20 -3 0 3 -9 13 -20z"/>
<path d="M672 1310 c0 -19 2 -27 5 -17 2 9 2 25 0 35 -3 9 -5 1 -5 -18z"/>
<path d="M730 1296 c14 -16 20 -30 15 -34 -6 -4 -11 -33 -13 -64 l-3 -58 142
0 142 0 -7 55 -6 55 69 0 c46 0 71 -4 74 -12 3 -7 6 -4 6 7 1 19 -4 20 -71 17
-70 -4 -72 -3 -57 15 31 35 32 48 2 15 -33 -34 -87 -61 -125 -63 -13 0 -17 -3
-10 -6 6 -2 12 -11 12 -18 0 -21 -28 -26 -46 -8 -15 16 -15 17 2 23 14 5 10 8
-16 14 -21 4 -36 2 -38 -4 -2 -5 -8 -7 -14 -4 -7 4 -7 9 0 13 5 3 -11 24 -37
45 -27 24 -36 28 -21 12z m260 -76 c0 -5 -5 -10 -11 -10 -5 0 -7 5 -4 10 3 6
8 10 11 10 2 0 4 -4 4 -10z m-225 -20 c3 -5 1 -10 -4 -10 -6 0 -11 5 -11 10 0
6 2 10 4 10 3 0 8 -4 11 -10z m175 -20 c0 -5 -4 -10 -10 -10 -5 0 -10 5 -10
10 0 6 5 10 10 10 6 0 10 -4 10 -10z m-115 -10 c3 -5 1 -10 -4 -10 -6 0 -11 5
-11 10 0 6 2 10 4 10 3 0 8 -4 11 -10z"/>
<path d="M1186 1277 c3 -10 9 -15 12 -12 3 3 0 11 -7 18 -10 9 -11 8 -5 -6z"/>
<path d="M1369 1253 c-13 -16 -12 -17 4 -4 16 13 21 21 13 21 -2 0 -10 -8 -17
-17z"/>
<path d="M688 1253 c6 -2 18 -2 25 0 6 3 1 5 -13 5 -14 0 -19 -2 -12 -5z"/>
<path d="M48 1243 c7 -3 16 -2 19 1 4 3 -2 6 -13 5 -11 0 -14 -3 -6 -6z"/>
<path d="M1220 1210 c11 -22 23 -40 25 -40 3 0 -4 18 -15 40 -11 22 -23 40
-25 40 -3 0 4 -18 15 -40z"/>
<path d="M1277 1233 c9 -3 9 -11 -3 -31 -15 -26 -15 -26 1 -7 9 11 21 19 26
18 16 -5 10 15 -7 21 -19 7 -35 7 -17 -1z"/>
<path d="M1320 1230 c0 -5 7 -7 15 -4 8 4 15 8 15 10 0 2 -7 4 -15 4 -8 0 -15
-4 -15 -10z"/>
<path d="M683 1185 c0 -22 2 -30 4 -17 2 12 2 30 0 40 -3 9 -5 -1 -4 -23z"/>
<path d="M1132 1180 c0 -19 2 -27 5 -17 2 9 2 25 0 35 -3 9 -5 1 -5 -18z"/>
<path d="M1342 1195 c15 -16 20 -17 30 -6 11 11 10 13 0 7 -7 -4 -21 -2 -30 5
-15 12 -15 11 0 -6z"/>
<path d="M1171 1164 c0 -11 3 -14 6 -6 3 7 2 16 -1 19 -3 4 -6 -2 -5 -13z"/>
<path d="M521 1005 c0 -11 4 -27 9 -35 9 -13 11 -13 20 0 5 8 9 24 9 35 -1 17
-2 17 -6 3 -2 -10 -8 -18 -13 -18 -5 0 -11 8 -13 18 -4 14 -5 14 -6 -3z"/>
<path d="M582 990 c0 -19 2 -27 5 -17 2 9 2 25 0 35 -3 9 -5 1 -5 -18z"/>
<path d="M610 990 c0 -26 3 -31 10 -20 6 10 10 11 10 3 0 -7 5 -13 10 -13 6 0
9 15 9 33 -1 18 -3 24 -6 14 -5 -18 -5 -18 -19 0 -12 16 -13 15 -14 -17z"/>
<path d="M669 1018 c-7 -15 -6 -58 2 -58 5 0 9 14 9 30 0 25 -6 39 -11 28z"/>
<path d="M694 1005 c-10 -24 4 -45 28 -44 23 0 23 0 -2 10 -23 10 -24 11 -7
23 21 16 22 26 2 26 -9 0 -18 -7 -21 -15z"/>
<path d="M752 990 c0 -19 2 -27 5 -17 2 9 2 25 0 35 -3 9 -5 1 -5 -18z"/>
<path d="M781 993 c-1 -27 3 -33 19 -33 16 0 20 6 19 33 -2 30 -2 30 -6 5 -2
-16 -8 -28 -13 -28 -5 0 -11 12 -13 28 -4 25 -4 25 -6 -5z"/>
<path d="M840 1009 c0 -6 8 -18 18 -26 16 -14 16 -14 0 -9 -10 3 -18 1 -18 -5
0 -6 8 -9 18 -7 23 5 23 52 -1 56 -9 2 -17 -2 -17 -9z"/>
<path d="M920 990 c0 -25 4 -31 18 -28 11 2 17 12 17 28 0 16 -6 26 -17 28
-14 3 -18 -3 -18 -28z m30 1 c0 -6 -4 -13 -10 -16 -5 -3 -10 1 -10 9 0 9 5 16
10 16 6 0 10 -4 10 -9z"/>
<path d="M975 1000 c-8 -25 1 -40 24 -40 14 0 17 6 13 30 -5 34 -27 40 -37 10z"/>
<path d="M1050 992 c0 -21 5 -28 20 -29 11 -1 20 4 20 10 0 7 4 6 10 -3 7 -11
10 -7 10 18 0 17 -4 32 -10 32 -5 0 -10 -8 -10 -17 -1 -17 -1 -17 -14 0 -19
24 -26 21 -26 -11z"/>
<path d="M1124 1006 c-9 -24 4 -48 23 -44 12 2 18 12 18 28 0 29 -32 41 -41
16z m36 -17 c0 -5 -7 -9 -15 -9 -15 0 -20 12 -9 23 8 8 24 -1 24 -14z"/>
<path d="M1189 1018 c-7 -32 -7 -48 1 -53 6 -3 10 -1 10 6 0 8 4 8 13 1 10 -9
13 -5 12 16 0 17 -6 28 -17 30 -10 2 -18 2 -19 0z"/>
<path d="M1251 1002 c-16 -30 -14 -37 14 -37 28 0 32 12 11 40 -13 18 -14 18
-25 -3z"/>
<path d="M1300 990 c0 -22 5 -30 18 -30 13 0 18 9 20 30 2 24 -2 30 -18 30
-16 0 -20 -7 -20 -30z"/>
<path d="M1360 1006 c0 -9 5 -16 10 -16 6 0 10 -5 10 -11 0 -5 -4 -7 -10 -4
-5 3 -10 1 -10 -5 0 -6 8 -10 18 -8 23 5 23 52 -1 56 -10 2 -17 -3 -17 -12z"/>
<path d="M1482 947 c-10 -11 -10 -21 -1 -43 7 -16 13 -33 13 -38 1 -5 7 -11
14 -14 9 -3 6 9 -7 34 -14 26 -17 40 -10 45 6 4 10 12 7 19 -3 9 -7 8 -16 -3z"/>
<path d="M1883 928 c45 -256 27 -501 -48 -648 -78 -154 -253 -242 -530 -269
-67 -6 1 -9 273 -10 l362 -1 0 480 0 480 -31 0 c-30 0 -31 -2 -26 -32z"/>
<path d="M1543 900 c-5 -17 -8 -18 -22 -8 -14 12 -14 11 -3 -4 12 -16 16 -16
37 -2 25 16 38 7 48 -31 4 -18 5 -18 6 3 1 23 -30 62 -50 62 -6 0 -13 -9 -16
-20z"/>
<path d="M1455 869 c-10 -15 3 -25 16 -12 7 7 7 13 1 17 -6 3 -14 1 -17 -5z"/>
<path d="M1563 860 c-1 -11 4 -20 13 -20 16 0 16 2 8 24 -8 22 -19 20 -21 -4z"/>
<path d="M1143 825 c-35 -15 -62 -59 -55 -90 8 -39 24 -48 74 -42 77 9 78 -30
1 -42 -29 -5 -38 -11 -38 -26 0 -16 8 -21 43 -23 36 -3 47 1 72 27 32 31 36
53 20 97 -10 26 -13 26 -64 21 -30 -3 -57 -3 -60 0 -12 13 18 33 49 33 39 0
56 27 29 47 -22 16 -31 16 -71 -2z"/>
<path d="M1638 834 c-4 -3 -12 -7 -20 -8 -7 -1 -27 -11 -45 -22 l-31 -20 43
-2 c28 -1 47 4 55 13 8 9 8 15 2 15 -6 0 -12 -5 -14 -11 -2 -6 -13 -9 -23 -6
-17 4 -15 7 13 18 17 7 32 17 32 21 0 9 -4 10 -12 2z"/>
<path d="M508 818 c-17 -13 -61 -195 -52 -210 10 -16 44 -8 44 11 0 29 59 37
77 11 16 -22 22 -24 42 -11 12 8 8 26 -28 110 -24 56 -49 101 -55 101 -7 0
-19 -6 -28 -12z m42 -114 c0 -11 -29 -28 -37 -21 -2 2 0 19 3 37 7 30 8 32 21
15 7 -11 13 -24 13 -31z"/>
<path d="M765 821 c-36 -15 -58 -49 -62 -98 -4 -39 0 -55 19 -83 32 -47 68
-59 113 -37 42 20 54 43 32 64 -14 14 -17 14 -33 -1 -39 -39 -98 16 -78 73 8
21 16 26 44 26 64 0 78 25 30 50 -32 17 -37 17 -65 6z"/>
<path d="M938 736 c-35 -69 -44 -96 -35 -105 15 -15 28 -14 42 5 17 23 69 6
73 -24 2 -16 10 -22 28 -22 13 0 24 3 24 8 -3 63 -31 217 -42 223 -31 20 -45
7 -90 -85z m72 -26 c0 -23 -3 -27 -20 -23 -23 6 -23 5 -9 37 15 31 29 24 29
-14z"/>
<path d="M1351 751 c-28 -43 -51 -85 -51 -94 0 -22 22 -27 42 -10 14 13 21 13
45 1 16 -7 29 -23 31 -36 2 -14 10 -22 23 -22 17 0 19 8 19 99 0 106 4 114 52
105 l23 -5 -22 12 c-13 7 -23 16 -23 21 0 4 -4 8 -10 8 -5 0 -7 -7 -4 -15 4
-8 1 -15 -5 -15 -6 0 -11 6 -11 13 0 6 -13 13 -29 14 -25 2 -34 -7 -80 -76z
m67 -31 c-1 -22 -6 -30 -20 -30 -21 0 -23 12 -6 40 18 28 27 25 26 -10z"/>
<path d="M820 511 c0 -13 2 -13 62 -16 25 -1 54 -5 62 -8 10 -4 16 -1 16 9 0
11 -12 14 -57 12 -32 -1 -64 1 -70 5 -8 5 -13 4 -13 -2z"/>
<path d="M970 504 c0 -8 9 -14 20 -14 11 0 20 4 20 9 0 5 -9 11 -20 14 -13 3
-20 0 -20 -9z"/>
<path d="M1050 499 c0 -5 11 -9 25 -9 14 0 25 4 25 9 0 5 -11 9 -25 9 -14 0
-25 -4 -25 -9z"/>
<path d="M52 425 c0 -16 2 -22 5 -12 2 9 2 23 0 30 -3 6 -5 -1 -5 -18z"/>
<path d="M743 420 c1 -11 5 -20 9 -20 4 0 8 9 8 20 0 11 -4 20 -9 20 -6 0 -9
-9 -8 -20z"/>
<path d="M772 420 c0 -14 2 -19 5 -12 2 6 2 18 0 25 -3 6 -5 1 -5 -13z"/>
<path d="M790 420 c0 -11 4 -20 9 -20 5 0 7 9 4 20 -3 11 -7 20 -9 20 -2 0 -4
-9 -4 -20z"/>
<path d="M820 428 c0 -23 17 -31 24 -12 4 9 4 19 1 22 -3 3 -5 -1 -5 -9 0 -11
-2 -11 -10 1 -8 13 -10 13 -10 -2z"/>
<path d="M867 433 c-12 -12 -7 -30 8 -30 17 0 18 6 7 25 -5 7 -11 9 -15 5z"/>
<path d="M900 420 c0 -9 7 -17 15 -17 8 0 15 8 15 17 0 9 -7 17 -15 17 -8 0
-15 -8 -15 -17z"/>
<path d="M947 433 c-12 -12 -7 -30 8 -30 17 0 18 6 7 25 -5 7 -11 9 -15 5z"/>
<path d="M990 422 c0 -15 8 -19 35 -19 22 0 35 5 35 13 0 21 -18 26 -29 7 -10
-17 -10 -17 -11 0 0 9 -7 17 -15 17 -8 0 -15 -8 -15 -18z"/>
<path d="M1070 420 c0 -9 7 -17 15 -17 8 0 15 8 15 17 0 9 -7 17 -15 17 -8 0
-15 -8 -15 -17z"/>
<path d="M1110 422 c0 -14 8 -18 35 -19 28 -1 35 3 35 18 0 21 -25 26 -33 7
-4 -10 -6 -10 -6 0 -1 19 -31 14 -31 -6z"/>
<path d="M64 340 c11 -119 11 -125 -1 -123 -17 3 -24 -24 -7 -31 8 -3 20 5 30
22 8 15 12 18 9 7 -4 -11 -9 -27 -12 -35 -2 -8 -17 -23 -34 -32 -17 -10 -29
-25 -29 -38 0 -11 -4 -20 -10 -20 -5 0 -10 -20 -10 -45 l0 -45 443 1 c328 1
415 4 337 10 -196 16 -362 55 -485 114 -90 43 -137 84 -172 146 -26 45 -29 47
-35 27 -5 -16 -6 -12 -3 12 2 21 -2 45 -11 60 -14 24 -14 22 -10 -30z"/>
<path d="M919 301 c-1 -3 -1 -9 0 -13 0 -5 -5 -8 -13 -8 -21 0 -29 -17 -17
-37 10 -17 10 -17 11 0 0 9 5 17 10 17 6 0 10 -7 10 -16 0 -8 4 -13 10 -9 5 3
7 12 3 20 -3 9 1 15 10 15 10 0 14 -7 11 -22 -4 -20 -3 -21 8 -6 11 15 13 15
25 0 11 -16 12 -16 13 1 0 19 20 24 20 5 0 -9 3 -9 13 1 10 10 9 14 -5 22 -10
6 -18 17 -18 25 0 11 -11 14 -45 13 -25 -2 -46 -5 -46 -8z"/>
<path d="M1011 214 c-1 -12 -7 -24 -14 -27 -22 -8 -71 4 -84 21 -8 10 -13 11
-13 4 0 -22 39 -46 74 -47 19 0 34 2 34 5 -1 3 2 13 6 22 4 10 6 23 3 30 -3 7
-6 3 -6 -8z"/>
<path d="M775 180 c-4 -6 15 -10 49 -10 30 0 58 5 61 10 4 6 -15 10 -49 10
-30 0 -58 -4 -61 -10z"/>
<path d="M1034 182 c3 -5 -4 -23 -14 -40 l-20 -32 76 0 c47 0 73 4 69 10 -3 6
-12 10 -20 10 -7 0 -16 6 -18 13 -4 10 -6 10 -6 0 -1 -18 -29 -16 -48 2 -20
21 -15 24 40 26 66 3 59 19 -9 19 -30 0 -53 -4 -50 -8z"/>
<path d="M772 133 c2 -10 13 -19 26 -21 12 -2 22 -9 22 -15 0 -9 2 -9 8 0 4 6
30 13 57 16 40 3 45 5 28 11 -13 5 -23 13 -23 20 0 8 -2 8 -8 0 -10 -17 -104
-23 -97 -7 2 7 0 13 -6 13 -6 0 -9 -8 -7 -17z"/>
<path d="M950 124 c-10 -12 -8 -14 14 -14 28 0 35 14 12 23 -8 3 -20 -1 -26
-9z"/>
</g>
</svg>
